<svg width="343" height="229" viewBox="0 0 343 229" fill="none" xmlns="http://www.w3.org/2000/svg">
<path d="M313.72 99.7467C312.904 99.7467 312.242 99.085 312.242 98.2686C312.242 97.4523 312.904 96.7905 313.72 96.7905C314.536 96.7905 315.198 97.4523 315.198 98.2686C315.198 99.085 314.536 99.7467 313.72 99.7467Z" fill="#F5F5F5"/>
<path d="M296.175 98.0805C296.175 98.9536 296.883 99.6611 297.756 99.6611C298.629 99.6611 299.336 98.9536 299.336 98.0805C299.336 97.2075 298.629 96.5 297.756 96.5C296.883 96.5005 296.175 97.208 296.175 98.0805Z" fill="#F5F5F5"/>
<path d="M314.186 106.577C314.186 107.136 314.639 107.589 315.198 107.589C315.756 107.589 316.21 107.136 316.21 106.577C316.21 106.018 315.756 105.565 315.198 105.565C314.639 105.565 314.186 106.018 314.186 106.577Z" fill="#F5F5F5"/>
<path d="M287.229 102.057C286.67 102.057 286.216 101.604 286.216 101.045C286.216 100.486 286.67 100.033 287.229 100.033C287.787 100.033 288.241 100.486 288.241 101.045C288.241 101.604 287.787 102.057 287.229 102.057Z" fill="#F5F5F5"/>
<path d="M86.9088 181.957C82.3977 180.085 82.9881 180.751 78.7203 177.529C75.1169 174.807 70.2189 173.235 66.1646 171.324C65.0094 170.78 63.6562 171.033 62.757 171.94C60.951 173.762 57.9912 174.468 55.6194 173.418C53.6675 172.554 52.2919 170.779 50.5686 169.519C48.8454 168.259 46.2478 167.607 44.6915 169.068C44.2003 169.529 43.871 170.156 43.3236 170.548C41.6347 171.758 39.4408 170.08 37.9463 168.638C33.5728 164.418 28.1552 161.288 22.3141 159.608C20.2374 159.01 17.6836 158.697 16.3363 160.627C15.8438 161.333 15.6563 162.204 15.7084 163.063C15.8223 164.946 16.8865 166.489 17.9256 167.98C15.8081 166.912 13.5315 165.808 11.0958 166.698C10.6023 166.878 10.1623 167.183 9.82481 167.586C6.85672 171.128 12.1087 172.726 14.6309 173.695C14.6241 172.89 49.8086 176.07 63.0223 177.938C74.7607 179.597 86.9088 181.957 86.9088 181.957Z" fill="#F5F5F5"/>
<path d="M207.187 197.181C207.187 197.181 207.867 198.72 206.663 200.65C205.459 202.58 205.628 203.924 205.628 203.924L208.284 203.254C208.284 203.254 209.822 204.539 207.482 206.829L205.588 204.958C205.588 204.958 204.578 206.533 205.412 208.136C206.246 209.739 204.026 212.381 204.026 212.381C204.026 212.381 197.788 211.474 193.638 206.597C192.316 205.084 191.387 203.482 190.9 202.226C190.9 202.226 196.108 194.426 207.187 197.181Z" fill="#EBEBEB"/>
<path d="M192.837 201.097C192.912 201.02 193.013 200.971 193.126 201.066C193.243 201.198 193.159 201.534 193.104 201.658C193.048 201.782 192.884 201.868 192.77 201.793C192.648 201.712 192.67 201.529 192.706 201.388C192.732 201.283 192.762 201.174 192.837 201.097Z" fill="#E0E0E0"/>
<path d="M206.569 205.259C206.547 205.296 206.852 205.531 207.204 205.853C207.557 206.176 207.867 206.422 207.897 206.387C207.923 206.357 207.666 206.065 207.308 205.737C206.948 205.408 206.59 205.221 206.569 205.259Z" fill="#E0E0E0"/>
<path d="M206.808 204.862C206.797 204.904 207.165 205.043 207.63 205.172C208.095 205.302 208.481 205.374 208.493 205.333C208.504 205.291 208.136 205.152 207.671 205.022C207.206 204.893 206.82 204.821 206.808 204.862Z" fill="#E0E0E0"/>
<path d="M206.776 204.449C206.788 204.484 207.217 204.422 207.756 204.326C208.025 204.274 208.267 204.208 208.435 204.137C208.605 204.068 208.697 203.998 208.687 203.98C208.669 203.95 208.262 204.083 207.727 204.174C207.193 204.269 206.761 204.402 206.776 204.449Z" fill="#E0E0E0"/>
<path d="M203.19 211.914C203.654 210.361 203.961 208.763 204.108 207.15C204.271 205.343 204.239 203.489 204.82 201.77C205.016 201.191 205.279 200.637 205.456 200.052C205.633 199.468 205.722 198.836 205.56 198.248C205.434 200.195 204.07 201.841 203.61 203.737C202.957 206.43 203.757 209.202 203.19 211.914Z" fill="#F5F5F5"/>
<path d="M198.275 210.015C200.019 205.921 200.519 201.845 200.457 197.395C200.455 197.224 200.438 197.025 200.296 196.928C200.118 196.804 199.855 196.945 199.77 197.145C199.684 197.345 199.719 197.573 199.745 197.789C200.007 199.961 199.18 202.095 198.744 204.239C198.365 206.106 198.359 208.112 198.275 210.015Z" fill="#F5F5F5"/>
<path d="M193.321 206.07C194.324 203.585 195.102 201.01 195.646 198.387C194.928 199.527 194.249 200.7 193.771 201.96C193.294 203.22 193.024 204.578 193.147 205.919" fill="#F5F5F5"/>
<path d="M193.433 200.243C193.439 200.254 193.614 200.176 193.932 200.04C194.251 199.904 194.713 199.711 195.295 199.501C195.877 199.291 196.579 199.065 197.371 198.867C198.163 198.677 199.048 198.462 199.98 198.511C200.916 198.552 201.744 198.972 202.364 199.484C202.993 199.998 203.441 200.588 203.784 201.1C204.126 201.613 204.37 202.052 204.544 202.351C204.717 202.652 204.815 202.817 204.825 202.812C204.829 202.81 204.811 202.765 204.773 202.682C204.725 202.583 204.667 202.465 204.597 202.323C204.439 202.014 204.21 201.566 203.875 201.04C203.541 200.517 203.095 199.907 202.455 199.374C201.826 198.843 200.961 198.399 199.989 198.357C199.023 198.306 198.128 198.531 197.335 198.729C196.539 198.936 195.836 199.174 195.256 199.398C194.676 199.623 194.218 199.832 193.906 199.986C193.75 200.062 193.631 200.124 193.551 200.169C193.471 200.213 193.431 200.238 193.433 200.243Z" fill="#E0E0E0"/>
<path d="M193.45 204.327C193.445 204.33 193.466 204.366 193.508 204.431C193.552 204.495 193.613 204.592 193.704 204.708C193.88 204.946 194.154 205.275 194.529 205.648C195.272 206.395 196.474 207.291 198.002 207.841C199.53 208.392 201.028 208.467 202.076 208.365C202.603 208.317 203.024 208.238 203.311 208.167C203.455 208.136 203.564 208.1 203.639 208.078C203.713 208.055 203.751 208.041 203.75 208.035C203.747 208.024 203.587 208.056 203.298 208.108C203.01 208.16 202.589 208.222 202.068 208.255C201.028 208.328 199.557 208.236 198.054 207.694C196.551 207.154 195.359 206.287 194.604 205.569C194.224 205.21 193.939 204.895 193.75 204.67C193.562 204.446 193.46 204.32 193.45 204.327Z" fill="#E0E0E0"/>
<path d="M317.251 157.614C317.943 158.254 313.895 164.486 314.907 165.019C315.919 165.551 322.204 168.534 321.459 168.641C320.713 168.747 313.948 166.989 313.735 167.522C313.522 168.055 312.989 175.725 312.19 175.459C311.391 175.192 311.657 167.682 310.538 167.948C309.42 168.214 303.294 170.132 302.975 169.546C302.655 168.96 309.349 166.18 309.526 165.178C309.686 164.272 306.33 158.253 306.863 158.413C307.396 158.572 311.447 163.383 312.241 163.207C313.202 162.994 316.611 157.348 317.251 157.614Z" fill="#E0E0E0"/>
<path d="M225.329 194.901C225.329 195.859 226.105 196.635 227.062 196.635C228.02 196.635 228.796 195.859 228.796 194.901C228.796 193.944 228.02 193.167 227.062 193.167C226.105 193.167 225.329 193.944 225.329 194.901Z" fill="#E0E0E0"/>
<path d="M32.8944 197.702C31.9369 197.702 31.1607 196.925 31.1607 195.968C31.1607 195.01 31.9369 194.234 32.8944 194.234C33.8519 194.234 34.6282 195.01 34.6282 195.968C34.6282 196.925 33.8519 197.702 32.8944 197.702Z" fill="#E0E0E0"/>
<path d="M232.544 187.621C232.544 188.1 232.932 188.488 233.41 188.488C233.889 188.488 234.277 188.1 234.277 187.621C234.277 187.143 233.889 186.754 233.41 186.754C232.932 186.755 232.544 187.143 232.544 187.621Z" fill="#E0E0E0"/>
<path d="M28.1491 191.485C28.1491 191.963 28.5374 192.352 29.0162 192.352C29.495 192.352 29.8833 191.963 29.8833 191.485C29.8833 191.006 29.495 190.618 29.0162 190.618C28.5374 190.618 28.1491 191.006 28.1491 191.485Z" fill="#E0E0E0"/>
<path d="M265.366 186.156C265.366 186.635 265.754 187.023 266.233 187.023C266.712 187.023 267.1 186.635 267.1 186.156C267.1 185.677 266.712 185.289 266.233 185.289C265.754 185.289 265.366 185.677 265.366 186.156Z" fill="#E0E0E0"/>
<path d="M240.92 138.964C241.887 134.659 245.269 130.981 249.478 129.657C250.692 129.275 252.045 129.03 252.902 128.089C253.72 127.191 253.871 125.889 253.976 124.679C254.082 123.47 254.217 122.17 255.017 121.256C255.817 120.342 257.536 120.17 258.124 121.232C258.755 118.545 259.645 115.078 261.401 112.745C262.007 111.94 263.228 112.069 263.715 112.952C264.426 114.241 265.785 115.523 266.706 115.426C268.18 115.272 269.287 114.01 270.013 112.717C270.915 111.11 271.471 109.331 272.326 107.699C273.047 106.322 274.059 104.985 275.664 104.642C276.621 104.438 277.647 104.735 278.225 105.525C279.28 106.964 278.208 108.823 277.325 110.31C276.442 111.797 275.891 114.068 277.479 114.921C278.185 115.3 279.049 115.202 279.717 114.76C281.856 113.348 281.742 110.413 283.986 109.127C284.694 108.721 285.585 108.706 286.249 109.183C288.032 110.465 285.832 113.396 287.418 114.365C287.948 114.689 288.625 114.572 289.1 114.174C289.937 113.474 290.101 112.418 290.45 111.46C291.111 109.643 292.45 108.165 293.785 106.766C294.855 105.646 296.027 104.493 297.679 104.42C298.448 104.386 299.217 104.682 299.679 105.298C300.599 106.524 299.838 107.974 298.947 109.004C297.99 110.112 296.778 111.164 296.995 112.816C297.096 113.576 297.745 114.186 298.511 114.157C300.025 114.101 300.021 111.899 301.653 111.859C302.565 111.837 303.356 112.476 303.658 113.336C304.144 114.717 303.546 116.134 302.962 117.426C305.332 115.997 307.702 114.566 310.071 113.137C311.47 112.293 313.138 113.834 312.353 115.267C312.347 115.278 312.341 115.289 312.335 115.3C313.66 115.252 314.486 113.913 315.286 112.857C316.094 111.788 317.656 110.835 318.667 111.741C319.216 112.234 319.306 113.048 318.998 113.72C318.493 114.822 317.385 115.311 316.335 115.756C307.787 119.383 299.239 123.01 290.691 126.636C283.72 129.594 276.682 132.572 269.241 133.975C263.986 134.965 258.611 135.153 253.327 135.978C248.043 136.804 242.71 138.342 238.513 141.656L240.92 138.964Z" fill="#F5F5F5"/>
<path d="M123.795 26.7104C123.561 25.0105 125.96 23.6124 127.762 23.467C128.622 23.3975 129.515 23.5292 130.329 23.2452C132.094 22.6301 132.799 20.3507 134.52 19.6245C135.808 19.0816 137.29 19.565 138.537 20.193C139.785 20.8209 141.018 21.6111 142.412 21.7003C143.625 21.7781 144.942 21.3285 146.003 21.9208C146.793 22.3621 147.207 23.2731 147.936 23.8105C148.649 24.3364 149.579 24.4475 150.463 24.4955C151.348 24.5436 152.263 24.5527 153.068 24.9213C153.874 25.2899 154.54 26.1419 154.373 27.0118L123.795 26.7104Z" fill="#EBEBEB"/>
<path d="M183.546 76.7288C183.204 74.2431 186.712 72.1984 189.348 71.9857C190.605 71.8842 191.911 72.0768 193.102 71.6615C195.682 70.7624 196.713 67.4289 199.23 66.367C201.113 65.573 203.279 66.2796 205.104 67.1984C206.929 68.1167 208.732 69.2724 210.771 69.4032C212.544 69.5166 214.47 68.859 216.021 69.7252C217.177 70.3704 217.783 71.7027 218.848 72.4888C219.891 73.2576 221.251 73.4204 222.544 73.4908C223.838 73.5613 225.177 73.5741 226.355 74.1137C227.533 74.6534 228.507 75.8982 228.262 77.1705L183.546 76.7288Z" fill="#F5F5F5"/>
<path d="M276.719 35.9429C276.421 33.7806 279.473 32.0016 281.766 31.8168C282.86 31.7285 283.996 31.8959 285.032 31.5346C287.276 30.7521 288.173 27.8526 290.363 26.9288C292 26.2382 293.886 26.8529 295.473 27.6519C297.06 28.4508 298.629 29.456 300.403 29.5699C301.945 29.6687 303.62 29.0966 304.97 29.8503C305.976 30.4119 306.502 31.5708 307.429 32.2545C308.336 32.9235 309.519 33.0649 310.645 33.1261C311.77 33.1874 312.935 33.1989 313.959 33.6676C314.984 34.1368 315.832 35.2203 315.619 36.3266L276.719 35.9429Z" fill="#F5F5F5"/>
<path d="M38.8232 99.073C38.4619 96.4465 42.1682 94.2861 44.9533 94.062C46.2814 93.955 47.6612 94.158 48.9193 93.7194C51.6455 92.7691 52.7344 89.2472 55.3947 88.1253C57.3832 87.2866 59.6731 88.0334 61.6007 89.0034C63.5288 89.9739 65.4341 91.195 67.5881 91.3326C69.4618 91.4524 71.4965 90.7577 73.1356 91.6729C74.3571 92.3548 74.9969 93.7624 76.1229 94.5929C77.2246 95.4052 78.6611 95.5771 80.0276 95.6517C81.3941 95.7262 82.8091 95.7399 84.0535 96.3098C85.2979 96.8796 86.3274 98.1954 86.069 99.5395L38.8232 99.073Z" fill="#EBEBEB"/>
<path d="M251.36 192.028C251.36 192.028 252.785 193.933 251.738 196.97C250.692 200.008 251.351 201.805 251.351 201.805L254.795 200.042C254.795 200.042 257.319 201.324 254.823 205.217L251.623 203.241C251.623 203.241 250.731 205.73 252.387 207.673C254.042 209.616 251.824 213.956 251.824 213.956C251.824 213.956 242.947 214.683 235.69 209.283C233.39 207.62 231.603 205.707 230.536 204.132C230.536 204.132 235.235 191.745 251.36 192.028Z" fill="#FF725E"/>
<path d="M232.845 201.965C232.924 201.835 233.048 201.736 233.233 201.831C233.436 201.976 233.427 202.464 233.39 202.653C233.352 202.842 233.154 203.012 232.973 202.944C232.78 202.872 232.752 202.614 232.757 202.407C232.761 202.255 232.767 202.095 232.845 201.965Z" fill="#263238"/>
<path d="M253.069 203.346C253.051 203.403 253.545 203.629 254.132 203.962C254.721 204.295 255.225 204.534 255.255 204.478C255.282 204.427 254.835 204.107 254.238 203.77C253.639 203.43 253.087 203.286 253.069 203.346Z" fill="#263238"/>
<path d="M253.273 202.724C253.27 202.784 253.82 202.858 254.502 202.89C255.183 202.922 255.738 202.898 255.741 202.837C255.744 202.777 255.193 202.702 254.512 202.671C253.831 202.639 253.276 202.663 253.273 202.724Z" fill="#263238"/>
<path d="M253.098 202.165C253.125 202.209 253.697 201.989 254.409 201.686C254.762 201.528 255.074 201.361 255.284 201.21C255.494 201.06 255.599 200.935 255.58 200.913C255.545 200.878 255.028 201.19 254.319 201.485C253.615 201.785 253.063 202.105 253.098 202.165Z" fill="#263238"/>
<g opacity="0.6">
<path d="M250.526 213.578C250.672 211.294 250.589 208.996 250.279 206.728C249.933 204.189 249.3 201.646 249.556 199.096C249.643 198.237 249.829 197.39 249.888 196.529C249.947 195.669 249.869 194.771 249.459 194.012C249.902 196.732 248.545 199.431 248.513 202.187C248.467 206.102 250.446 209.664 250.526 213.578Z" fill="white"/>
</g>
<g opacity="0.6">
<path d="M243.158 212.521C244.263 206.333 243.659 200.563 242.165 194.456C242.107 194.22 242.02 193.952 241.795 193.863C241.51 193.75 241.193 194.027 241.139 194.329C241.084 194.631 241.205 194.934 241.309 195.223C242.358 198.131 241.895 201.33 241.974 204.42C242.042 207.111 242.669 209.874 243.158 212.521Z" fill="white"/>
</g>
<g opacity="0.6">
<path d="M235.088 208.659C235.68 204.92 235.937 201.128 235.854 197.344C235.227 199.141 234.663 200.972 234.405 202.858C234.147 204.744 234.205 206.698 234.8 208.506" fill="white"/>
</g>
<path d="M233.395 200.601C233.406 200.615 233.623 200.451 234.018 200.164C234.414 199.876 234.989 199.463 235.724 198.99C236.458 198.517 237.352 197.984 238.381 197.46C239.41 196.948 240.561 196.371 241.861 196.144C243.162 195.904 244.434 196.219 245.451 196.728C246.479 197.236 247.284 197.907 247.917 198.502C248.551 199.1 249.026 199.627 249.361 199.984C249.694 200.344 249.881 200.54 249.893 200.53C249.899 200.525 249.86 200.469 249.781 200.367C249.683 200.246 249.566 200.102 249.425 199.928C249.109 199.553 248.652 199.009 248.025 198.391C247.399 197.776 246.591 197.079 245.541 196.548C244.507 196.015 243.176 195.678 241.824 195.927C240.478 196.164 239.318 196.757 238.288 197.281C237.258 197.818 236.366 198.369 235.639 198.861C234.911 199.353 234.348 199.787 233.967 200.096C233.776 200.251 233.631 200.375 233.535 200.462C233.439 200.547 233.391 200.595 233.395 200.601Z" fill="#263238"/>
<path d="M234.712 206.218C234.707 206.224 234.746 206.266 234.826 206.342C234.906 206.416 235.021 206.531 235.183 206.662C235.5 206.933 235.982 207.3 236.617 207.694C237.876 208.487 239.815 209.34 242.093 209.613C244.372 209.887 246.457 209.516 247.869 209.044C248.579 208.811 249.134 208.569 249.506 208.381C249.694 208.292 249.833 208.207 249.929 208.154C250.024 208.1 250.072 208.068 250.068 208.061C250.06 208.045 249.851 208.141 249.469 208.303C249.089 208.466 248.53 208.684 247.822 208.896C246.414 209.325 244.36 209.665 242.119 209.395C239.878 209.127 237.963 208.311 236.696 207.562C236.059 207.189 235.567 206.844 235.236 206.596C234.904 206.348 234.724 206.205 234.712 206.218Z" fill="#263238"/>
<path d="M48.2803 197.168C48.2803 197.168 49.1232 198.562 48.2062 200.563C47.2893 202.563 47.6176 203.832 47.6176 203.832L50.0836 202.862C50.0836 202.862 51.7181 203.905 49.7561 206.391L47.7068 204.83C47.7068 204.83 46.9321 206.466 47.9304 207.902C48.9288 209.337 47.1251 212.147 47.1251 212.147C47.1251 212.147 41.0252 212.047 36.4404 207.879C34.9842 206.591 33.8944 205.167 33.2724 204.022C33.2724 204.022 37.3061 195.893 48.2803 197.168Z" fill="#FF725E"/>
<path d="M34.9914 202.699C35.054 202.616 35.1446 202.556 35.2649 202.634C35.3934 202.746 35.3545 203.079 35.3161 203.205C35.2777 203.331 35.1313 203.434 35.0129 203.376C34.8853 203.313 34.8839 203.135 34.9013 202.995C34.9141 202.891 34.9287 202.782 34.9914 202.699Z" fill="#263238"/>
<path d="M48.6854 204.998C48.6694 205.035 48.9909 205.223 49.3687 205.49C49.7478 205.756 50.0752 205.953 50.0999 205.916C50.1214 205.884 49.8383 205.635 49.4537 205.366C49.0677 205.093 48.701 204.959 48.6854 204.998Z" fill="#263238"/>
<path d="M48.8662 204.587C48.8602 204.628 49.2302 204.716 49.6926 204.783C50.1549 204.851 50.5345 204.872 50.5405 204.83C50.5464 204.789 50.1764 204.701 49.7141 204.635C49.2517 204.567 48.8721 204.546 48.8662 204.587Z" fill="#263238"/>
<path d="M48.7839 204.195C48.7994 204.227 49.2041 204.115 49.7095 203.956C49.9606 203.873 50.1851 203.779 50.3379 203.69C50.4915 203.602 50.5711 203.524 50.5602 203.508C50.5391 203.482 50.1655 203.66 49.6624 203.814C49.1621 203.97 48.7642 204.152 48.7839 204.195Z" fill="#263238"/>
<g opacity="0.6">
<path d="M46.2648 211.802C46.5177 210.255 46.6156 208.682 46.5566 207.116C46.4908 205.362 46.2301 203.586 46.5758 201.864C46.6924 201.285 46.8763 200.72 46.9742 200.137C47.072 199.554 47.0789 198.937 46.8502 198.392C46.9701 200.277 45.8642 202.025 45.657 203.902C45.363 206.568 46.4729 209.129 46.2648 211.802Z" fill="white"/>
</g>
<g opacity="0.6">
<path d="M41.3127 210.587C42.4812 206.443 42.457 202.468 41.8483 198.206C41.825 198.041 41.7838 197.853 41.6361 197.777C41.449 197.68 41.2149 197.848 41.1573 198.05C41.1001 198.253 41.1618 198.467 41.2135 198.671C41.733 200.723 41.203 202.874 41.0493 204.985C40.9153 206.824 41.1577 208.75 41.3127 210.587Z" fill="white"/>
</g>
<g opacity="0.6">
<path d="M36.0709 207.413C36.7258 204.904 37.1552 202.336 37.3528 199.751C36.8044 200.934 36.2968 202.144 35.9945 203.413C35.6922 204.681 35.6003 206.017 35.8848 207.289" fill="white"/>
</g>
<path d="M35.458 201.806C35.4645 201.816 35.6232 201.72 35.9122 201.55C36.2012 201.38 36.6211 201.137 37.1534 200.864C37.6857 200.591 38.331 200.287 39.0673 199.999C39.8036 199.719 40.6264 199.403 41.5278 199.335C42.4306 199.259 43.2771 199.559 43.9361 199.974C44.6029 200.389 45.106 200.901 45.4984 201.349C45.8908 201.8 46.1789 202.191 46.3833 202.456C46.5859 202.723 46.7007 202.87 46.7094 202.864C46.7135 202.861 46.6911 202.82 46.644 202.745C46.5854 202.657 46.5155 202.551 46.4309 202.423C46.2411 202.146 45.9653 201.744 45.5793 201.281C45.1938 200.82 44.6902 200.29 44.0102 199.857C43.3407 199.425 42.4562 199.105 41.5177 199.185C40.5843 199.256 39.7538 199.582 39.0166 199.87C38.278 200.167 37.6331 200.483 37.104 200.77C36.5749 201.056 36.1619 201.314 35.8816 201.5C35.7416 201.593 35.6341 201.667 35.5633 201.72C35.491 201.773 35.4553 201.802 35.458 201.806Z" fill="#263238"/>
<path d="M35.9784 205.724C35.9748 205.727 35.9985 205.759 36.0475 205.816C36.0973 205.872 36.1682 205.958 36.2697 206.058C36.4678 206.264 36.7719 206.546 37.178 206.858C37.9834 207.482 39.2474 208.195 40.7823 208.533C42.3175 208.873 43.7641 208.76 44.7579 208.533C45.2577 208.422 45.6519 208.294 45.9181 208.191C46.0526 208.143 46.1527 208.094 46.2218 208.065C46.2904 208.034 46.3251 208.015 46.3233 208.011C46.3187 208 46.1696 208.05 45.8993 208.136C45.6291 208.222 45.233 208.333 44.7364 208.43C43.7476 208.627 42.3248 208.721 40.8147 208.387C39.3055 208.053 38.0543 207.369 37.2411 206.773C36.8314 206.475 36.5194 206.208 36.3104 206.016C36.101 205.825 35.9871 205.715 35.9784 205.724Z" fill="#263238"/>
<path d="M281.545 184.225C281.545 184.225 282.931 185.179 282.917 187.453C282.904 189.728 283.753 190.783 283.753 190.783L285.663 188.821C285.663 188.821 287.646 189.108 286.855 192.285L284.261 191.685C284.261 191.685 284.227 193.556 285.778 194.484C287.328 195.411 286.824 198.825 286.824 198.825C286.824 198.825 281.036 201.323 274.945 199.345C273.026 198.751 271.394 197.873 270.322 197.059C270.321 197.059 270.666 187.688 281.545 184.225Z" fill="#455A64"/>
<path d="M271.378 195.082C271.402 194.978 271.462 194.883 271.608 194.905C271.777 194.956 271.881 195.286 271.899 195.42C271.917 195.556 271.822 195.714 271.686 195.71C271.54 195.705 271.463 195.538 271.419 195.398C271.387 195.296 271.355 195.188 271.378 195.082Z" fill="#263238"/>
<path d="M285.254 191.427C285.255 191.47 285.637 191.51 286.106 191.6C286.577 191.69 286.969 191.737 286.977 191.691C286.983 191.651 286.611 191.538 286.134 191.447C285.655 191.355 285.252 191.383 285.254 191.427Z" fill="#263238"/>
<path d="M285.25 190.964C285.262 191.005 285.647 190.93 286.111 190.797C286.576 190.664 286.942 190.522 286.93 190.481C286.919 190.44 286.533 190.515 286.069 190.648C285.605 190.781 285.238 190.923 285.25 190.964Z" fill="#263238"/>
<path d="M285.006 190.629C285.034 190.652 285.367 190.375 285.776 190.01C285.977 189.825 286.149 189.642 286.255 189.493C286.363 189.345 286.404 189.237 286.387 189.227C286.355 189.211 286.079 189.537 285.671 189.896C285.266 190.257 284.969 190.597 285.006 190.629Z" fill="#263238"/>
<g opacity="0.6">
<path d="M285.866 198.866C285.447 197.301 284.871 195.778 284.149 194.328C283.341 192.703 282.341 191.141 281.936 189.373C281.799 188.777 281.732 188.167 281.577 187.576C281.421 186.986 281.165 186.402 280.718 185.985C281.632 187.709 281.333 189.826 281.936 191.682C282.792 194.318 284.926 196.259 285.866 198.866Z" fill="white"/>
</g>
<g opacity="0.6">
<path d="M280.685 199.826C280.024 195.425 278.312 191.692 275.927 187.936C275.835 187.791 275.716 187.631 275.545 187.622C275.328 187.611 275.178 187.868 275.21 188.083C275.242 188.298 275.392 188.473 275.527 188.644C276.889 190.356 277.303 192.607 278.056 194.661C278.712 196.45 279.759 198.161 280.685 199.826Z" fill="white"/>
</g>
<g opacity="0.6">
<path d="M274.399 199.064C273.949 196.422 273.262 193.821 272.349 191.302C272.336 192.649 272.372 194.005 272.627 195.328C272.881 196.651 273.362 197.948 274.171 199.026" fill="white"/>
</g>
<path d="M271.439 194.043C271.449 194.049 271.557 193.891 271.758 193.608C271.957 193.325 272.25 192.918 272.635 192.435C273.021 191.951 273.499 191.391 274.07 190.806C274.645 190.23 275.285 189.582 276.106 189.135C276.924 188.68 277.849 188.603 278.646 188.714C279.45 188.822 280.142 189.09 280.702 189.345C281.263 189.603 281.701 189.848 282.006 190.012C282.311 190.178 282.481 190.266 282.486 190.257C282.489 190.253 282.45 190.224 282.374 190.174C282.281 190.115 282.17 190.045 282.036 189.96C281.739 189.78 281.309 189.519 280.749 189.246C280.19 188.976 279.49 188.691 278.666 188.572C277.851 188.45 276.882 188.525 276.032 188.999C275.183 189.462 274.54 190.122 273.967 190.707C273.398 191.301 272.925 191.872 272.548 192.367C272.172 192.862 271.893 193.281 271.707 193.575C271.615 193.722 271.545 193.837 271.501 193.917C271.456 193.997 271.434 194.04 271.439 194.043Z" fill="#263238"/>
<path d="M273.594 197.512C273.592 197.517 273.628 197.536 273.698 197.569C273.769 197.601 273.872 197.651 274.01 197.703C274.284 197.812 274.69 197.949 275.205 198.07C276.23 198.316 277.723 198.45 279.312 198.116C280.903 197.784 282.217 197.062 283.057 196.427C283.48 196.109 283.797 195.821 284.005 195.611C284.111 195.508 284.185 195.42 284.237 195.363C284.288 195.304 284.313 195.272 284.309 195.269C284.3 195.26 284.182 195.372 283.963 195.567C283.745 195.763 283.419 196.035 282.992 196.338C282.145 196.944 280.845 197.638 279.281 197.964C277.718 198.292 276.248 198.179 275.229 197.963C274.717 197.857 274.31 197.737 274.031 197.646C273.752 197.555 273.598 197.5 273.594 197.512Z" fill="#263238"/>
<path d="M53.8279 53.7851C49.9101 49.8673 49.9101 43.5155 53.8279 39.5977C57.7456 35.68 64.0975 35.68 68.0152 39.5977C71.9329 43.5154 71.9329 49.8674 68.0152 53.7851C64.0975 57.7028 57.7456 57.7028 53.8279 53.7851Z" fill="#FF725E"/>
<path d="M62.3482 69.1207C62.4068 69.1207 62.4539 67.268 62.4539 64.9832C62.4539 62.6974 62.4068 60.8452 62.3482 60.8452C62.2897 60.8452 62.2426 62.6974 62.2426 64.9832C62.2426 67.268 62.2897 69.1207 62.3482 69.1207Z" fill="#FF725E"/>
<path d="M68.129 58.5123C68.0787 58.5416 69.0222 60.2699 70.2364 62.3727C71.4511 64.476 72.4765 66.1567 72.5268 66.1279C72.5771 66.0986 71.6341 64.3708 70.4194 62.2675C69.2052 60.1642 68.1798 58.4831 68.129 58.5123Z" fill="#FF725E"/>
<path d="M74.0625 54.8182C74.0264 54.8639 75.0751 55.758 76.4054 56.8154C77.7358 57.8732 78.8435 58.6927 78.8801 58.6475C78.9162 58.6017 77.8675 57.7076 76.5371 56.6503C75.2063 55.5929 74.0986 54.7729 74.0625 54.8182Z" fill="#FF725E"/>
<path d="M52.3404 65.0442C52.3706 65.0492 52.4603 64.6578 52.6048 64.0262C52.7488 63.3946 52.9537 62.5243 53.2098 61.5708C53.4668 60.6172 53.7266 59.7616 53.9182 59.1428C54.1098 58.524 54.2287 58.1403 54.1999 58.1293C54.1739 58.1197 54.0056 58.4856 53.7769 59.0943C53.5478 59.703 53.2642 60.5569 53.0058 61.5159C52.7484 62.4749 52.5659 63.3557 52.4584 63.9974C52.3509 64.639 52.313 65.0396 52.3404 65.0442Z" fill="#FF725E"/>
<path d="M42.1652 57.8245C42.2036 57.8684 43.5313 56.7708 45.1301 55.3727C46.7299 53.9746 47.9948 52.8057 47.9564 52.7618C47.918 52.7179 46.5908 53.8155 44.9911 55.2135C43.3922 56.6116 42.1268 57.7806 42.1652 57.8245Z" fill="#FF725E"/>
<path d="M38.2677 47.9018C38.2746 47.932 38.7347 47.8515 39.4778 47.728C40.221 47.6041 41.2486 47.4449 42.3892 47.3137C43.5303 47.1833 44.5675 47.1056 45.3193 47.058C46.0712 47.01 46.5372 46.9844 46.5372 46.9533C46.5372 46.9259 46.0698 46.8989 45.3134 46.9085C44.5574 46.9181 43.5124 46.9725 42.365 47.1038C41.218 47.2359 40.1881 47.4193 39.4495 47.5812C38.7109 47.7431 38.2618 47.8753 38.2677 47.9018Z" fill="#FF725E"/>
<path d="M38.2555 38.1451C38.2418 38.2018 40.4137 38.7794 43.106 39.4353C45.7992 40.0911 47.9931 40.5768 48.0068 40.5201C48.0205 40.4633 45.8491 39.8857 43.1558 39.2299C40.4635 38.5741 38.2692 38.0884 38.2555 38.1451Z" fill="#FF725E"/>
<path d="M49.5913 26.7768C49.5424 26.8089 50.5819 28.4667 51.9119 30.4785C53.2423 32.4912 54.36 34.0965 54.4089 34.064C54.4574 34.032 53.4188 32.3746 52.0879 30.3619C50.758 28.3501 49.6398 26.7448 49.5913 26.7768Z" fill="#FF725E"/>
<path d="M60.8413 24.4023C60.8111 24.4037 60.8148 24.9301 60.8267 25.7794C60.839 26.6286 60.8555 27.8017 60.8546 29.0973C60.8527 30.3934 60.8335 31.566 60.8193 32.4157C60.8052 33.265 60.8006 33.7914 60.8308 33.7928C60.8587 33.7946 60.9163 33.271 60.9684 32.4212C61.0206 31.572 61.0636 30.3966 61.0654 29.0973C61.0668 27.7985 61.026 26.6232 60.9757 25.7739C60.9254 24.9246 60.8692 24.4005 60.8413 24.4023Z" fill="#FF725E"/>
<path d="M69.3606 35.0125C69.4104 35.0432 70.4668 33.4045 71.7204 31.3529C72.9744 29.3009 73.9504 27.6133 73.9005 27.5827C73.8507 27.5525 72.7942 29.1907 71.5402 31.2427C70.2867 33.2943 69.3107 34.9823 69.3606 35.0125Z" fill="#FF725E"/>
<path d="M74.4497 39.3378C74.4556 39.3652 74.864 39.3058 75.5167 39.1686C76.1688 39.0318 77.0638 38.8128 78.0397 38.5251C79.0157 38.237 79.8865 37.9351 80.5084 37.6959C81.1309 37.4572 81.5063 37.2857 81.4963 37.2592C81.4857 37.2308 81.092 37.3529 80.4591 37.5551C79.8261 37.7572 78.9517 38.0353 77.9798 38.3225C77.008 38.6088 76.1231 38.8493 75.4814 39.0231C74.8398 39.1969 74.4433 39.308 74.4497 39.3378Z" fill="#FF725E"/>
<path d="M76.6733 47.0446C76.6678 47.1027 78.1011 47.2879 79.8746 47.4585C81.6486 47.6291 83.0906 47.7201 83.0961 47.662C83.1015 47.6039 81.6687 47.4187 79.8947 47.2481C78.1212 47.078 76.6787 46.9865 76.6733 47.0446Z" fill="#FF725E"/>
<path d="M248.592 60.64C249.48 60.4109 250.828 60.2046 252.475 60.4026C254.109 60.5952 256.062 61.2341 257.775 62.6257C259.411 63.9332 260.814 65.8998 261.442 68.2413C262.416 66.0598 264.023 64.3247 265.765 63.2129C267.608 62.0188 269.585 61.5414 271.222 61.455C272.871 61.3653 274.197 61.6324 275.071 61.8954C275.511 62.0248 275.845 62.1519 276.065 62.2498C276.286 62.3463 276.4 62.4007 276.396 62.4094C276.386 62.4355 275.921 62.2315 275.042 61.9996C274.167 61.7705 272.854 61.5382 271.234 61.6511C269.625 61.7614 267.697 62.2493 265.904 63.4283C264.116 64.5859 262.468 66.407 261.54 68.6982L261.381 69.0906L261.275 68.6772C261.27 68.657 261.264 68.6351 261.259 68.6131C260.692 66.2016 259.273 64.1688 257.614 62.8256C255.952 61.4572 254.053 60.8124 252.45 60.5984C250.835 60.3793 249.504 60.5513 248.617 60.7461C247.726 60.9441 247.254 61.1376 247.244 61.1106C247.241 61.1014 247.357 61.0502 247.582 60.9606C247.806 60.8687 248.145 60.7525 248.592 60.64Z" fill="#263238"/>
<path d="M209.108 39.9896C209.23 39.9357 209.417 39.8675 209.663 39.8021C210.151 39.6681 210.896 39.5474 211.809 39.6512C212.715 39.7523 213.801 40.1022 214.755 40.8728C215.627 41.5661 216.379 42.5964 216.749 43.8258C217.296 42.6865 218.155 41.7806 219.082 41.1924C220.107 40.532 221.206 40.2718 222.112 40.2297C223.025 40.1858 223.758 40.3404 224.239 40.4927C224.481 40.5677 224.663 40.6418 224.783 40.6994C224.904 40.7561 224.965 40.7904 224.961 40.7991C224.952 40.8215 224.694 40.7168 224.21 40.597C223.729 40.4785 223.009 40.3587 222.125 40.4259C221.247 40.4918 220.197 40.763 219.222 41.4078C218.249 42.0412 217.354 43.0346 216.849 44.2813L216.69 44.6737L216.584 44.2602L216.575 44.2255C216.266 42.9143 215.496 41.8066 214.594 41.0726C213.692 40.3253 212.659 39.9695 211.785 39.8465C210.904 39.7212 210.175 39.8081 209.688 39.9073C209.198 40.0084 208.936 40.1072 208.928 40.0839C208.923 40.0752 208.986 40.0432 209.108 39.9896Z" fill="#263238"/>
<path d="M234.796 32.2407C235.298 32.7556 235.976 33.5551 236.68 34.6362C237.958 36.5602 239.23 39.5585 239.433 43.0456C239.779 41.5881 240.319 40.2477 240.966 39.092C241.793 37.6089 242.764 36.4129 243.682 35.5234C244.599 34.6307 245.436 34.0142 246.042 33.6388C246.337 33.4389 246.588 33.3191 246.75 33.2249C246.915 33.1357 247.003 33.0932 247.008 33.1014C247.021 33.1229 246.683 33.3259 246.102 33.7284C245.518 34.129 244.709 34.7629 243.821 35.662C242.932 36.5584 241.991 37.7493 241.191 39.2155C240.388 40.6776 239.752 42.4269 239.463 44.333L239.186 44.3102C239.185 44.2727 239.185 44.232 239.185 44.1913C239.231 40.2838 237.873 36.8785 236.514 34.7418C235.839 33.6593 235.191 32.848 234.716 32.3143C234.241 31.7797 233.963 31.4966 233.979 31.4788C233.986 31.4719 234.063 31.5355 234.202 31.6631C234.338 31.7943 234.553 31.9745 234.796 32.2407Z" fill="#263238"/>
<path d="M211.05 93.9139C211.43 93.4268 211.961 93.0591 212.552 92.8752L212.875 93.4794C213.008 93.5782 213.026 93.7959 212.913 93.9157C212.8 94.0355 212.582 94.0291 212.475 93.9029C212.481 94.0881 212.486 94.2729 212.492 94.4581C212.326 94.5034 212.14 94.4691 212.001 94.368C212.134 94.6588 212.19 94.9845 212.163 95.3032C212.155 95.397 212.13 95.5045 212.044 95.5442C211.93 95.5982 211.808 95.4926 211.726 95.397C211.513 95.1496 211.301 94.9021 211.088 94.6547C210.995 94.5463 210.897 94.4265 210.891 94.2838C210.885 94.1471 210.965 94.0222 211.05 93.9139Z" fill="#FFBE9D"/>
<path d="M290.498 131.237C290.498 131.237 285.88 142.186 280.876 148.118C275.871 154.05 242.506 161.279 231.755 164.059C221.004 166.84 125.357 185.005 113.68 185.19C102.002 185.376 94.4022 185.561 89.0267 185.19C83.6512 184.819 70.1461 171.223 70.1461 171.223L241.208 135.04L290.498 131.237Z" fill="#455A64"/>
<path d="M290.498 131.237C290.498 131.237 286.108 123.672 270.829 115.89C266.958 113.919 234.919 98.6058 227.618 97.414C227.618 97.414 226.277 97.2649 226.873 99.6489C227.469 102.033 226.325 103.952 224.605 104.949C222.965 105.899 220.559 106.485 216.089 103.653L205.669 110.309L172.189 128.257L107.373 141.072L99.1777 155.376C99.1777 155.376 73.3914 164.132 70.5692 167.297C67.9107 170.278 68.1851 173.257 82.3405 172.512C96.4958 171.767 142.985 160.74 142.985 160.74L262.187 138.986C272.571 137.447 282.032 134.89 290.498 131.237Z" fill="#FF725E"/>
<g opacity="0.3">
<path d="M189.313 142.713C174.085 146.487 158.134 147.324 142.595 145.162C133.437 143.888 123.797 140.9 114.594 141.786L131.15 138.605L189.313 142.713Z" fill="black"/>
</g>
<path d="M185.444 121.297C185.444 121.297 215.814 127.728 213.219 133.475C210.624 139.221 188.381 143.855 176.888 144.411C165.396 144.967 129.992 139.035 129.992 139.035L106.093 143.305C106.093 143.305 105.524 137.923 102.558 136.811C99.5922 135.699 96.6264 137.717 96.2555 135.04C95.8846 132.362 98.8504 130.138 109.416 128.841C119.982 127.543 128.704 127.544 133.513 128.284C140.742 129.397 164.469 128.284 170.771 125.504C177.073 122.723 180.494 120.141 185.444 121.297Z" fill="#263238"/>
<path d="M131.15 130.211C131.147 130.218 131.241 130.265 131.424 130.347C131.631 130.436 131.898 130.551 132.229 130.694C132.929 130.995 133.953 131.402 135.228 131.88C137.778 132.838 141.353 134.028 145.382 135.06C149.412 136.088 153.121 136.759 155.817 137.141C157.165 137.334 158.259 137.467 159.018 137.54C159.377 137.573 159.666 137.6 159.891 137.621C160.09 137.637 160.196 137.641 160.197 137.633C160.197 137.625 160.094 137.605 159.896 137.573C159.673 137.541 159.385 137.499 159.029 137.448C158.274 137.348 157.185 137.188 155.842 136.975C153.156 136.551 149.462 135.854 145.44 134.829C141.421 133.8 137.846 132.638 135.286 131.722C134.006 131.265 132.973 130.882 132.264 130.608C131.926 130.482 131.653 130.381 131.442 130.302C131.254 130.235 131.153 130.203 131.15 130.211Z" fill="#455A64"/>
<path d="M97.7596 133.472C97.7591 133.48 97.878 133.496 98.1053 133.518C98.3554 133.54 98.6861 133.569 99.1 133.604C99.9639 133.67 101.213 133.778 102.755 133.928C105.838 134.226 110.089 134.74 114.745 135.554C119.402 136.372 123.575 137.335 126.576 138.104C128.077 138.488 129.288 138.811 130.123 139.042C130.524 139.149 130.845 139.235 131.088 139.3C131.309 139.356 131.426 139.382 131.428 139.374C131.431 139.366 131.318 139.325 131.101 139.254C130.861 139.178 130.545 139.078 130.149 138.953C129.321 138.694 128.116 138.346 126.619 137.941C123.625 137.129 119.451 136.139 114.787 135.319C110.124 134.504 105.862 134.015 102.771 133.76C101.226 133.632 99.973 133.549 99.1064 133.511C98.6916 133.494 98.3596 133.481 98.1085 133.47C97.8798 133.464 97.76 133.464 97.7596 133.472Z" fill="#455A64"/>
<path d="M111.465 157.291C111.467 157.298 111.58 157.271 111.793 157.21C112.027 157.141 112.335 157.049 112.719 156.935C113.523 156.697 114.676 156.313 116.089 155.805C117.502 155.301 119.165 154.644 120.989 153.861C122.808 153.065 124.784 152.136 126.815 151.076C128.842 150.008 130.73 148.91 132.419 147.866C134.1 146.811 135.586 145.816 136.805 144.94C138.026 144.067 138.996 143.337 139.65 142.811C139.962 142.559 140.212 142.358 140.403 142.205C140.573 142.065 140.66 141.988 140.655 141.981C140.65 141.975 140.553 142.039 140.373 142.168C140.176 142.312 139.917 142.501 139.594 142.737C138.924 143.24 137.939 143.949 136.708 144.803C135.479 145.66 133.987 146.638 132.303 147.68C130.612 148.712 128.726 149.8 126.704 150.866C124.678 151.923 122.71 152.856 120.901 153.66C119.086 154.453 117.434 155.124 116.03 155.648C114.628 156.175 113.485 156.582 112.69 156.848C112.312 156.98 112.009 157.085 111.778 157.165C111.57 157.239 111.462 157.283 111.465 157.291Z" fill="#263238"/>
<path d="M193.715 100.897L186.754 104.653C186.754 104.653 186.691 107.381 188.985 107.505L195.372 103.66L193.715 100.897Z" fill="#263238"/>
<g opacity="0.3">
<path d="M166.674 129.278C175.842 126.659 185.122 124.022 194.651 123.678C195.471 123.649 196.411 123.688 196.933 124.32C197.345 124.819 197.355 125.525 197.346 126.171C197.249 132.933 197.445 141.444 197.348 148.206L193.927 148.898C193.09 145.848 192.25 142.783 191.907 139.64C191.564 136.496 191.738 133.244 192.879 130.295C184.527 133.257 175.245 133.535 166.73 131.077C166.22 130.929 165.601 130.617 165.653 130.089C165.7 129.628 166.229 129.406 166.674 129.278Z" fill="black"/>
</g>
<path d="M102.786 149.134C102.728 149.101 100.909 152.16 98.7208 155.965C96.5325 159.772 94.8051 162.884 94.8623 162.916C94.9195 162.949 96.7388 159.891 98.9276 156.084C101.115 152.279 102.843 149.167 102.786 149.134Z" fill="#263238"/>
<path d="M216.089 103.653L207.909 94.8413C207.909 94.8413 204.124 93.5164 200.528 95.9769C196.932 98.4373 197.597 98.4497 195.135 100.046L193.715 100.897L195.044 103.859C195.044 103.859 197.973 102.127 199.866 104.209C201.758 106.291 205.669 110.309 205.669 110.309L216.089 103.653Z" fill="#455A64"/>
<path d="M213.163 91.6412C213.436 92.0903 213.58 92.6194 213.376 93.1833L208.02 96.7171C208.02 96.7171 206.718 97.0272 206.16 96.407C205.602 95.7869 206.16 94.5155 206.16 94.5155L210.471 91.1943C211.328 90.5349 212.6 90.7169 213.163 91.6412Z" fill="#263238"/>
<path d="M176.013 111.006C176.013 111.006 176.053 110.909 176.122 110.719C176.194 110.531 176.29 110.242 176.497 109.912C176.602 109.749 176.741 109.576 176.932 109.437C177.125 109.303 177.377 109.207 177.655 109.203C177.927 109.196 178.246 109.312 178.396 109.586C178.529 109.859 178.402 110.255 178.12 110.448C177.976 110.543 177.79 110.545 177.646 110.435C177.502 110.331 177.421 110.148 177.382 109.955C177.316 109.566 177.323 109.122 177.419 108.698C177.517 108.276 177.773 107.85 178.216 107.685C178.429 107.603 178.676 107.574 178.896 107.649C179.118 107.723 179.296 107.904 179.319 108.144C179.349 108.375 179.266 108.644 179.083 108.793C178.902 108.947 178.612 108.897 178.45 108.706C178.099 108.315 178.175 107.654 178.525 107.222C178.86 106.781 179.479 106.493 180.044 106.692C180.326 106.784 180.603 106.931 180.832 107.132C181.055 107.316 181.275 107.625 181.133 107.838L181.157 107.814C181.02 107.909 180.78 107.717 180.638 107.534C180.482 107.341 180.365 107.109 180.291 106.867C180.216 106.622 180.204 106.368 180.313 106.144C180.42 105.918 180.611 105.73 180.841 105.609C181.291 105.362 181.943 105.401 182.246 105.856C182.406 106.073 182.518 106.337 182.567 106.609C182.62 106.866 182.597 107.208 182.403 107.272L182.44 107.267C181.995 107.242 181.757 106.717 181.73 106.255C181.694 105.784 181.828 105.254 182.188 104.956C182.552 104.666 183.115 104.733 183.573 104.912C183.805 105.005 184.028 105.138 184.204 105.308C184.387 105.476 184.482 105.708 184.378 105.884L184.42 105.844C184.24 105.944 184.062 105.904 183.941 105.73C183.819 105.565 183.762 105.336 183.744 105.114C183.728 104.892 183.753 104.656 183.854 104.472C183.956 104.284 184.134 104.128 184.332 104.022C184.737 103.811 185.241 103.782 185.697 103.891C185.914 103.946 186.123 104.075 186.276 104.239C186.432 104.404 186.511 104.624 186.402 104.787C186.306 104.962 186.077 104.99 185.87 104.899C185.665 104.812 185.484 104.641 185.415 104.433C185.254 103.996 185.421 103.464 185.761 103.132C185.932 102.966 186.151 102.847 186.382 102.817C186.604 102.793 186.848 102.87 187.064 102.987C187.282 103.106 187.482 103.268 187.64 103.456C187.795 103.633 187.919 103.903 187.8 104.01L187.845 103.982C187.593 104.075 187.292 103.853 187.129 103.572C186.956 103.289 186.878 102.936 187.014 102.636C187.203 102.178 187.784 101.868 188.235 102.058C188.464 102.154 188.673 102.329 188.834 102.527C188.992 102.716 189.106 103.005 188.961 103.074L188.982 103.064C188.796 103.139 188.619 102.98 188.511 102.765C188.403 102.551 188.344 102.303 188.319 102.058C188.3 101.812 188.308 101.565 188.406 101.354C188.499 101.139 188.663 100.956 188.858 100.826C189.255 100.562 189.794 100.553 190.102 100.932C190.265 101.103 190.397 101.312 190.484 101.529C190.575 101.744 190.589 102.003 190.43 101.994C190.235 102.018 190.04 101.89 189.945 101.694C189.843 101.5 189.808 101.262 189.815 101.031C189.831 100.577 190.007 100.079 190.38 99.8595C190.558 99.7588 190.792 99.7529 191.012 99.7991C191.233 99.8444 191.449 99.9308 191.65 100.041C191.85 100.151 192.036 100.292 192.181 100.455C192.256 100.535 192.306 100.627 192.336 100.711C192.351 100.796 192.324 100.845 192.261 100.899L192.27 100.894C192.104 100.982 191.95 100.889 191.858 100.688C191.767 100.498 191.724 100.275 191.717 100.056C191.704 99.6294 191.797 99.1337 192.124 98.9137C192.459 98.7006 192.925 98.8789 193.258 99.114C193.432 99.2347 193.587 99.3838 193.705 99.5503C193.828 99.7113 193.894 99.9239 193.803 100.014L193.834 99.9934C193.719 100.041 193.613 100.036 193.527 99.9623C193.44 99.8892 193.38 99.7652 193.341 99.6395C193.264 99.3825 193.265 99.0948 193.33 98.8387C193.392 98.5817 193.571 98.3855 193.805 98.2574C194.033 98.128 194.301 98.0768 194.564 98.0772C195.079 98.0827 195.659 98.288 195.85 98.7321C195.936 98.9443 195.815 99.1808 195.592 99.2292C195.373 99.2869 195.127 99.2082 195.003 99.0175C194.741 98.6265 194.871 98.0662 195.16 97.7132C195.453 97.3469 195.908 97.1232 196.356 97.1182C196.806 97.1095 197.212 97.3697 197.52 97.6734C197.673 97.8284 197.805 98.004 197.883 98.1938C197.967 98.3827 197.961 98.5903 197.841 98.7275L197.866 98.7093C197.714 98.7829 197.559 98.6182 197.474 98.4417C197.384 98.2629 197.333 98.0617 197.306 97.8641C197.257 97.4708 197.287 97.0519 197.542 96.7811C198.038 96.2209 198.977 96.215 199.409 96.7098C199.632 96.9394 199.689 97.3222 199.46 97.511C199.237 97.6935 198.892 97.6738 198.665 97.5366C198.425 97.4004 198.342 97.1077 198.369 96.8607C198.395 96.6078 198.513 96.3801 198.663 96.2058C198.813 96.0256 199.002 95.9117 199.196 95.8335C199.388 95.7521 199.576 95.6941 199.751 95.6456C200.102 95.5514 200.407 95.5001 200.653 95.4791C200.9 95.4567 201.089 95.4636 201.214 95.4823C201.339 95.4983 201.4 95.5212 201.402 95.5143C201.402 95.5143 201.343 95.4837 201.217 95.4604C201.092 95.4343 200.9 95.4201 200.65 95.4357C200.4 95.4498 200.092 95.4947 199.734 95.5834C199.556 95.6291 199.365 95.6849 199.167 95.7649C198.968 95.8409 198.759 95.9625 198.599 96.1509C198.437 96.3343 198.307 96.5744 198.275 96.852C198.241 97.1205 198.329 97.4607 198.61 97.6272C198.874 97.785 199.25 97.8202 199.535 97.5993C199.673 97.4868 199.743 97.2938 199.725 97.115C199.708 96.9334 199.62 96.7656 199.502 96.6298C199.013 96.0718 198 96.0704 197.437 96.6892C197.14 97.0043 197.109 97.4735 197.158 97.8851C197.186 98.0964 197.237 98.3095 197.337 98.5117C197.392 98.6105 197.446 98.7138 197.548 98.7929C197.642 98.8757 197.803 98.9137 197.932 98.8533L197.947 98.8465L197.957 98.835C198.133 98.6425 198.129 98.3461 198.034 98.1358C197.943 97.9158 197.801 97.7269 197.637 97.5591C197.312 97.2348 196.872 96.943 196.354 96.9471C195.85 96.9517 195.35 97.195 195.019 97.6025C194.698 98.0004 194.525 98.6228 194.85 99.1263C195.011 99.3774 195.351 99.4945 195.641 99.414C195.786 99.377 195.934 99.2809 196.007 99.1323C196.084 98.9905 196.085 98.8117 196.03 98.6667C195.912 98.3759 195.67 98.1865 195.408 98.0612C195.143 97.9446 194.858 97.8847 194.565 97.8792C194.274 97.8783 193.972 97.9327 193.706 98.0823C193.574 98.1563 193.448 98.2496 193.347 98.3672C193.242 98.4897 193.173 98.6375 193.131 98.7861C193.056 99.0852 193.052 99.398 193.141 99.7008C193.188 99.8498 193.254 100.005 193.392 100.125C193.53 100.253 193.761 100.262 193.917 100.187L193.937 100.178L193.947 100.167C194.061 100.049 194.069 99.8837 194.039 99.7584C194.002 99.6358 193.945 99.5274 193.877 99.4309C193.741 99.2379 193.571 99.076 193.381 98.942C193.19 98.8085 192.978 98.6974 192.741 98.6388C192.509 98.5798 192.229 98.5867 192.005 98.733C191.781 98.8789 191.651 99.1149 191.582 99.3468C191.512 99.5814 191.487 99.8242 191.495 100.067C191.504 100.309 191.547 100.555 191.657 100.789C191.716 100.903 191.792 101.024 191.929 101.098C192.066 101.191 192.245 101.15 192.372 101.095L192.375 101.093L192.382 101.089C192.514 101.004 192.595 100.818 192.552 100.662C192.508 100.522 192.436 100.405 192.35 100.31C192.179 100.118 191.977 99.9678 191.759 99.8457C191.54 99.7259 191.305 99.6299 191.053 99.5782C190.805 99.5274 190.519 99.5228 190.266 99.6628C189.781 99.9582 189.608 100.517 189.582 101.026C189.576 101.287 189.61 101.557 189.739 101.805C189.858 102.056 190.141 102.267 190.459 102.227C190.538 102.221 190.637 102.18 190.695 102.104C190.76 102.029 190.777 101.939 190.782 101.863C190.791 101.706 190.747 101.574 190.701 101.446C190.6 101.195 190.456 100.968 190.269 100.772C190.171 100.677 190.072 100.582 189.941 100.515C189.811 100.444 189.664 100.407 189.525 100.404C189.24 100.389 188.962 100.48 188.728 100.63C188.496 100.784 188.302 101 188.188 101.26C188.068 101.524 188.06 101.814 188.081 102.082C188.11 102.352 188.171 102.622 188.299 102.875C188.363 103.001 188.45 103.125 188.58 103.22C188.707 103.32 188.906 103.349 189.061 103.289L189.075 103.284L189.082 103.279C189.16 103.227 189.236 103.143 189.254 103.044C189.28 102.946 189.26 102.858 189.239 102.78C189.192 102.624 189.109 102.498 189.019 102.381C188.832 102.153 188.606 101.96 188.323 101.839C187.713 101.6 187.035 101.981 186.793 102.544C186.62 102.931 186.723 103.377 186.924 103.697C187.026 103.862 187.156 104.012 187.325 104.122C187.492 104.229 187.722 104.28 187.924 104.208L187.948 104.199L187.969 104.179C188.113 104.039 188.102 103.818 188.047 103.683C187.994 103.537 187.915 103.414 187.823 103.306C187.64 103.09 187.422 102.914 187.177 102.78C186.932 102.65 186.653 102.552 186.35 102.584C186.06 102.621 185.797 102.768 185.595 102.964C185.198 103.356 184.998 103.969 185.193 104.513C185.291 104.795 185.517 105.005 185.78 105.117C185.913 105.171 186.063 105.202 186.219 105.176C186.376 105.149 186.522 105.044 186.601 104.91C186.686 104.779 186.707 104.601 186.664 104.455C186.623 104.307 186.541 104.185 186.448 104.083C186.257 103.882 186.022 103.737 185.754 103.668C185.244 103.548 184.696 103.576 184.223 103.819C183.992 103.946 183.783 104.123 183.652 104.364C183.521 104.61 183.499 104.877 183.516 105.132C183.54 105.386 183.597 105.643 183.758 105.866C183.833 105.977 183.958 106.074 184.105 106.112C184.26 106.157 184.405 106.097 184.527 106.043L184.554 106.031L184.569 106.003C184.648 105.856 184.674 105.669 184.611 105.52C184.556 105.37 184.462 105.251 184.361 105.15C184.153 104.95 183.91 104.809 183.654 104.706C183.398 104.606 183.127 104.543 182.848 104.539C182.573 104.534 182.276 104.601 182.05 104.786C181.606 105.164 181.478 105.751 181.515 106.271C181.537 106.536 181.602 106.801 181.744 107.036C181.88 107.269 182.136 107.468 182.427 107.479L182.448 107.48L182.465 107.474C182.668 107.41 182.759 107.206 182.784 107.049C182.814 106.884 182.797 106.726 182.771 106.573C182.714 106.268 182.593 105.981 182.409 105.733C182.233 105.479 181.928 105.299 181.624 105.268C181.318 105.227 181.01 105.295 180.746 105.433C180.483 105.572 180.261 105.79 180.133 106.061C180 106.335 180.02 106.66 180.104 106.922C180.187 107.191 180.314 107.44 180.488 107.654C180.574 107.762 180.676 107.86 180.797 107.94C180.91 108.015 181.104 108.078 181.262 107.969L181.276 107.96L181.286 107.945C181.411 107.769 181.367 107.536 181.281 107.387C181.197 107.227 181.077 107.103 180.951 106.994C180.699 106.775 180.405 106.621 180.095 106.521C179.447 106.3 178.753 106.63 178.388 107.118C178.199 107.364 178.079 107.662 178.057 107.966C178.035 108.273 178.125 108.585 178.331 108.815C178.527 109.054 178.933 109.129 179.179 108.915C179.416 108.714 179.502 108.406 179.467 108.124C179.439 107.829 179.201 107.589 178.941 107.511C178.678 107.424 178.4 107.461 178.163 107.554C177.668 107.742 177.388 108.224 177.292 108.667C177.195 109.121 177.191 109.56 177.265 109.979C177.309 110.185 177.4 110.397 177.579 110.525C177.665 110.589 177.774 110.624 177.881 110.629C177.99 110.628 178.091 110.589 178.177 110.536C178.502 110.304 178.636 109.873 178.478 109.543C178.298 109.225 177.943 109.111 177.652 109.122C177.355 109.131 177.092 109.236 176.89 109.382C176.691 109.533 176.553 109.714 176.448 109.882C176.244 110.226 176.157 110.519 176.094 110.71C176.035 110.904 176.013 111.006 176.013 111.006Z" fill="#263238"/>
<path d="M156.931 117.949C156.872 117.973 157.002 118.328 157.378 118.567C157.752 118.807 158.129 118.776 158.126 118.712C158.132 118.644 157.822 118.572 157.506 118.366C157.186 118.166 156.99 117.915 156.931 117.949Z" fill="#263238"/>
<path d="M203.813 95.4895C203.797 95.495 203.843 95.6619 203.94 95.9596C204.034 96.2587 204.198 96.6822 204.425 97.1944C204.877 98.2197 205.637 99.5853 206.706 100.927C207.78 102.267 208.944 103.309 209.845 103.975C210.295 104.31 210.671 104.563 210.943 104.72C211.212 104.881 211.364 104.962 211.373 104.948C211.395 104.914 210.814 104.539 209.948 103.843C209.082 103.148 207.952 102.101 206.892 100.779C205.836 99.4541 205.064 98.1205 204.577 97.1231C204.089 96.1252 203.852 95.4758 203.813 95.4895Z" fill="#263238"/>
<path d="M197.789 98.4756C197.773 98.4811 197.832 98.6713 197.951 99.0116C198.065 99.3537 198.267 99.8357 198.548 100.417C198.827 100.999 199.21 101.668 199.682 102.38C200.164 103.085 200.74 103.83 201.412 104.553C202.091 105.27 202.797 105.893 203.47 106.419C204.151 106.936 204.794 107.362 205.357 107.676C205.918 107.995 206.387 108.227 206.721 108.363C207.053 108.504 207.239 108.573 207.245 108.558C207.264 108.518 206.534 108.198 205.443 107.531C204.896 107.201 204.271 106.766 203.606 106.246C202.948 105.717 202.256 105.097 201.587 104.389C200.923 103.676 200.349 102.946 199.863 102.256C199.387 101.559 198.993 100.907 198.699 100.34C198.103 99.2087 197.831 98.46 197.789 98.4756Z" fill="#263238"/>
<g opacity="0.3">
<path d="M78.4704 170.159C78.0995 169.725 78.1746 169.038 78.4951 168.567C78.8153 168.095 79.3247 167.79 79.8255 167.516C83.4929 165.511 87.5398 164.327 91.4989 162.987C92.8248 162.538 95.5967 161.666 95.5967 161.666L97.9304 157.579C93.1485 159.286 87.8975 161.201 83.2185 163.172C81.0567 164.082 78.7563 165.199 77.7113 167.299C77.4455 167.834 77.2718 168.44 77.3765 169.028C77.4808 169.616 77.9162 170.17 78.5038 170.277" fill="black"/>
</g>
<path d="M90.3315 169.12C90.3306 169.112 90.2176 169.118 90.0036 169.137C89.7662 169.161 89.4557 169.194 89.0688 169.234C88.2314 169.331 87.0652 169.466 85.636 169.632C84.1799 169.81 82.4571 170.02 80.5487 170.254C80.0703 170.302 79.5746 170.414 79.1062 170.346C78.8744 170.312 78.6567 170.216 78.5158 170.041C78.3754 169.868 78.3201 169.627 78.343 169.39C78.3809 168.905 78.7491 168.499 79.1593 168.175C79.5768 167.842 80.0351 167.546 80.5148 167.275C81.4784 166.736 82.4859 166.333 83.4637 165.958C84.4461 165.591 85.3937 165.236 86.2974 164.899C88.1079 164.235 89.747 163.662 91.1268 163.189C92.4901 162.73 93.6023 162.356 94.4008 162.088C94.7695 161.963 95.0649 161.863 95.2908 161.786C95.4934 161.716 95.5991 161.674 95.5968 161.667C95.5945 161.659 95.4843 161.684 95.2766 161.741C95.0475 161.807 94.747 161.893 94.3729 162C93.5904 162.231 92.4613 162.578 91.0733 163.03C89.6857 163.483 88.0389 164.04 86.2224 164.693C85.3141 165.019 84.3633 165.369 83.3805 165.741C82.3986 166.114 81.3801 166.519 80.3977 167.068C79.9084 167.344 79.441 167.647 79.0106 167.991C78.5885 168.326 78.1586 168.778 78.1102 169.37C78.0841 169.653 78.149 169.957 78.3365 170.187C78.5231 170.417 78.8071 170.535 79.0715 170.572C79.6111 170.643 80.0991 170.52 80.5761 170.472C82.4823 170.22 84.2028 169.992 85.6571 169.799C87.0826 169.602 88.2451 169.441 89.0802 169.326C89.4648 169.268 89.7735 169.22 90.0095 169.185C90.2217 169.15 90.3324 169.128 90.3315 169.12Z" fill="#263238"/>
<g opacity="0.3">
<path d="M169.614 153.131C159.237 154.5 148.689 152.939 138.245 153.63C127.896 154.314 117.701 157.24 108.564 162.149C108.564 162.149 126.033 157.268 134.308 156.769C142.583 156.27 169.614 153.131 169.614 153.131Z" fill="black"/>
</g>
<path d="M262.199 111.739C262.347 111.809 257.561 115.904 257.561 115.904L248.787 112.769L253.047 107.505L262.199 111.739Z" fill="white"/>
<path d="M254.727 114.948L238.092 128.099L227.062 127.497L244.576 111.583L254.727 114.948Z" fill="white"/>
<path d="M217.818 106.167C217.817 106.171 217.876 106.181 217.991 106.198C218.117 106.214 218.285 106.236 218.499 106.263C218.96 106.317 219.617 106.394 220.456 106.493C221.308 106.575 222.342 106.735 223.544 106.916C224.145 107.006 224.787 107.102 225.468 107.204C226.146 107.327 226.863 107.458 227.615 107.594C230.628 108.12 234.183 108.923 238.104 109.906C242.018 110.921 246.282 112.185 250.707 113.668C255.125 115.175 259.266 116.8 262.992 118.371C263.915 118.784 264.814 119.187 265.689 119.578C266.126 119.773 266.557 119.966 266.982 120.155C267.4 120.358 267.811 120.557 268.216 120.754C269.025 121.146 269.806 121.524 270.557 121.888C271.304 122.26 272.006 122.646 272.685 122.998C273.361 123.355 274.004 123.696 274.613 124.018C275.21 124.361 275.773 124.684 276.3 124.988C276.827 125.289 277.317 125.57 277.769 125.83C278.22 126.09 278.614 126.356 278.979 126.58C279.695 127.027 280.257 127.377 280.65 127.623C280.834 127.735 280.979 127.823 281.088 127.889C281.187 127.948 281.239 127.976 281.242 127.973C281.244 127.969 281.196 127.934 281.101 127.869C280.996 127.798 280.855 127.703 280.676 127.583C280.288 127.328 279.734 126.965 279.028 126.501C278.667 126.271 278.275 125.999 277.828 125.733C277.378 125.468 276.89 125.181 276.367 124.873C275.842 124.565 275.281 124.235 274.687 123.886C274.079 123.559 273.437 123.213 272.764 122.85C272.087 122.492 271.386 122.101 270.64 121.725C269.889 121.356 269.109 120.973 268.301 120.577C267.896 120.378 267.485 120.177 267.068 119.972C266.644 119.78 266.213 119.586 265.776 119.388C264.902 118.994 264.002 118.588 263.079 118.171C259.353 116.586 255.208 114.953 250.783 113.443C246.353 111.958 242.081 110.699 238.158 109.694C234.228 108.721 230.665 107.935 227.645 107.429C221.609 106.368 217.818 106.167 217.818 106.167Z" fill="#263238"/>
<path d="M238.926 128.145L220.149 141.585L203.456 146.551L229.462 127.626L238.926 128.145Z" fill="white"/>
<g opacity="0.3">
<path d="M275.779 130.175C275.698 130.171 275.616 130.166 275.535 130.162C275.571 130.155 275.608 130.15 275.645 130.143L275.779 130.175Z" fill="black"/>
</g>
<g opacity="0.3">
<path d="M275.535 130.162C260.08 133.048 244.092 133.047 228.639 130.158C225.981 129.661 223.204 129.013 221.205 127.193C239.216 128.11 257.522 129.242 275.535 130.162Z" fill="black"/>
</g>
<path d="M89.1754 170.639C89.1754 170.639 89.3313 170.56 89.6304 170.396C89.9327 170.229 90.375 169.984 90.953 169.664C91.2435 169.502 91.5682 169.322 91.9258 169.122C92.2912 168.936 92.6904 168.732 93.1231 168.511C93.9888 168.071 94.9826 167.552 96.1355 167.039C100.699 164.899 107.543 162.245 116.324 160.148C120.709 159.092 125.567 158.162 130.813 157.373C136.058 156.574 141.695 155.951 147.633 155.367C153.571 154.785 159.814 154.258 166.274 153.584C172.734 152.91 179.414 152.074 186.191 150.816C199.762 148.273 212.22 143.988 223.647 140.579C235.062 137.095 245.535 134.612 254.422 133.045C258.864 132.256 262.912 131.712 266.478 131.362C268.26 131.162 269.926 131.079 271.457 130.967C272.99 130.919 274.391 130.822 275.653 130.846C276.283 130.846 276.879 130.845 277.438 130.844C277.997 130.85 278.519 130.887 279.004 130.904C279.974 130.945 280.796 130.972 281.456 131.054C282.113 131.116 282.616 131.164 282.96 131.196C283.3 131.227 283.474 131.236 283.474 131.236C283.474 131.236 283.302 131.211 282.964 131.172C282.62 131.134 282.117 131.079 281.46 131.006C280.801 130.917 279.979 130.882 279.008 130.833C278.522 130.813 278 130.772 277.44 130.763C276.88 130.76 276.284 130.757 275.653 130.754C274.389 130.722 272.987 130.812 271.451 130.854C269.918 130.959 268.249 131.036 266.466 131.23C262.894 131.567 258.841 132.1 254.393 132.88C245.496 134.426 235.008 136.895 223.584 140.369C212.149 143.768 199.696 148.044 186.147 150.582C179.38 151.838 172.706 152.676 166.25 153.352C159.793 154.029 153.551 154.56 147.611 155.149C141.672 155.739 136.032 156.37 130.784 157.179C125.534 157.977 120.673 158.917 116.284 159.984C107.498 162.105 100.653 164.788 96.0967 166.955C94.9456 167.476 93.9541 168.001 93.0911 168.449C92.6603 168.673 92.2624 168.88 91.8983 169.07C91.5425 169.273 91.2197 169.458 90.9302 169.623C90.3567 169.952 89.9185 170.203 89.6185 170.375C89.3235 170.546 89.1754 170.639 89.1754 170.639Z" fill="#263238"/>
<path d="M218.434 127.193C218.431 127.258 231.268 128.011 247.102 128.873C262.942 129.736 275.782 130.382 275.786 130.316C275.789 130.251 262.955 129.498 247.115 128.635C231.28 127.773 218.438 127.127 218.434 127.193Z" fill="#263238"/>
<path d="M175.031 118.038C175.031 118.038 197.551 116.401 199.783 116.886C202.016 117.371 205.607 119.604 205.899 123.778C206.19 127.952 201.619 147.065 201.619 147.065L195.102 148.769C195.102 148.769 193.227 137.784 193.739 134.033C194.25 130.281 195.609 126.69 195.609 126.69C195.609 126.69 188.135 129.445 184.932 130.009C181.729 130.573 172.728 132.369 166.661 131.237C160.595 130.105 159.306 127.466 159.306 127.466L160.956 117.371L175.031 118.038Z" fill="#FFBE9D"/>
<path d="M18.0995 136.12C18.0995 136.12 18.1667 136.151 18.3044 136.201C18.4453 136.231 18.6657 136.283 18.9506 136.225C19.5136 136.127 20.2892 135.595 20.7347 134.592C20.9505 134.087 21.0415 133.486 21.1293 132.839C21.2213 132.194 21.288 131.478 21.5835 130.785C21.7257 130.44 21.9585 130.125 22.2704 129.877C22.5763 129.626 22.9532 129.433 23.3653 129.371C23.5697 129.347 23.7833 129.346 23.9827 129.411C24.1811 129.476 24.3595 129.596 24.504 129.755C24.7908 130.082 24.8904 130.569 25.2444 130.952C25.4292 131.136 25.6876 131.256 25.9652 131.247C26.2478 131.23 26.4847 131.06 26.6649 130.878C27.0294 130.504 27.2947 130.059 27.6143 129.652C27.929 129.252 28.3168 128.854 28.8354 128.799C29.3458 128.733 29.8713 128.961 30.319 129.274C30.775 129.586 31.1811 129.991 31.5565 130.428C31.9402 130.876 32.3747 131.302 32.8952 131.635C33.401 131.957 34.0563 132.237 34.7154 132.027C35.0341 131.925 35.3117 131.708 35.5088 131.443C35.7087 131.18 35.8472 130.884 35.9735 130.59C36.1002 130.296 36.2131 129.999 36.3572 129.721C36.4989 129.445 36.6814 129.186 36.9421 129.053C37.1977 128.924 37.5266 128.892 37.785 129.023C38.0479 129.153 38.2409 129.416 38.3919 129.697C38.6942 130.269 38.8739 130.922 39.1318 131.557C39.2603 131.875 39.4062 132.195 39.6235 132.485C39.8325 132.774 40.17 133.022 40.5596 133.052C40.941 133.087 41.3275 132.925 41.5973 132.682C41.8786 132.446 42.0967 132.165 42.3313 131.91C42.5609 131.648 42.8161 131.429 43.1156 131.28C43.4179 131.139 43.7573 131.092 44.093 131.126C44.7717 131.196 45.4055 131.568 45.9635 131.998C46.5273 132.434 47.0245 132.96 47.4795 133.527C54.8828 142.623 61.5846 150.857 66.4429 156.826C68.8731 159.794 70.8419 162.198 72.2107 163.869C72.8903 164.69 73.4204 165.331 73.7881 165.776C73.9651 165.986 74.1032 166.15 74.2029 166.268C74.2975 166.378 74.3506 166.43 74.3506 166.43C74.3506 166.43 74.3099 166.368 74.2216 166.252C74.126 166.13 73.9943 165.962 73.8251 165.745C73.4657 165.294 72.947 164.644 72.2825 163.81C70.9275 162.127 68.9787 159.707 66.5736 156.719C61.7291 150.739 55.047 142.49 47.6643 133.377C47.2033 132.802 46.692 132.259 46.1094 131.81C45.8212 131.581 45.5098 131.38 45.1787 131.216C44.8498 131.049 44.4918 130.926 44.1172 130.89C43.7449 130.851 43.3571 130.905 43.0146 131.066C42.6757 131.233 42.3908 131.483 42.1575 131.751C41.9179 132.013 41.7016 132.288 41.4473 132.501C41.198 132.722 40.8939 132.844 40.5793 132.818C40.2683 132.793 39.9998 132.604 39.8082 132.343C39.6129 132.084 39.4712 131.778 39.3459 131.469C39.0916 130.848 38.9132 130.194 38.5922 129.587C38.4298 129.29 38.2185 128.986 37.8847 128.818C37.5467 128.653 37.1557 128.692 36.8378 128.854C36.5127 129.022 36.3101 129.327 36.161 129.617C36.0091 129.911 35.8962 130.213 35.7722 130.502C35.5367 131.074 35.2152 131.646 34.6495 131.821C34.0952 132.005 33.4929 131.766 33.0086 131.457C32.5119 131.142 32.088 130.73 31.7125 130.294C31.326 129.848 30.9099 129.434 30.4315 129.109C29.9632 128.786 29.3975 128.532 28.8112 128.608C28.524 128.646 28.2482 128.768 28.0328 128.947C27.8147 129.122 27.634 129.327 27.4703 129.537C27.1456 129.956 26.8798 130.402 26.5414 130.751C26.3736 130.923 26.1719 131.059 25.9551 131.073C25.7406 131.081 25.5175 130.984 25.3647 130.831C25.0523 130.507 24.9431 130.017 24.6257 129.648C24.4615 129.468 24.2557 129.331 24.0293 129.26C23.802 129.188 23.566 129.19 23.3438 129.219C22.8965 129.289 22.5014 129.497 22.1803 129.765C21.8547 130.027 21.6073 130.368 21.4614 130.731C21.1614 131.453 21.1028 132.177 21.0173 132.822C20.9368 133.468 20.8517 134.063 20.6496 134.553C20.2298 135.534 19.4829 136.067 18.9415 136.176C18.3826 136.285 18.1009 136.091 18.0995 136.12Z" fill="#263238"/>
<path d="M173.466 115.004L174.229 117.95C174.229 117.95 167.618 116.911 163.947 120.581C160.277 124.252 162.115 129.784 162.115 129.784C162.115 129.784 157.418 127.87 156.352 125.539C154.8 122.147 156.352 117.571 156.352 117.571L168.438 113.005L173.466 115.004Z" fill="#455A64"/>
<path d="M153.484 71.1072C153.418 71.4268 153.352 71.7465 153.286 72.0662L154.71 65.2789C153.794 63.8955 151.797 63.5406 150.248 64.137C148.7 64.7333 147.552 66.0742 146.714 67.5061C145.875 68.938 145.28 70.5021 144.431 71.9285C143.583 73.355 142.415 74.6826 140.855 75.2483C139.792 75.6339 138.625 75.638 137.544 75.9714C136.464 76.3048 135.388 77.1472 135.367 78.2782C135.351 79.1791 136.009 79.9945 135.972 80.8946C135.934 81.8037 135.211 82.524 134.892 83.3761C134.341 84.8459 135.156 86.6135 136.528 87.3768C138.02 88.2069 139.928 87.9544 141.432 87.1463C142.937 86.3382 145.029 87.3782 146.152 86.0912C149.48 82.2766 151.712 75.8502 153.484 71.1072Z" fill="#263238"/>
<path d="M160.086 61.0498C158.121 60.7603 156.418 61.5519 154.793 62.6911C153.167 63.8304 151.961 65.523 151.284 67.3893C150.571 69.3554 150.436 71.5524 151.061 73.5482C151.686 75.5436 153.101 77.3107 154.986 78.2167C157.56 79.4533 160.805 78.9306 163.044 77.1584C165.283 75.3863 166.522 72.5105 166.568 69.6554C166.6 67.6884 166.086 65.688 164.952 64.0805C163.818 62.473 162.038 61.2926 160.086 61.0498Z" fill="#263238"/>
<path d="M154.668 67.8271C154.938 67.0721 154.808 66.2388 154.904 65.4431C155.115 63.6901 156.491 62.2582 158.104 61.5411C159.605 60.8739 161.457 60.9713 163.295 61.521C164.554 61.8978 165.747 62.5765 166.603 63.5739C167.74 64.8979 168.172 66.794 167.721 68.4798L158.753 67.3753C157.932 68.086 157.09 68.809 156.084 69.2179C155.788 69.3377 155.47 69.4301 155.154 69.3871C154.838 69.3441 154.527 69.1369 154.446 68.8287C154.358 68.4921 154.551 68.1551 154.668 67.8271Z" fill="#263238"/>
<path d="M155.773 65.81L163.541 63.9843C166.022 63.7639 167.618 66.8413 167.734 69.3301C167.862 72.0951 167.909 75.4758 167.547 77.531C166.82 81.6639 163.635 82.1382 163.635 82.1382C163.635 82.1327 163.592 83.1759 163.54 84.4592C163.436 87.0495 161.247 89.0636 158.656 88.9515C156.121 88.8418 154.134 86.7335 154.175 84.1962L154.444 67.2666C154.442 66.5097 155.019 65.8768 155.773 65.81Z" fill="#FFBE9D"/>
<path d="M163.635 82.1382C163.635 82.1382 160.844 82.2713 158.11 80.5649C158.11 80.5649 159.457 83.4571 163.612 83.1384L163.635 82.1382Z" fill="#EB996E"/>
<path d="M161.67 69.3156C161.611 69.4701 161.042 69.3869 160.369 69.4564C159.695 69.5127 159.151 69.7002 159.064 69.5589C159.026 69.4916 159.123 69.3466 159.344 69.1998C159.563 69.053 159.911 68.9163 160.315 68.8779C160.719 68.8404 161.086 68.9108 161.329 69.0142C161.574 69.118 161.695 69.2424 161.67 69.3156Z" fill="#263238"/>
<path d="M166.705 68.699C166.602 68.827 166.21 68.6857 165.736 68.6715C165.264 68.6409 164.86 68.7442 164.77 68.6066C164.731 68.5398 164.796 68.4109 164.973 68.291C165.148 68.1712 165.439 68.0761 165.764 68.0912C166.089 68.1072 166.369 68.2293 166.532 68.3651C166.697 68.5019 166.75 68.6363 166.705 68.699Z" fill="#263238"/>
<path d="M153.211 66.6532C153.967 64.2591 157.428 60.943 159.934 61.1122L163.939 63.5027C163.7 64.8664 162.65 66.0555 161.327 66.4616C160.62 66.6784 159.768 66.7397 159.349 67.3488C158.921 67.9708 159.174 68.8745 158.776 69.5161C158.224 70.4052 156.709 70.3663 156.296 71.3276C156.115 71.7475 156.211 72.2487 156.023 72.6653C155.773 73.2205 154.37 73.9267 153.789 73.7437C153.208 73.5608 153.204 72.5725 153.014 72.0548C152.687 71.1703 152.82 70.7112 152.926 70.2163C153.175 69.0446 152.85 67.7961 153.211 66.6532Z" fill="#263238"/>
<path d="M155.503 74.2288C155.507 73.9201 155.163 73.187 154.859 73.134C154.047 72.9936 152.579 73.0343 152.531 75.101C152.465 77.9259 155.315 77.4096 155.322 77.3286C155.327 77.2655 155.488 75.2949 155.503 74.2288Z" fill="#FFBE9D"/>
<path d="M154.484 76.2386C154.472 76.2295 154.434 76.272 154.35 76.3081C154.268 76.3434 154.128 76.3658 153.982 76.3072C153.686 76.1906 153.446 75.7109 153.444 75.2014C153.443 74.9439 153.502 74.7006 153.598 74.4998C153.689 74.2954 153.826 74.1541 153.977 74.1308C154.127 74.0997 154.232 74.1921 154.264 74.2721C154.301 74.3521 154.281 74.4079 154.296 74.4129C154.304 74.4203 154.358 74.3672 154.338 74.2501C154.327 74.1939 154.295 74.1262 154.231 74.0704C154.164 74.0137 154.065 73.9835 153.96 73.9922C153.742 74.0023 153.541 74.198 153.436 74.4184C153.319 74.6393 153.246 74.9128 153.247 75.2018C153.252 75.7717 153.531 76.3109 153.937 76.4385C154.134 76.4947 154.302 76.4389 154.389 76.374C154.477 76.3068 154.494 76.2441 154.484 76.2386Z" fill="#EB996E"/>
<path d="M150.73 70.4671C150.71 70.4707 150.628 70.152 150.606 69.6224C150.583 69.0942 150.645 68.3542 150.886 67.5786C151.129 66.8034 151.5 66.1595 151.819 65.7387C152.138 65.3157 152.387 65.1007 152.402 65.1149C152.455 65.1506 151.529 66.1092 151.064 67.6344C150.578 69.1527 150.794 70.468 150.73 70.4671Z" fill="#FF725E"/>
<path d="M166.918 70.9127C166.861 70.9873 166.452 70.717 165.906 70.7595C165.359 70.7938 164.981 71.1194 164.917 71.0536C164.885 71.0248 164.939 70.8944 165.103 70.7476C165.265 70.6017 165.547 70.4503 165.888 70.4261C166.229 70.4023 166.525 70.5125 166.701 70.6351C166.88 70.7577 166.947 70.8793 166.918 70.9127Z" fill="#263238"/>
<path d="M161.509 71.1835C161.441 71.2516 161.042 70.9425 160.466 70.9306C159.891 70.9104 159.462 71.1972 159.401 71.1254C159.371 71.0934 159.441 70.969 159.628 70.8391C159.813 70.7097 160.125 70.5871 160.483 70.5967C160.842 70.6068 161.141 70.7458 161.311 70.8853C161.485 71.0252 161.542 71.1528 161.509 71.1835Z" fill="#263238"/>
<path d="M163.334 75.1069C163.332 75.0739 163.693 75.0282 164.276 74.9797C164.424 74.971 164.564 74.9482 164.593 74.8489C164.633 74.7442 164.578 74.5832 164.515 74.409C164.392 74.0472 164.264 73.6681 164.129 73.2707C163.597 71.6508 163.218 70.3209 163.283 70.3003C163.349 70.2793 163.834 71.5758 164.366 73.1957C164.494 73.5949 164.616 73.9759 164.733 74.3399C164.781 74.5091 164.868 74.7031 164.783 74.9203C164.739 75.0282 164.627 75.1032 164.532 75.1243C164.437 75.149 164.354 75.1467 164.281 75.148C163.696 75.1531 163.334 75.1398 163.334 75.1069Z" fill="#263238"/>
<path d="M163.518 76.9084C163.41 77.1495 163.299 77.3937 163.127 77.594C162.955 77.7943 162.71 77.948 162.446 77.948C162.164 77.9484 161.901 77.7696 161.755 77.5286C161.61 77.288 161.57 76.9944 161.596 76.7141C161.619 76.4607 161.75 76.163 162.003 76.1452C162.109 76.1374 162.211 76.1831 162.307 76.2275C162.741 76.4273 163.174 76.6272 163.608 76.827" fill="#EB996E"/>
<path d="M162.938 77.9747C162.933 77.9327 162.636 78.0374 162.234 77.8545C162.04 77.7653 161.83 77.5975 161.722 77.3436C161.614 77.093 161.606 76.7596 161.745 76.4752C161.778 76.4038 161.825 76.3393 161.87 76.2822C161.925 76.2296 161.915 76.2314 161.973 76.2424C162.026 76.2597 162.111 76.3046 162.181 76.3357C162.254 76.3695 162.325 76.402 162.395 76.4344C162.673 76.5625 162.926 76.675 163.139 76.766C163.565 76.9485 163.837 77.0468 163.851 77.0171C163.865 76.9878 163.62 76.836 163.212 76.6151C163.008 76.5044 162.763 76.3764 162.49 76.2378C162.421 76.203 162.351 76.1678 162.279 76.1317C162.204 76.0965 162.146 76.059 162.042 76.0206C161.99 76.0036 161.918 75.9918 161.845 76.0169C161.773 76.0421 161.727 76.0873 161.693 76.1257C161.63 76.2021 161.574 76.2808 161.532 76.3704C161.359 76.7258 161.378 77.1287 161.523 77.4337C161.671 77.7452 161.939 77.9286 162.171 78.0095C162.406 78.0941 162.612 78.0859 162.744 78.0584C162.878 78.0301 162.942 77.9885 162.938 77.9747Z" fill="#263238"/>
<path d="M166.734 72.7246C166.59 72.9734 166.272 73.0585 166.023 72.9149C165.775 72.7713 165.689 72.4534 165.833 72.2046C165.977 71.9558 166.295 71.8708 166.543 72.0144C166.792 72.158 166.877 72.4758 166.734 72.7246Z" fill="#263238"/>
<path d="M161.483 72.9304C161.34 73.1792 161.022 73.2643 160.773 73.1207C160.524 72.9771 160.439 72.6592 160.583 72.4104C160.726 72.1616 161.044 72.0766 161.293 72.2202C161.542 72.3638 161.627 72.6816 161.483 72.9304Z" fill="#263238"/>
<path d="M152.758 76.3515C152.755 76.3533 152.726 76.3167 152.671 76.2454C152.618 76.1727 152.534 76.0693 152.439 75.9271C152.242 75.6476 151.976 75.2287 151.694 74.6854C151.411 74.1426 151.123 73.4684 150.907 72.6864C150.691 71.9057 150.558 71.0126 150.6 70.075C150.649 69.1375 150.862 68.2603 151.147 67.5025C151.431 66.742 151.776 66.0953 152.103 65.5781C152.43 65.0604 152.731 64.6657 152.951 64.4045C153.058 64.271 153.151 64.1754 153.21 64.1077C153.27 64.0414 153.303 64.0076 153.306 64.0099C153.308 64.0122 153.28 64.0501 153.224 64.121C153.17 64.1928 153.082 64.292 152.98 64.4288C152.77 64.6968 152.479 65.096 152.162 65.6151C151.844 66.1337 151.508 66.779 151.232 67.5341C150.954 68.2869 150.745 69.1549 150.697 70.0801C150.656 71.0052 150.784 71.8884 150.994 72.6631C151.203 73.4392 151.483 74.111 151.756 74.6543C152.028 75.1985 152.284 75.6207 152.471 75.906C152.561 76.051 152.639 76.158 152.687 76.2339C152.737 76.3089 152.761 76.3496 152.758 76.3515Z" fill="#455A64"/>
<path d="M151.346 66.1963C151.347 66.2141 151.085 66.1272 150.632 66.2402C150.409 66.2987 150.149 66.4172 149.878 66.6038C149.608 66.7904 149.329 67.0451 149.057 67.3575C148.518 67.989 147.956 68.809 147.395 69.7557C146.831 70.7006 146.269 71.7753 145.612 72.8669C144.955 73.9581 144.246 74.9565 143.463 75.7427C142.689 76.537 141.842 77.0964 141.081 77.4426C140.317 77.7929 139.641 77.9237 139.177 77.9648C138.71 78.0042 138.452 77.9722 138.452 77.9722C138.452 77.9703 138.469 77.969 138.5 77.9676C138.537 77.9667 138.583 77.9653 138.639 77.9635C138.762 77.9635 138.942 77.952 139.173 77.9269C139.633 77.8743 140.299 77.7343 141.051 77.3795C141.802 77.0282 142.635 76.4694 143.398 75.6791C144.17 74.8971 144.873 73.9037 145.527 72.8162C146.182 71.7282 146.746 70.6544 147.317 69.7091C147.883 68.7615 148.454 67.9424 149.005 67.3113C149.283 66.9984 149.569 66.7437 149.847 66.558C150.125 66.3728 150.393 66.2566 150.622 66.2027C150.852 66.1473 151.038 66.1547 151.16 66.162C151.221 66.1702 151.268 66.1794 151.299 66.1848C151.331 66.1908 151.346 66.1949 151.346 66.1963Z" fill="#455A64"/>
<path d="M150.363 71.5964C150.365 71.5969 150.361 71.6124 150.353 71.6422C150.342 71.6774 150.329 71.7204 150.312 71.7734C150.272 71.8955 150.216 72.0629 150.146 72.2747C149.999 72.7091 149.782 73.3361 149.493 74.104C149.204 74.8719 148.841 75.7797 148.377 76.7611C147.913 77.7421 147.339 78.7944 146.626 79.8271C145.907 80.8556 145.105 81.7529 144.29 82.4732C143.475 83.1935 142.656 83.7437 141.924 84.1201C141.194 84.4983 140.565 84.7269 140.122 84.8486C139.904 84.919 139.726 84.9474 139.61 84.9776C139.555 84.9895 139.511 84.9986 139.475 85.0064C139.445 85.0123 139.429 85.0146 139.429 85.0128C139.428 85.0109 139.443 85.0055 139.473 84.9963C139.508 84.9863 139.552 84.9734 139.605 84.9579C139.72 84.9218 139.895 84.8875 140.111 84.8115C140.549 84.6794 141.17 84.4416 141.891 84.0579C142.614 83.6764 143.422 83.124 144.229 82.4046C145.035 81.6852 145.83 80.792 146.545 79.7699C147.254 78.7432 147.827 77.6973 148.294 76.7213C148.761 75.7449 149.13 74.8417 149.427 74.0779C149.724 73.3142 149.951 72.6908 150.109 72.2605C150.186 72.0515 150.248 71.8859 150.292 71.7657C150.313 71.714 150.329 71.6719 150.342 71.6376C150.355 71.6102 150.362 71.596 150.363 71.5964Z" fill="#455A64"/>
<path d="M208.739 94.485L211.588 96.795C211.588 96.795 211.47 97.9104 210.723 97.412C209.976 96.9135 208.331 96.0624 207.67 96.0125C207.009 95.9627 205.838 96.5709 204.973 96.0125C204.108 95.4541 204.256 95.0366 203.475 94.6954C202.694 94.3542 202.48 94.485 202.48 94.485L202.329 91.4598L209.044 90.4161L211.462 90.2675C211.986 90.2355 212.472 90.5698 212.606 91.0774C212.605 91.0779 211.302 90.5547 210.47 91.1954C209.638 91.8361 208.331 93.2681 208.535 93.8768C208.739 94.485 208.739 94.485 208.739 94.485Z" fill="#FFBE9D"/>
<path d="M174.606 101.893C174.838 101.893 189.25 101.893 189.25 101.893L192.401 100.68L193.455 101.038L191.063 102.517L191.983 104.442L193.714 105.217C193.714 105.217 194.068 105.786 193.188 105.878C192.307 105.971 190.454 105.461 190.454 105.461L186.753 104.653L175.161 107.505L174.606 101.893Z" fill="#FFBE9D"/>
<path d="M172.986 92.837C173.064 93.2344 177.488 114.022 176.294 114.836C175.099 115.651 171.884 113.931 167.933 115.651C163.983 117.371 155.429 119.805 154.326 118.718C153.417 117.822 151.251 103.913 150.519 99.0636C150.356 97.9834 150.248 96.8972 150.195 95.806L149.974 91.2354C149.827 89.2227 150.75 87.7085 151.307 86.9992C153.035 84.8007 157.114 83.3574 159.466 82.8562C162.406 82.2296 170.414 79.6795 172.986 92.837Z" fill="#FF725E"/>
<g opacity="0.3">
<path d="M165.41 96.9423C166.52 97.3219 167.535 97.3521 168.624 96.9158C170.385 96.2106 171.38 94.2884 171.14 92.406L173.01 92.6182C172.774 95.1299 170.969 97.6548 168.499 98.1702C166.03 98.6857 163.436 97.1143 162.215 94.9067C163.085 95.6608 164.299 96.5627 165.41 96.9423Z" fill="black"/>
</g>
<path d="M171.121 91.3707C171.242 92.8327 170.961 95.4391 169.874 96.2198C168.787 97.0004 167.35 97.171 166.031 96.9446C162.65 96.3652 159.947 93.0911 160.018 89.6621C160.088 86.233 162.924 83.0728 166.326 82.6333C166.326 82.6333 169.671 84.6849 170.857 87.5304C172.042 90.376 171.121 91.3707 171.121 91.3707Z" fill="#FFBE9D"/>
<path d="M174.389 101.538C174.389 101.538 171.654 100.16 165.749 100.897L166.229 103.893C166.229 103.893 172.661 103.259 174.993 104.886L174.389 101.538Z" fill="white"/>
<path d="M163.947 101.052L164.319 104.201C164.319 104.201 157.514 105.843 155.395 107.007L154.8 103.873C154.8 103.873 160.814 100.873 163.947 101.052Z" fill="white"/>
<path d="M175.302 106.757C175.302 106.757 172.568 105.379 166.662 106.117L167.025 109.233C167.025 109.233 173.41 108.671 175.906 110.105L175.302 106.757Z" fill="white"/>
<path d="M164.785 106.586L165.233 109.42C165.233 109.42 158.427 111.062 156.308 112.226L155.714 109.092C155.714 109.092 161.652 106.407 164.785 106.586Z" fill="white"/>
<path d="M167.033 116.066C167.049 116.064 167.017 115.784 166.945 115.283C166.867 114.742 166.762 114.025 166.636 113.158C166.373 111.326 166.02 108.866 165.63 106.147C165.236 103.408 164.859 100.93 164.546 99.1429C164.388 98.2492 164.248 97.5285 164.142 97.0323C164.032 96.5365 163.963 96.2644 163.947 96.2676C163.931 96.2708 163.968 96.5493 164.05 97.0492C164.134 97.5893 164.245 98.3046 164.379 99.1698C164.643 101.001 165 103.461 165.393 106.181C165.786 108.919 166.163 111.396 166.469 113.184C166.621 114.078 166.752 114.801 166.853 115.298C166.954 115.796 167.017 116.069 167.033 116.066Z" fill="#263238"/>
<path d="M202.329 91.4596C202.329 91.4596 185.499 89.0769 185.23 89.1491C184.961 89.2214 172.786 85.2824 170.995 84.2977C169.205 83.3131 166.4 81.5226 164.356 83.5815C162.312 85.6405 162.58 89.2214 163.834 90.4749C165.087 91.728 172.249 92.4447 172.249 92.4447C172.249 92.4447 180.395 94.2351 183.081 94.4139C185.767 94.5932 202.48 94.4848 202.48 94.4848L202.329 91.4596Z" fill="#FFBE9D"/>
<path d="M165.73 91.7013C165.721 91.7667 167.73 92.0818 170.215 92.4056C172.701 92.7293 174.723 92.9388 174.731 92.8734C174.74 92.808 172.731 92.4929 170.245 92.1691C167.76 91.8458 165.738 91.6363 165.73 91.7013Z" fill="#EB996E"/>
<path d="M161.279 88.2312C161.318 88.228 161.286 87.8676 161.359 87.3C161.428 86.7357 161.633 85.9582 162.096 85.2246C162.559 84.4911 163.174 83.972 163.653 83.6665C164.135 83.3569 164.473 83.2307 164.46 83.1941C164.452 83.1685 164.089 83.2389 163.567 83.522C163.049 83.8001 162.383 84.3246 161.895 85.0975C161.407 85.8704 161.219 86.6968 161.191 87.2845C161.16 87.8772 161.253 88.2357 161.279 88.2312Z" fill="#EB996E"/>
<path d="M170.23 92.2876C170.23 92.2876 169.49 95.3581 167.121 95.9732C164.752 96.5879 163.228 95.7633 163.228 95.7633C163.228 95.7633 166.81 98.4131 169.415 96.758C171.857 95.2072 171.14 92.406 171.14 92.406L170.23 92.2876Z" fill="#455A64"/>
<path d="M154.705 113.202C154.77 113.19 154.431 111.043 153.949 108.406C153.466 105.769 153.023 103.641 152.958 103.653C152.894 103.665 153.232 105.812 153.714 108.449C154.197 111.085 154.64 113.213 154.705 113.202Z" fill="#263238"/>
<path d="M168.461 99.0247C168.52 99.0503 168.694 98.5243 168.445 97.9284C168.203 97.3298 167.71 97.0778 167.687 97.1368C167.646 97.193 168.017 97.4944 168.225 98.0185C168.445 98.5381 168.392 99.0137 168.461 99.0247Z" fill="#263238"/>
<path d="M167.032 98.9568C167.078 99.0012 167.371 98.6733 167.367 98.1625C167.367 97.6516 167.07 97.326 167.024 97.3708C166.967 97.4083 167.132 97.7344 167.129 98.1634C167.136 98.5923 166.974 98.9203 167.032 98.9568Z" fill="#263238"/>
<path d="M157.82 89.1793C157.85 89.2424 158.338 89.0192 158.962 89.0992C159.588 89.1646 160.012 89.4934 160.055 89.4386C160.109 89.4034 159.701 88.941 158.989 88.8623C158.279 88.7759 157.776 89.1326 157.82 89.1793Z" fill="#263238"/>
<path d="M158.75 87.6572C158.762 87.7249 159.169 87.6801 159.603 87.8813C160.043 88.0711 160.281 88.4036 160.34 88.3679C160.402 88.3496 160.22 87.8923 159.701 87.6636C159.184 87.4295 158.722 87.5987 158.75 87.6572Z" fill="#263238"/>
<path opacity="0.3" d="M154.227 118.579C154.854 119.994 164.013 117.403 167.964 115.683C171.915 113.963 175.13 115.683 176.324 114.868C176.324 114.868 176.931 113.96 175.877 113.609C174.824 113.257 169.414 113.355 167.587 114.571C165.761 115.786 161.405 116.981 159.438 117.332C157.471 117.683 153.642 117.257 154.227 118.579Z" fill="black"/>
<path d="M157.848 116.756C157.786 116.762 157.847 117.309 158.265 117.813C158.678 118.322 159.203 118.489 159.22 118.429C159.251 118.366 158.821 118.122 158.449 117.662C158.071 117.208 157.916 116.738 157.848 116.756Z" fill="#263238"/>
<path d="M174.229 115.039C174.257 115.095 174.73 114.812 174.94 114.203C175.157 113.597 174.965 113.08 174.907 113.107C174.839 113.121 174.908 113.594 174.715 114.125C174.534 114.659 174.184 114.985 174.229 115.039Z" fill="#263238"/>
<path d="M151.548 105.617L152.466 105.21L152.958 107.83L152 108.326L151.548 105.617Z" fill="white"/>
<path d="M152.399 110.588L153.317 110.181L153.809 112.8L152.851 113.297L152.399 110.588Z" fill="white"/>
<path d="M150.416 95.4884C150.432 95.52 150.968 95.2771 151.838 94.8971C152.708 94.5166 153.916 94.0067 155.271 93.4995C156.628 92.9928 157.873 92.5848 158.779 92.3017C159.685 92.0177 160.249 91.8494 160.241 91.8151C160.236 91.7991 160.09 91.8215 159.829 91.8755C159.568 91.9285 159.193 92.0182 158.733 92.1403C157.812 92.3831 156.551 92.7677 155.188 93.2768C153.826 93.7867 152.622 94.3236 151.767 94.7448C151.34 94.9552 150.998 95.1331 150.766 95.2648C150.534 95.3947 150.409 95.4738 150.416 95.4884Z" fill="#263238"/>
<path d="M49.042 176.489L63.0227 177.938C100.396 178.869 166.688 172.669 201.839 159.939C223.639 152.043 244.443 141.664 265.834 132.721C287.226 123.778 311.567 113.493 334.106 122.812C334.106 122.812 333.794 128.523 327.114 127.394C320.434 126.265 310.043 121.999 304.6 123.513C299.157 125.028 292.724 130.992 285.797 131.474C278.87 131.955 274.416 133.78 274.416 133.78C274.416 133.78 267.737 141.12 261.056 141.981C254.376 142.842 249.923 143.336 249.923 143.336C249.923 143.336 248.671 144.079 240.266 150.759C231.862 157.439 222.213 156.45 216.77 157.686C211.327 158.923 202.627 160.091 198.565 162.847C194.503 165.603 170.3 175.994 161.619 176.242C152.938 176.489 140.351 172.89 133.656 178.029C126.96 183.169 112.542 188.859 104.288 187.375C96.0344 185.89 88.5478 179.211 84.1263 181.189C79.7053 183.169 68.9996 187.375 65.4456 184.653C61.8913 181.932 47.4148 180.447 49.042 176.489ZM327.527 125.067C328.053 125.067 328.48 124.641 328.48 124.115C328.48 123.589 328.053 123.163 327.527 123.163C327.001 123.163 326.575 123.589 326.575 124.115C326.575 124.641 327.001 125.067 327.527 125.067ZM323.825 123.989C324.088 123.989 324.301 123.776 324.301 123.513C324.301 123.25 324.088 123.037 323.825 123.037C323.562 123.037 323.349 123.25 323.349 123.513C323.349 123.776 323.562 123.989 323.825 123.989ZM264.414 138.404C264.94 138.404 265.367 137.978 265.367 137.452C265.367 136.926 264.94 136.5 264.414 136.5C263.888 136.5 263.462 136.926 263.462 137.452C263.462 137.978 263.888 138.404 264.414 138.404ZM261.351 139.357C261.614 139.357 261.827 139.144 261.827 138.881C261.827 138.618 261.614 138.405 261.351 138.405C261.088 138.405 260.875 138.618 260.875 138.881C260.875 139.144 261.088 139.357 261.351 139.357ZM232.385 153.69C232.911 153.69 233.337 153.263 233.337 152.737C233.337 152.211 232.911 151.785 232.385 151.785C231.859 151.785 231.432 152.211 231.432 152.737C231.432 153.263 231.859 153.69 232.385 153.69ZM228.748 152.113C229.011 152.113 229.224 151.9 229.224 151.637C229.224 151.374 229.011 151.16 228.748 151.16C228.485 151.16 228.272 151.374 228.272 151.637C228.272 151.9 228.485 152.113 228.748 152.113ZM226.616 155.15C227.282 155.15 227.822 154.61 227.822 153.944C227.822 153.277 227.282 152.737 226.616 152.737C225.95 152.737 225.409 153.277 225.409 153.944C225.409 154.61 225.95 155.15 226.616 155.15ZM164.761 174.693C166.185 174.693 167.34 173.95 167.34 173.034C167.34 172.118 166.185 171.376 164.761 171.376C163.336 171.376 162.181 172.119 162.181 173.034C162.181 173.95 163.336 174.693 164.761 174.693ZM159.645 173.289C159.785 173.561 160.12 173.669 160.393 173.528C160.666 173.388 160.773 173.053 160.633 172.78C160.492 172.507 160.157 172.4 159.884 172.54C159.611 172.681 159.504 173.016 159.645 173.289ZM117.208 182.767C117.348 183.04 117.683 183.147 117.956 183.006C118.229 182.866 118.336 182.531 118.195 182.258C118.055 181.986 117.72 181.878 117.447 182.019C117.174 182.159 117.067 182.495 117.208 182.767ZM111.693 185.479C113.118 185.479 114.273 184.737 114.273 183.82C114.273 182.904 113.118 182.162 111.693 182.162C110.268 182.162 109.113 182.905 109.113 183.82C109.113 184.737 110.268 185.479 111.693 185.479ZM106.666 186.41C106.806 186.683 107.142 186.79 107.414 186.65C107.687 186.51 107.794 186.174 107.654 185.902C107.513 185.629 107.178 185.522 106.906 185.662C106.633 185.803 106.526 186.138 106.666 186.41ZM104.273 183.465C104.799 183.465 105.225 183.039 105.225 182.513C105.225 181.987 104.799 181.561 104.273 181.561C103.746 181.561 103.32 181.987 103.32 182.513C103.32 183.039 103.747 183.465 104.273 183.465ZM71.942 182.767C72.0825 183.04 72.4177 183.147 72.6902 183.006C72.9628 182.866 73.0703 182.531 72.9299 182.258C72.7895 181.986 72.4543 181.878 72.1817 182.019C71.9087 182.159 71.8017 182.495 71.942 182.767ZM69.2598 184.205C69.7857 184.205 70.2124 183.778 70.2124 183.252C70.2124 182.727 69.7862 182.3 69.2598 182.3C68.7339 182.3 68.3076 182.727 68.3076 183.252C68.3076 183.778 68.7339 184.205 69.2598 184.205Z" fill="#E0E0E0"/>
<path d="M21.1077 173.84C21.1077 173.84 21.3542 173.852 21.8372 173.864C22.0795 173.87 22.3795 173.879 22.7367 173.888C23.0948 173.909 23.5101 173.934 23.9816 173.961C25.869 174.072 28.6555 174.299 32.2579 174.645C39.4632 175.33 49.9334 176.466 63.0132 178.017L63.0168 178.018H63.0205C70.3053 178.176 78.4445 178.098 87.2898 177.782C96.1341 177.439 105.681 176.832 115.783 175.96C118.307 175.725 120.867 175.486 123.461 175.244C126.05 174.962 128.673 174.676 131.328 174.387C131.991 174.314 132.657 174.241 133.324 174.168C133.991 174.084 134.659 173.999 135.329 173.914C136.669 173.745 138.017 173.575 139.372 173.403C140.726 173.227 142.091 173.07 143.457 172.876C144.823 172.678 146.196 172.479 147.576 172.279C158.611 170.671 170.045 168.689 181.615 165.93C182.97 165.596 184.32 165.264 185.667 164.933C186.339 164.762 187.016 164.614 187.681 164.425C188.346 164.235 189.01 164.047 189.673 163.858C192.32 163.092 194.972 162.406 197.536 161.495C198.826 161.066 200.111 160.638 201.391 160.212C202.667 159.776 203.918 159.287 205.176 158.829C207.68 157.886 210.156 156.93 212.597 155.948C222.366 152.035 231.639 147.904 240.463 143.958C249.285 140.007 257.669 136.254 265.595 132.929C273.519 129.6 280.923 126.539 287.866 124.255C294.795 121.941 301.257 120.415 307.016 119.709C312.776 118.988 317.812 119.098 321.859 119.629C325.912 120.153 328.982 121.02 331.019 121.7C332.047 122.017 332.805 122.334 333.323 122.524C333.839 122.719 334.106 122.813 334.106 122.813C334.106 122.813 333.845 122.704 333.332 122.501C332.817 122.304 332.061 121.98 331.034 121.654C329 120.959 325.93 120.077 321.871 119.537C317.818 118.992 312.772 118.868 307 119.577C301.228 120.272 294.753 121.789 287.813 124.096C280.859 126.372 273.445 129.427 265.519 132.748C257.586 136.066 249.197 139.813 240.373 143.758C231.547 147.699 222.274 151.824 212.509 155.733C210.07 156.713 207.595 157.668 205.092 158.61C203.836 159.067 202.585 159.555 201.31 159.991C200.032 160.416 198.749 160.843 197.461 161.271C194.902 162.18 192.252 162.865 189.608 163.63C188.946 163.819 188.283 164.007 187.619 164.196C186.955 164.385 186.278 164.533 185.607 164.704C184.261 165.035 182.912 165.367 181.558 165.7C169.998 168.457 158.57 170.44 147.541 172.051C146.162 172.251 144.79 172.45 143.424 172.648C142.059 172.843 140.695 173.001 139.341 173.177C137.987 173.349 136.64 173.52 135.3 173.69C134.631 173.775 133.962 173.859 133.297 173.944C132.629 174.018 131.964 174.091 131.301 174.164C128.647 174.454 126.025 174.742 123.437 175.025C120.844 175.269 118.286 175.509 115.763 175.745C105.665 176.623 96.1218 177.239 87.2811 177.591C78.4395 177.916 70.304 178.005 63.0232 177.859L63.0305 177.859C49.9471 176.329 39.4738 175.218 32.2643 174.559C28.6601 174.227 25.8717 174.014 23.9825 173.918C23.5105 173.894 23.0948 173.873 22.7363 173.855C22.3786 173.85 22.0782 173.846 21.8353 173.843C21.3542 173.837 21.1077 173.84 21.1077 173.84Z" fill="#263238"/>
<path d="M213.28 178.509C213.28 178.509 213.356 178.518 213.505 178.522C213.664 178.526 213.884 178.531 214.167 178.537C214.462 178.542 214.822 178.547 215.245 178.554C215.458 178.557 215.688 178.56 215.933 178.563C216.178 178.56 216.438 178.543 216.715 178.533C217.269 178.508 217.884 178.48 218.556 178.45C219.227 178.398 219.954 178.315 220.737 178.24C222.3 178.062 224.072 177.789 226.01 177.382C229.892 176.594 234.409 175.188 239.28 173.276C244.15 171.359 249.361 168.916 254.804 166.313C260.248 163.709 265.446 161.251 270.296 159.305C275.146 157.363 279.636 155.916 283.496 155.073C287.352 154.218 290.539 153.85 292.745 153.751C293.021 153.734 293.281 153.71 293.525 153.7C293.769 153.696 293.999 153.692 294.212 153.689C294.634 153.681 294.993 153.674 295.288 153.669C295.571 153.662 295.791 153.656 295.95 153.652C296.099 153.647 296.176 153.638 296.176 153.638C296.176 153.638 296.1 153.63 295.95 153.627C295.791 153.626 295.571 153.624 295.288 153.621C294.993 153.62 294.634 153.619 294.211 153.618C293.997 153.618 293.768 153.618 293.523 153.618C293.278 153.625 293.017 153.644 292.741 153.658C290.529 153.729 287.331 154.072 283.46 154.909C279.585 155.732 275.078 157.167 270.215 159.101C265.352 161.039 260.145 163.493 254.701 166.097C249.259 168.701 244.056 171.146 239.199 173.072C234.342 174.991 229.842 176.409 225.974 177.217C224.044 177.634 222.279 177.917 220.722 178.107C219.942 178.188 219.217 178.278 218.547 178.336C217.877 178.374 217.264 178.409 216.712 178.44C216.436 178.454 216.176 178.475 215.931 178.482C215.687 178.482 215.457 178.483 215.244 178.484C214.822 178.486 214.462 178.488 214.168 178.49C213.885 178.493 213.665 178.496 213.506 178.498C213.356 178.501 213.28 178.509 213.28 178.509Z" fill="#263238"/>
<path d="M100.498 198.692C100.494 198.694 100.535 198.744 100.616 198.838C100.706 198.941 100.828 199.079 100.983 199.255C101.34 199.583 101.877 200.087 102.726 200.482C103.56 200.888 104.674 201.216 105.994 201.298C107.311 201.37 108.829 201.249 110.435 200.822C112.054 200.425 113.714 199.655 115.477 198.843C117.24 198.031 119.113 197.115 121.21 196.534C122.257 196.247 123.361 196.06 124.494 196.048C125.627 196.03 126.784 196.189 127.937 196.449C130.248 196.965 132.545 197.888 135.012 198.477C136.244 198.768 137.495 198.963 138.737 198.95C139.976 198.947 141.192 198.778 142.356 198.502C144.69 197.948 146.8 196.981 148.762 196.02C150.724 195.049 152.544 194.045 154.297 193.214C156.046 192.378 157.753 191.765 159.346 191.35C160.941 190.938 162.429 190.744 163.736 190.752C165.045 190.754 166.161 190.965 167.042 191.221C167.478 191.367 167.871 191.485 168.187 191.648C168.511 191.794 168.788 191.91 168.991 192.044C169.194 192.161 169.353 192.253 169.47 192.32C169.579 192.382 169.636 192.411 169.638 192.408C169.64 192.405 169.588 192.368 169.484 192.3C169.369 192.227 169.213 192.128 169.015 192.003C168.814 191.861 168.539 191.737 168.217 191.583C167.901 191.413 167.508 191.287 167.07 191.132C166.184 190.861 165.058 190.634 163.737 190.619C162.417 190.599 160.913 190.782 159.305 191.188C157.697 191.595 155.975 192.202 154.213 193.035C152.448 193.863 150.624 194.861 148.665 195.824C146.707 196.776 144.607 197.732 142.302 198.275C141.152 198.546 139.955 198.711 138.737 198.714C137.518 198.726 136.287 198.534 135.066 198.246C132.624 197.663 130.324 196.741 127.988 196.221C126.822 195.96 125.647 195.801 124.491 195.821C123.334 195.836 122.211 196.029 121.153 196.323C119.03 196.918 117.152 197.845 115.394 198.665C113.634 199.484 111.991 200.257 110.393 200.66C108.805 201.093 107.305 201.224 106.002 201.166C104.697 201.097 103.596 200.787 102.766 200.399C101.923 200.022 101.382 199.536 101.017 199.222C100.855 199.053 100.729 198.921 100.635 198.823C100.547 198.734 100.501 198.689 100.498 198.692Z" fill="#263238"/>
<path d="M64.0042 197.463C64.0179 197.507 64.7904 197.246 66.0782 197.02C66.7212 196.903 67.4955 196.818 68.3571 196.777C69.2192 196.75 70.1686 196.774 71.1578 196.89C72.1461 197.015 73.074 197.219 73.9045 197.452C74.7314 197.699 75.4627 197.966 76.059 198.234C77.255 198.763 77.9419 199.202 77.9661 199.162C77.9748 199.148 77.8083 199.031 77.4983 198.832C77.3446 198.73 77.153 198.611 76.9206 198.489C76.6897 198.366 76.4318 198.213 76.1295 198.081C75.5363 197.791 74.8018 197.503 73.9677 197.242C73.1298 196.994 72.1895 196.78 71.1875 196.653C70.1846 196.536 69.221 196.518 68.3479 196.558C67.4753 196.612 66.6938 196.715 66.048 196.855C65.7224 196.911 65.4356 196.996 65.1818 197.061C64.9271 197.123 64.7126 197.192 64.5388 197.255C64.1885 197.375 63.9987 197.448 64.0042 197.463Z" fill="#263238"/>
</svg>
