<svg width="311" height="197" viewBox="0 0 311 197" fill="none" xmlns="http://www.w3.org/2000/svg">
<path d="M240.739 53.3125C240.814 53.4353 240.785 53.6169 240.673 53.8428C240.617 53.9557 240.54 54.0801 240.445 54.2135C240.354 54.3557 240.246 54.5116 240.121 54.6751C239.625 55.3404 238.914 56.2446 238.13 57.4239C236.56 59.7768 234.721 63.2691 233.289 67.3679C231.836 71.4627 231.081 75.3182 230.707 78.1437C230.315 80.9683 230.258 82.8158 229.649 82.9413C229.363 82.997 228.981 82.5958 228.595 81.7754C228.207 80.9565 227.854 79.7139 227.653 78.1472C227.242 75.0197 227.582 70.598 229.194 66.0602C230.779 61.5192 233.324 57.7619 235.789 55.5572C237.017 54.4508 238.207 53.737 239.107 53.3986C239.334 53.3157 239.538 53.2497 239.72 53.2039C239.909 53.1656 240.073 53.1447 240.212 53.1404C240.489 53.1317 240.664 53.1897 240.739 53.3125Z" fill="#E6E6E6"/>
<path d="M225.701 55.2457C225.427 55.1588 225.219 54.8343 225.208 54.2894C225.197 53.7505 225.382 52.9794 225.912 52.1692C226.43 51.3554 227.295 50.5097 228.499 49.8894C229.708 49.2624 231.245 48.9284 232.792 49.0314C234.345 49.1305 235.748 49.6193 236.853 50.2886C237.966 50.959 238.754 51.7889 239.261 52.5577C239.77 53.3296 239.996 54.0415 240.033 54.565C240.068 55.0925 239.92 55.4329 239.657 55.5596C239.11 55.817 238.257 55.2185 237.061 54.5737C235.869 53.9131 234.294 53.2439 232.51 53.1353C231.626 53.0796 230.819 53.1705 230.101 53.3584C229.372 53.5511 228.706 53.8421 228.15 54.1477C227.026 54.7399 226.286 55.4214 225.701 55.2457Z" fill="#E6E6E6"/>
<path d="M250.109 63.2988C249.834 63.405 249.479 63.3007 249.09 62.9884C248.701 62.6789 248.29 62.1593 247.902 61.5121C247.119 60.2191 246.46 58.4482 245.527 57.2629C245.08 56.6896 244.562 56.2569 244.108 55.9963C243.878 55.8609 243.654 55.7665 243.455 55.6958C243.24 55.6248 243 55.5892 242.769 55.5722C242.303 55.5415 241.868 55.5936 241.493 55.6631C241.115 55.727 240.775 55.8119 240.497 55.6982C240.232 55.5928 240.04 55.2532 240.161 54.6866C240.277 54.1287 240.768 53.3825 241.693 52.8507C242.153 52.5881 242.715 52.3745 243.372 52.2864C244.043 52.1996 244.752 52.245 245.443 52.4262C246.839 52.7879 248.097 53.6593 248.996 54.8126C249.877 55.9533 250.305 57.1413 250.547 58.1485C250.785 59.1676 250.843 60.0311 250.848 60.7434C250.85 61.4561 250.792 62.0274 250.678 62.4617C250.563 62.8941 250.386 63.1918 250.109 63.2988Z" fill="#E6E6E6"/>
<path d="M240.568 65.6895C240.063 65.3732 239.959 64.6246 239.896 63.7398C239.843 62.8482 239.822 61.7956 239.691 60.6976C239.558 59.5995 239.327 58.5698 239.166 57.6897C239.018 56.8144 238.94 56.0634 239.357 55.646C239.754 55.2417 240.67 55.2966 241.696 56.0598C242.709 56.8001 243.752 58.3116 243.982 60.2289C244.214 62.145 243.558 63.8424 242.747 64.7817C241.93 65.7463 241.05 65.9974 240.568 65.6895Z" fill="#E6E6E6"/>
<path d="M246.479 47.7498C246.395 48.0262 246.159 48.241 245.89 48.4511C245.619 48.6556 245.316 48.8806 245.012 49.1262C244.707 49.3695 244.388 49.6652 244.058 49.9988C243.73 50.3388 243.402 50.7332 243.122 51.1498C242.5 52.082 241.984 53.2349 241.439 54.1545C240.898 55.0701 240.303 55.6852 239.706 55.6201C239.12 55.5565 238.632 54.8711 238.423 53.7032C238.321 53.1188 238.297 52.4049 238.434 51.588C238.568 50.7759 238.883 49.8472 239.468 48.9565C240.72 47.064 242.833 46.1804 244.4 46.2779C245.183 46.3194 245.79 46.5653 246.128 46.867C246.47 47.1663 246.561 47.4829 246.479 47.7498Z" fill="#E6E6E6"/>
<path d="M250.915 51.9801C250.636 52.0879 250.153 51.5932 249.22 51.4396C248.766 51.3599 248.198 51.3622 247.516 51.4661C246.824 51.575 246.053 51.7484 245.278 52.0007C243.721 52.5112 242.422 53.2586 241.489 53.86C240.548 54.4542 239.945 54.8976 239.69 54.7266C239.457 54.5766 239.634 53.7956 240.432 52.8101C241.212 51.8289 242.659 50.6827 244.574 50.0565C245.531 49.7458 246.48 49.5957 247.366 49.5768C248.262 49.5582 249.148 49.7312 249.803 50.096C250.455 50.4521 250.833 50.9402 250.973 51.3117C251.116 51.6884 251.047 51.9264 250.915 51.9801Z" fill="#E6E6E6"/>
<path d="M233.176 47.5462C233.144 47.4111 233.241 47.2461 233.494 47.0961C233.745 46.9445 234.158 46.8327 234.678 46.841C235.719 46.8461 237.109 47.4502 238.032 48.6462C238.924 49.8177 239.185 51.0346 239.247 51.8625C239.301 52.7047 239.155 53.2377 238.87 53.3108C238.58 53.3854 238.196 52.9606 237.783 52.2751C237.366 51.5913 236.915 50.6693 236.296 49.8686C235.696 49.0991 234.95 48.5645 234.358 48.2624C233.768 47.9462 233.252 47.832 233.176 47.5462Z" fill="#E6E6E6"/>
<path d="M230.929 58.5398C230.784 58.5544 230.623 58.4372 230.498 58.1691C230.371 57.903 230.31 57.4809 230.397 56.9723C230.559 55.9541 231.436 54.6708 232.922 53.9921C233.638 53.668 234.364 53.5112 235.005 53.4607C235.648 53.4085 236.212 53.4504 236.672 53.5306C237.592 53.6948 238.114 53.9886 238.104 54.2677C238.094 54.5555 237.539 54.7774 236.718 54.9839C235.898 55.1932 234.826 55.404 233.858 55.8455C232.931 56.2719 232.234 56.9297 231.831 57.4698C231.412 58.0068 231.237 58.5027 230.929 58.5398Z" fill="#E6E6E6"/>
<path d="M218.27 60.6379C218.225 60.7118 218.242 60.8211 218.31 60.9574C218.344 61.0257 218.39 61.1003 218.448 61.1808C218.502 61.2665 218.568 61.3605 218.643 61.4592C218.942 61.86 219.37 62.4048 219.843 63.1155C220.789 64.533 221.896 66.6375 222.76 69.1072C223.635 71.5745 224.09 73.8977 224.316 75.5998C224.551 77.302 224.586 78.415 224.953 78.4908C225.125 78.5244 225.355 78.2827 225.588 77.7884C225.822 77.2948 226.035 76.5462 226.156 75.6022C226.403 73.7176 226.198 71.0537 225.227 68.3191C224.272 65.5829 222.738 63.3189 221.253 61.9907C220.513 61.3242 219.797 60.8942 219.254 60.6901C219.117 60.6399 218.995 60.6004 218.885 60.5728C218.771 60.5499 218.672 60.5369 218.589 60.5345C218.421 60.529 218.315 60.5641 218.27 60.6379Z" fill="#E6E6E6"/>
<path d="M227.331 61.8031C227.496 61.7506 227.621 61.5551 227.628 61.227C227.634 60.9025 227.523 60.4377 227.204 59.9493C226.892 59.4589 226.37 58.9492 225.645 58.5757C224.916 58.1978 223.991 57.9965 223.058 58.0585C222.122 58.1181 221.277 58.4126 220.611 58.8157C219.94 59.2197 219.466 59.7199 219.16 60.1831C218.853 60.6482 218.717 61.077 218.695 61.3924C218.674 61.7103 218.763 61.9152 218.921 61.9918C219.251 62.147 219.765 61.7861 220.486 61.3976C221.204 60.9996 222.153 60.5965 223.228 60.5309C223.76 60.4974 224.246 60.5522 224.679 60.6655C225.118 60.7816 225.52 60.9569 225.855 61.1409C226.533 61.4979 226.979 61.9085 227.331 61.8031Z" fill="#E6E6E6"/>
<path d="M212.624 66.6553C212.79 66.7193 213.004 66.6565 213.238 66.4686C213.472 66.2822 213.72 65.9691 213.954 65.579C214.426 64.8 214.823 63.7332 215.385 63.0185C215.655 62.673 215.966 62.4124 216.24 62.2553C216.379 62.1736 216.514 62.1171 216.634 62.0741C216.763 62.0314 216.907 62.0097 217.047 61.9994C217.328 61.9809 217.589 62.0125 217.815 62.0543C218.043 62.093 218.248 62.144 218.416 62.0756C218.576 62.0121 218.691 61.8076 218.618 61.466C218.549 61.13 218.253 60.6803 217.696 60.3597C217.418 60.2014 217.079 60.0727 216.684 60.0197C216.279 59.9672 215.852 59.9945 215.436 60.1038C214.595 60.3218 213.837 60.8469 213.295 61.5418C212.764 62.2292 212.506 62.9451 212.361 63.5519C212.217 64.1659 212.183 64.6863 212.179 65.1155C212.178 65.5451 212.213 65.8894 212.281 66.1507C212.351 66.4113 212.457 66.5906 212.624 66.6553Z" fill="#E6E6E6"/>
<path d="M218.373 68.0956C218.678 67.9049 218.74 67.454 218.778 66.9209C218.81 66.3836 218.822 65.7495 218.902 65.0877C218.982 64.426 219.121 63.8057 219.218 63.2754C219.307 62.7479 219.354 62.2955 219.103 62.044C218.864 61.8003 218.312 61.8335 217.694 62.2931C217.084 62.7393 216.455 63.6497 216.317 64.805C216.177 65.9595 216.572 66.9822 217.061 67.5483C217.552 68.1299 218.082 68.2812 218.373 68.0956Z" fill="#E6E6E6"/>
<path d="M214.812 57.2861C214.862 57.4527 215.005 57.5822 215.167 57.7086C215.33 57.8318 215.513 57.9676 215.695 58.1153C215.879 58.2617 216.071 58.4402 216.27 58.6412C216.468 58.8461 216.666 59.0838 216.835 59.3345C217.209 59.8964 217.52 60.5909 217.848 61.1448C218.175 61.6964 218.533 62.0672 218.892 62.0281C219.246 61.9898 219.539 61.5768 219.666 60.8732C219.727 60.521 219.742 60.091 219.659 59.5987C219.578 59.1091 219.388 58.55 219.036 58.013C218.281 56.8727 217.009 56.3401 216.064 56.3989C215.592 56.4238 215.227 56.5719 215.023 56.7539C214.817 56.9347 214.762 57.1254 214.812 57.2861Z" fill="#E6E6E6"/>
<path d="M212.138 59.8352C212.306 59.9004 212.598 59.6019 213.16 59.5099C213.433 59.4617 213.775 59.4633 214.186 59.5257C214.603 59.5912 215.068 59.6958 215.535 59.8479C216.473 60.1554 217.256 60.6055 217.818 60.968C218.385 61.3261 218.748 61.593 218.902 61.4904C219.043 61.4 218.935 60.9293 218.455 60.3359C217.985 59.7448 217.113 59.0538 215.959 58.6768C215.383 58.4896 214.811 58.3992 214.277 58.3878C213.737 58.3767 213.203 58.4805 212.809 58.7005C212.416 58.9149 212.187 59.209 212.104 59.4329C212.017 59.6591 212.059 59.8028 212.138 59.8352Z" fill="#E6E6E6"/>
<path d="M222.827 57.1634C222.846 57.0821 222.787 56.9826 222.635 56.8921C222.484 56.8009 222.235 56.7334 221.922 56.7386C221.295 56.7417 220.457 57.1058 219.901 57.8263C219.363 58.5323 219.206 59.2655 219.169 59.7642C219.136 60.2715 219.224 60.5929 219.396 60.6368C219.571 60.6818 219.802 60.4259 220.051 60.0129C220.302 59.6007 220.574 59.0452 220.947 58.5631C221.308 58.0996 221.758 57.7774 222.115 57.5953C222.47 57.4046 222.781 57.3359 222.827 57.1634Z" fill="#E6E6E6"/>
<path d="M224.181 63.7875C224.268 63.7966 224.365 63.7255 224.441 63.564C224.517 63.4037 224.554 63.1494 224.501 62.843C224.404 62.2295 223.875 61.4564 222.98 61.0473C222.549 60.8519 222.111 60.7575 221.725 60.7271C221.337 60.6955 220.998 60.7208 220.721 60.769C220.166 60.8681 219.852 61.045 219.858 61.2132C219.863 61.3865 220.198 61.5204 220.692 61.6447C221.187 61.7707 221.833 61.8978 222.416 62.1639C222.974 62.421 223.394 62.817 223.637 63.1427C223.89 63.4665 223.995 63.7654 224.181 63.7875Z" fill="#E6E6E6"/>
<path d="M41.3516 125.725C38.1055 125.844 35.0536 129.833 33.1449 129.984C31.2362 130.135 27.777 127.982 25.6747 127.638C23.5723 127.293 20.0547 127.565 20.0547 127.565C24.3942 116.014 30.4392 102.902 42.8978 99.7777C54.2722 96.9246 65.4764 103.82 76.6812 107.228C94.2253 112.564 113.482 109.251 130.71 103.052C147.938 96.8523 163.934 87.8801 181.053 81.4123C198.172 74.9445 217.208 71.0345 235.006 75.5423C248.457 78.949 260.226 86.9574 269.855 96.5262C279.484 106.095 287.189 117.236 294.837 128.309C294.837 128.309 290.989 130.572 288.828 129.992C286.666 129.411 285.309 127.108 282.009 127.108C278.708 127.108 271.289 131.45 268.644 130.917C266.001 130.384 264.928 130.025 263.133 128.924C261.338 127.824 259.794 125.948 256.977 126.083" fill="#E6E6E6"/>
<path d="M181.618 152.68C181.242 152.926 181.373 153.532 181.742 153.787C182.112 154.042 182.601 154.054 183.056 154.076C183.512 154.099 184.01 154.16 184.324 154.475C184.708 154.86 184.712 155.528 185.176 155.824C185.581 156.081 186.157 155.931 186.579 156.164C186.917 156.351 187.07 156.735 187.16 157.097C187.25 157.459 187.31 157.845 187.548 158.14C187.785 158.436 188.28 158.586 188.57 158.336C188.909 158.043 188.714 157.52 188.717 157.083C188.725 156.216 189.584 155.614 190.101 154.899C190.858 153.851 190.862 152.359 190.11 151.307C189.358 150.255 187.9 149.711 186.598 149.997C184.735 150.407 183.51 152.246 181.653 152.678" fill="#E6E6E6"/>
<path d="M183.643 154.146C183.65 154.165 183.5 154.185 183.335 154.36C183.254 154.446 183.173 154.568 183.105 154.722C183.037 154.876 182.984 155.065 182.895 155.272C182.81 155.479 182.649 155.706 182.405 155.85C182.167 156.001 181.882 156.089 181.594 156.171C181.306 156.254 181.002 156.331 180.745 156.486C180.48 156.637 180.326 156.897 180.255 157.211C180.175 157.521 180.153 157.858 179.986 158.165C179.902 158.316 179.773 158.45 179.62 158.533C179.468 158.62 179.304 158.658 179.15 158.684C178.842 158.732 178.558 158.734 178.317 158.804C178.079 158.874 177.882 159.008 177.74 159.163C177.448 159.473 177.366 159.826 177.358 160.057C177.352 160.293 177.399 160.422 177.38 160.427C177.372 160.432 177.295 160.309 177.273 160.058C177.257 159.813 177.317 159.425 177.624 159.068C177.773 158.891 177.99 158.73 178.263 158.642C178.535 158.555 178.83 158.549 179.115 158.498C179.4 158.453 179.666 158.328 179.799 158.071C179.937 157.818 179.963 157.494 180.045 157.163C180.087 156.997 180.145 156.829 180.244 156.678C180.346 156.531 180.479 156.401 180.631 156.317C180.932 156.14 181.252 156.068 181.539 155.989C181.828 155.914 182.095 155.835 182.308 155.708C182.526 155.585 182.665 155.405 182.755 155.214C182.848 155.023 182.912 154.834 182.995 154.675C183.078 154.516 183.177 154.39 183.276 154.304C183.478 154.129 183.647 154.137 183.643 154.146Z" fill="#E6E6E6"/>
<path d="M187.061 156.161C187.068 156.179 186.918 156.2 186.753 156.374C186.672 156.461 186.591 156.582 186.523 156.736C186.455 156.89 186.402 157.079 186.313 157.286C186.229 157.493 186.067 157.721 185.823 157.865C185.585 158.015 185.301 158.104 185.012 158.185C184.724 158.268 184.42 158.345 184.163 158.5C183.899 158.651 183.744 158.911 183.673 159.225C183.593 159.535 183.571 159.872 183.404 160.179C183.32 160.33 183.192 160.464 183.039 160.548C182.886 160.634 182.722 160.672 182.568 160.698C182.26 160.747 181.976 160.748 181.735 160.818C181.498 160.888 181.3 161.022 181.158 161.177C180.866 161.487 180.784 161.841 180.776 162.071C180.77 162.307 180.818 162.436 180.799 162.442C180.79 162.446 180.713 162.324 180.692 162.072C180.675 161.827 180.736 161.439 181.042 161.083C181.191 160.905 181.408 160.745 181.681 160.656C181.953 160.57 182.249 160.563 182.533 160.512C182.818 160.467 183.085 160.342 183.217 160.085C183.355 159.832 183.381 159.508 183.464 159.177C183.506 159.012 183.563 158.843 183.663 158.693C183.764 158.545 183.897 158.415 184.049 158.331C184.35 158.154 184.67 158.082 184.957 158.003C185.246 157.928 185.513 157.849 185.726 157.722C185.945 157.599 186.083 157.419 186.173 157.227C186.266 157.037 186.331 156.848 186.414 156.688C186.496 156.529 186.595 156.403 186.694 156.318C186.896 156.144 187.065 156.151 187.061 156.161Z" fill="#E6E6E6"/>
<path d="M185.176 155.824C185.182 155.822 185.198 155.864 185.191 155.944C185.183 156.023 185.148 156.148 185.028 156.26C184.764 156.464 184.322 156.556 183.79 156.695C183.664 156.73 183.496 156.753 183.386 156.796C183.267 156.846 183.162 156.942 183.078 157.061C182.902 157.296 182.846 157.622 182.669 157.951C182.581 158.116 182.439 158.268 182.272 158.38C182.104 158.494 181.913 158.567 181.721 158.63C181.34 158.756 180.931 158.825 180.592 159.014C180.239 159.196 180.104 159.548 180.035 159.914C179.958 160.269 179.908 160.684 179.596 160.96C179.28 161.231 178.881 161.232 178.573 161.269C178.252 161.295 177.978 161.364 177.768 161.517C177.343 161.817 177.201 162.25 177.177 162.525C177.15 162.811 177.221 162.966 177.198 162.972C177.191 162.974 177.173 162.937 177.144 162.863C177.12 162.788 177.091 162.673 177.093 162.522C177.094 162.228 177.215 161.752 177.677 161.401C177.902 161.222 178.23 161.131 178.552 161.1C178.869 161.058 179.226 161.037 179.46 160.822C179.701 160.611 179.754 160.245 179.828 159.875C179.866 159.689 179.914 159.49 180.016 159.3C180.116 159.109 180.287 158.946 180.481 158.838C180.873 158.622 181.29 158.56 181.654 158.44C182.024 158.332 182.338 158.15 182.494 157.862C182.657 157.578 182.724 157.233 182.932 156.963C183.032 156.83 183.162 156.713 183.322 156.651C183.494 156.593 183.617 156.588 183.756 156.554C184.283 156.438 184.742 156.355 184.972 156.201C185.192 156.014 185.154 155.814 185.176 155.824Z" fill="#E6E6E6"/>
<path d="M129.389 157.731C128.968 158.008 129.114 158.69 129.527 158.978C129.941 159.265 130.487 159.279 130.997 159.304C131.507 159.329 132.064 159.398 132.415 159.753C132.844 160.188 132.849 160.94 133.368 161.273C133.821 161.564 134.465 161.395 134.936 161.657C135.315 161.867 135.486 162.3 135.587 162.708C135.687 163.117 135.755 163.552 136.02 163.885C136.286 164.218 136.839 164.387 137.164 164.105C137.543 163.775 137.325 163.185 137.329 162.693C137.338 161.715 138.299 161.037 138.876 160.231C139.723 159.05 139.728 157.369 138.887 156.183C138.046 154.997 136.414 154.384 134.958 154.707C132.874 155.169 131.505 157.241 129.428 157.728" fill="#E6E6E6"/>
<path d="M131.654 159.383C131.661 159.402 131.492 159.424 131.305 159.62C131.213 159.718 131.121 159.855 131.044 160.029C130.967 160.203 130.908 160.415 130.807 160.648C130.713 160.88 130.534 161.133 130.263 161.295C129.998 161.463 129.68 161.562 129.358 161.653C129.036 161.746 128.695 161.833 128.404 162.009C128.106 162.181 127.93 162.478 127.851 162.834C127.761 163.184 127.736 163.563 127.551 163.906C127.458 164.075 127.316 164.224 127.147 164.316C126.979 164.413 126.797 164.455 126.626 164.485C126.283 164.539 125.964 164.541 125.693 164.622C125.425 164.702 125.202 164.854 125.043 165.03C124.715 165.383 124.625 165.783 124.617 166.044C124.613 166.311 124.668 166.456 124.648 166.461C124.641 166.464 124.623 166.429 124.596 166.361C124.57 166.292 124.543 166.185 124.533 166.045C124.516 165.77 124.586 165.335 124.927 164.936C125.094 164.738 125.335 164.558 125.639 164.46C125.941 164.363 126.271 164.356 126.59 164.299C126.91 164.249 127.215 164.106 127.364 163.812C127.521 163.523 127.549 163.157 127.642 162.786C127.689 162.6 127.752 162.412 127.863 162.243C127.975 162.079 128.122 161.934 128.291 161.84C128.624 161.641 128.981 161.56 129.302 161.471C129.625 161.385 129.925 161.296 130.165 161.151C130.411 161.012 130.568 160.806 130.668 160.589C130.772 160.373 130.843 160.161 130.935 159.981C131.026 159.802 131.136 159.66 131.245 159.564C131.47 159.367 131.658 159.375 131.654 159.383Z" fill="#E6E6E6"/>
<path d="M135.476 161.653C135.484 161.671 135.314 161.693 135.128 161.89C135.036 161.987 134.944 162.125 134.867 162.298C134.79 162.472 134.73 162.685 134.63 162.918C134.535 163.149 134.356 163.403 134.085 163.564C133.82 163.733 133.503 163.832 133.18 163.923C132.858 164.016 132.517 164.102 132.226 164.279C131.928 164.45 131.752 164.748 131.673 165.103C131.583 165.454 131.558 165.833 131.373 166.175C131.28 166.344 131.138 166.493 130.97 166.586C130.802 166.683 130.619 166.725 130.448 166.755C130.105 166.809 129.786 166.811 129.515 166.892C129.247 166.971 129.024 167.124 128.865 167.3C128.538 167.653 128.448 168.053 128.439 168.314C128.435 168.58 128.49 168.726 128.47 168.731C128.463 168.733 128.446 168.699 128.419 168.63C128.393 168.562 128.366 168.455 128.356 168.315C128.339 168.039 128.408 167.604 128.75 167.205C128.917 167.007 129.158 166.828 129.462 166.729C129.763 166.633 130.093 166.625 130.413 166.569C130.733 166.519 131.037 166.376 131.187 166.082C131.343 165.794 131.372 165.427 131.464 165.056C131.511 164.87 131.575 164.681 131.685 164.513C131.798 164.348 131.945 164.204 132.113 164.109C132.447 163.911 132.804 163.83 133.125 163.741C133.448 163.655 133.748 163.566 133.988 163.421C134.234 163.281 134.391 163.076 134.491 162.859C134.595 162.643 134.666 162.43 134.758 162.251C134.849 162.072 134.959 161.93 135.068 161.834C135.293 161.637 135.48 161.644 135.476 161.653Z" fill="#E6E6E6"/>
<path d="M133.368 161.273C133.374 161.272 133.39 161.318 133.382 161.409C133.373 161.496 133.333 161.637 133.199 161.761C133.06 161.888 132.851 161.95 132.62 162.029C132.385 162.102 132.116 162.175 131.815 162.246C131.674 162.285 131.489 162.31 131.362 162.36C131.226 162.417 131.108 162.527 131.012 162.661C130.812 162.928 130.749 163.297 130.553 163.665C130.455 163.849 130.298 164.019 130.113 164.145C129.926 164.271 129.714 164.354 129.5 164.424C129.075 164.566 128.616 164.642 128.233 164.857C127.836 165.065 127.681 165.468 127.605 165.88C127.519 166.281 127.463 166.746 127.118 167.053C126.77 167.355 126.327 167.356 125.982 167.399C125.623 167.428 125.313 167.507 125.078 167.681C124.599 168.023 124.442 168.514 124.417 168.825C124.388 169.148 124.469 169.323 124.445 169.328C124.438 169.33 124.419 169.288 124.388 169.205C124.361 169.12 124.33 168.991 124.333 168.821C124.335 168.491 124.473 167.958 124.986 167.565C125.237 167.364 125.601 167.264 125.96 167.229C126.315 167.182 126.716 167.16 126.984 166.914C127.257 166.672 127.317 166.257 127.399 165.84C127.442 165.63 127.495 165.408 127.608 165.196C127.719 164.982 127.908 164.801 128.123 164.68C128.558 164.439 129.024 164.368 129.433 164.233C129.847 164.111 130.203 163.903 130.38 163.575C130.562 163.252 130.636 162.865 130.867 162.562C130.978 162.413 131.122 162.282 131.298 162.213C131.486 162.149 131.627 162.143 131.782 162.104C132.372 161.972 132.883 161.878 133.144 161.701C133.39 161.487 133.345 161.262 133.368 161.273Z" fill="#E6E6E6"/>
<path d="M153.744 148.801C153.102 149.225 153.325 150.267 153.956 150.706C154.587 151.146 155.422 151.166 156.202 151.205C156.981 151.243 157.831 151.348 158.368 151.891C159.024 152.555 159.031 153.704 159.824 154.213C160.515 154.657 161.5 154.399 162.22 154.799C162.798 155.121 163.059 155.782 163.214 156.406C163.368 157.029 163.47 157.694 163.876 158.203C164.282 158.712 165.128 158.97 165.623 158.54C166.203 158.036 165.869 157.134 165.875 156.383C165.889 154.889 167.357 153.852 168.239 152.621C169.534 150.817 169.541 148.248 168.256 146.436C166.971 144.625 164.478 143.689 162.253 144.181C159.07 144.887 156.978 148.053 153.803 148.798" fill="#FF725E"/>
<path d="M157.205 151.325C157.216 151.347 156.951 151.372 156.656 151.673C156.511 151.822 156.367 152.033 156.246 152.299C156.124 152.566 156.03 152.89 155.877 153.239C155.732 153.588 155.466 153.964 155.058 154.205C154.659 154.458 154.177 154.607 153.682 154.745C153.189 154.887 152.662 155.018 152.207 155.295C151.976 155.427 151.788 155.618 151.641 155.836C151.497 156.057 151.407 156.317 151.34 156.587C151.203 157.126 151.163 157.699 150.89 158.207C150.753 158.457 150.545 158.677 150.295 158.816C150.047 158.96 149.773 159.025 149.514 159.07C148.994 159.154 148.502 159.158 148.079 159.287C147.659 159.415 147.315 159.658 147.071 159.932C146.568 160.484 146.439 161.103 146.433 161.504C146.433 161.914 146.524 162.134 146.502 162.139C146.495 162.142 146.472 162.088 146.434 161.983C146.398 161.878 146.361 161.717 146.349 161.505C146.329 161.09 146.437 160.436 146.954 159.838C147.206 159.541 147.568 159.271 148.024 159.125C148.479 158.979 148.983 158.97 149.479 158.883C149.725 158.838 149.974 158.775 150.188 158.647C150.404 158.525 150.58 158.337 150.701 158.113C150.946 157.659 150.99 157.098 151.129 156.539C151.199 156.258 151.295 155.977 151.457 155.728C151.622 155.482 151.839 155.268 152.091 155.125C152.59 154.826 153.134 154.7 153.626 154.563C154.121 154.43 154.586 154.291 154.959 154.062C155.342 153.843 155.585 153.515 155.737 153.18C155.893 152.847 155.999 152.523 156.135 152.251C156.271 151.979 156.433 151.764 156.595 151.616C156.758 151.469 156.917 151.39 157.029 151.356C157.141 151.32 157.204 151.321 157.205 151.325Z" fill="#FF725E"/>
<path d="M163.045 154.793C163.057 154.815 162.792 154.841 162.497 155.142C162.352 155.29 162.207 155.501 162.087 155.767C161.965 156.034 161.871 156.358 161.718 156.708C161.572 157.057 161.307 157.432 160.899 157.674C160.5 157.926 160.017 158.075 159.523 158.213C159.03 158.356 158.502 158.486 158.048 158.763C157.816 158.896 157.629 159.086 157.481 159.304C157.338 159.525 157.248 159.785 157.181 160.055C157.043 160.594 157.004 161.167 156.73 161.675C156.594 161.926 156.386 162.145 156.136 162.284C155.888 162.429 155.614 162.493 155.355 162.538C154.835 162.623 154.343 162.627 153.92 162.756C153.5 162.883 153.156 163.126 152.911 163.4C152.409 163.952 152.279 164.571 152.274 164.972C152.274 165.382 152.365 165.602 152.342 165.608C152.335 165.61 152.312 165.557 152.275 165.452C152.239 165.347 152.201 165.185 152.189 164.973C152.169 164.558 152.278 163.905 152.795 163.306C153.046 163.009 153.409 162.739 153.865 162.593C154.32 162.448 154.823 162.439 155.319 162.352C155.566 162.306 155.815 162.243 156.029 162.116C156.245 161.993 156.421 161.806 156.542 161.582C156.787 161.127 156.83 160.567 156.97 160.007C157.04 159.726 157.136 159.445 157.298 159.196C157.463 158.951 157.68 158.737 157.932 158.593C158.431 158.294 158.975 158.168 159.467 158.031C159.962 157.898 160.427 157.759 160.8 157.53C161.183 157.31 161.426 156.983 161.578 156.648C161.735 156.315 161.84 155.991 161.976 155.718C162.112 155.446 162.274 155.232 162.437 155.084C162.6 154.936 162.758 154.858 162.87 154.823C162.981 154.788 163.045 154.789 163.045 154.793Z" fill="#FF725E"/>
<path d="M159.824 154.213C159.83 154.212 159.851 154.283 159.834 154.418C159.817 154.549 159.755 154.758 159.553 154.942C159.346 155.128 159.025 155.222 158.672 155.339C158.313 155.449 157.9 155.557 157.44 155.664C157.219 155.724 156.948 155.756 156.738 155.837C156.52 155.929 156.333 156.103 156.184 156.312C155.872 156.73 155.773 157.297 155.478 157.846C155.329 158.12 155.097 158.37 154.819 158.558C154.54 158.747 154.219 158.872 153.894 158.978C153.246 159.193 152.541 159.309 151.943 159.647C151.649 159.817 151.404 160.049 151.259 160.334C151.109 160.617 151.028 160.932 150.963 161.246C150.898 161.561 150.843 161.878 150.745 162.185C150.648 162.491 150.486 162.788 150.24 163.006C149.999 163.229 149.684 163.346 149.39 163.41C149.092 163.476 148.803 163.497 148.529 163.528C147.978 163.575 147.489 163.704 147.127 163.978C146.76 164.24 146.515 164.575 146.361 164.89C146.206 165.207 146.142 165.508 146.125 165.753C146.088 166.25 146.22 166.515 146.19 166.521C146.183 166.523 146.157 166.458 146.113 166.331C146.077 166.202 146.033 166.006 146.041 165.75C146.045 165.495 146.099 165.18 146.251 164.844C146.401 164.51 146.649 164.15 147.035 163.863C147.228 163.724 147.449 163.593 147.706 163.516C147.959 163.432 148.231 163.395 148.507 163.359C149.048 163.289 149.675 163.26 150.105 162.868C150.541 162.481 150.63 161.837 150.757 161.207C150.821 160.889 150.903 160.556 151.069 160.241C151.23 159.923 151.511 159.655 151.832 159.472C152.483 159.106 153.196 158.996 153.827 158.788C154.143 158.685 154.447 158.568 154.703 158.397C154.957 158.225 155.162 158.009 155.303 157.757C155.585 157.252 155.695 156.668 156.037 156.216C156.202 155.991 156.414 155.796 156.672 155.692C156.803 155.637 156.937 155.621 157.052 155.596C157.173 155.571 157.29 155.546 157.406 155.523C157.865 155.425 158.279 155.327 158.637 155.229C158.99 155.125 159.309 155.04 159.497 154.883C159.691 154.724 159.762 154.535 159.792 154.411C159.821 154.284 159.815 154.214 159.824 154.213Z" fill="#FF725E"/>
<path d="M290.945 129.998C290.945 129.998 290.825 130.078 290.56 130.157C290.297 130.232 289.881 130.29 289.36 130.209C288.84 130.129 288.226 129.908 287.6 129.523C286.969 129.147 286.33 128.615 285.553 128.145C284.774 127.685 283.805 127.346 282.723 127.296C281.644 127.224 280.484 127.406 279.315 127.733C276.953 128.361 274.658 129.804 271.927 130.628C270.568 131.036 269.14 131.221 267.794 131.01C266.448 130.804 265.251 130.254 264.19 129.662C263.126 129.066 262.168 128.425 261.243 127.877C260.324 127.317 259.419 126.88 258.544 126.596C257.672 126.309 256.846 126.155 256.114 126.127C255.383 126.101 254.75 126.195 254.263 126.353C253.279 126.667 252.872 127.099 252.85 127.063C252.847 127.06 252.874 127.037 252.928 126.994C252.993 126.944 253.073 126.882 253.171 126.806C253.392 126.652 253.742 126.446 254.236 126.278C254.728 126.105 255.372 125.997 256.118 126.012C256.863 126.03 257.706 126.176 258.594 126.458C259.483 126.736 260.412 127.176 261.338 127.731C262.272 128.277 263.233 128.911 264.291 129.498C265.345 130.081 266.521 130.614 267.828 130.811C269.133 131.012 270.523 130.834 271.864 130.431C274.554 129.622 276.86 128.181 279.26 127.551C280.446 127.224 281.629 127.044 282.735 127.125C283.844 127.183 284.844 127.543 285.635 128.022C286.423 128.509 287.05 129.046 287.666 129.426C288.275 129.813 288.87 130.039 289.375 130.129C289.881 130.22 290.287 130.176 290.549 130.116C290.812 130.052 290.94 129.987 290.945 129.998Z" fill="#BBD0DB"/>
<path d="M20.0541 129.915C20.0467 129.915 20.0492 129.815 20.0612 129.622C20.096 129.434 20.1466 129.144 20.3432 128.823C20.7035 128.178 21.6407 127.41 23.0256 127.206C23.7152 127.1 24.4869 127.193 25.2619 127.41C26.0411 127.628 26.8252 127.98 27.6272 128.373C28.4304 128.764 29.2573 129.199 30.1699 129.518C31.0756 129.83 32.0845 130.051 33.0909 129.896C34.1035 129.753 34.9577 129.195 35.6912 128.595C36.4327 127.994 37.1044 127.347 37.8608 126.855C39.393 125.872 41.1188 125.646 42.4764 125.766C43.1627 125.821 43.7727 125.963 44.2844 126.143C44.8019 126.311 45.2153 126.53 45.5466 126.712C46.1956 127.105 46.4842 127.405 46.4842 127.405C46.4663 127.426 46.1574 127.147 45.5035 126.781C45.1697 126.611 44.7575 126.406 44.2446 126.252C43.7378 126.085 43.1366 125.955 42.4632 125.911C41.1308 125.812 39.4506 126.051 37.9731 127.012C37.24 127.494 36.577 128.137 35.8277 128.749C35.452 129.054 35.051 129.35 34.6027 129.596C34.1545 129.84 33.6519 130.02 33.1244 130.1C32.0621 130.262 31.0196 130.029 30.0961 129.707C29.1656 129.379 28.3321 128.935 27.5356 128.541C26.739 128.145 25.969 127.793 25.2101 127.574C24.4542 127.354 23.709 127.257 23.0468 127.35C21.7074 127.529 20.7844 128.253 20.4153 128.863C20.0293 129.487 20.0923 129.925 20.0541 129.915Z" fill="#BBD0DB"/>
<path d="M265.919 136.317C265.919 136.317 265.73 136.387 265.357 136.514C265.169 136.578 264.937 136.657 264.661 136.75C264.374 136.811 264.041 136.883 263.664 136.964C263.477 137.012 263.274 137.036 263.058 137.055C262.842 137.077 262.616 137.1 262.379 137.125C262.142 137.16 261.891 137.149 261.63 137.153C261.369 137.153 261.097 137.16 260.814 137.154C259.683 137.089 258.387 136.914 256.961 136.57C255.538 136.216 253.991 135.713 252.321 135.108C250.65 134.508 248.857 133.801 246.894 133.141C244.935 132.474 242.776 131.921 240.438 131.613C238.103 131.297 235.601 131.193 232.985 131.301C227.742 131.521 222.088 132.608 216.078 133.908C213.069 134.552 209.958 135.235 206.727 135.82C203.496 136.4 200.138 136.882 196.665 137.038C193.192 137.18 189.624 136.988 186.021 136.526C182.416 136.071 178.774 135.378 175.083 134.624C171.392 133.872 167.644 133.068 163.808 132.426C159.974 131.787 156.044 131.303 152.045 131.253C144.036 131.138 136.279 132.308 128.812 133.313C125.074 133.821 121.396 134.297 117.775 134.607C114.156 134.923 110.592 135.048 107.12 134.964C100.173 134.789 93.6185 133.985 87.4989 133.259C81.3784 132.522 75.6726 131.84 70.4349 131.576C65.2002 131.294 60.4431 131.392 56.3031 131.825C55.2656 131.913 54.2733 132.068 53.3146 132.193C52.3584 132.333 51.4453 132.507 50.5683 132.658C49.7 132.85 48.8627 133.012 48.0753 133.206C47.2924 133.415 46.5402 133.593 45.8407 133.8C43.0251 134.592 40.9563 135.518 39.5452 136.109C38.8597 136.442 38.336 136.697 37.9802 136.869C37.6269 137.039 37.4432 137.122 37.4432 137.122C37.4432 137.122 37.6199 137.027 37.9699 136.85C38.3236 136.674 38.8444 136.413 39.5261 136.072C40.9322 135.467 42.9989 134.528 45.8158 133.723C46.5157 133.513 47.2679 133.333 48.0517 133.12C48.8395 132.922 49.6776 132.758 50.5471 132.562C51.4254 132.407 52.3393 132.231 53.2972 132.088C54.2571 131.96 55.2511 131.802 56.2898 131.711C60.4357 131.266 65.201 131.158 70.4428 131.431C75.6884 131.686 81.3996 132.361 87.5209 133.09C93.6414 133.809 100.191 134.606 107.125 134.774C110.59 134.855 114.143 134.729 117.757 134.412C121.371 134.1 125.045 133.623 128.782 133.114C136.248 132.106 144.014 130.933 152.049 131.048C156.062 131.098 160.004 131.584 163.845 132.224C167.688 132.868 171.438 133.674 175.128 134.427C178.816 135.182 182.453 135.876 186.048 136.331C189.642 136.794 193.197 136.988 196.656 136.849C200.116 136.695 203.465 136.218 206.691 135.643C209.918 135.061 213.028 134.382 216.039 133.742C222.052 132.448 227.718 131.367 232.978 131.155C235.603 131.051 238.114 131.161 240.458 131.483C242.804 131.797 244.972 132.358 246.934 133.032C248.9 133.699 250.691 134.411 252.358 135.016C254.024 135.626 255.565 136.133 256.982 136.492C258.402 136.841 259.692 137.022 260.817 137.092C261.098 137.1 261.369 137.094 261.629 137.096C261.889 137.094 262.139 137.107 262.375 137.073C262.611 137.05 262.837 137.029 263.051 137.008C263.266 136.991 263.469 136.969 263.656 136.922C264.033 136.845 264.365 136.777 264.652 136.719C264.929 136.63 265.161 136.555 265.349 136.494C265.725 136.374 265.919 136.317 265.919 136.317Z" fill="#BBD0DB"/>
<path d="M249.053 166.108C249.027 166.132 248.723 165.702 247.943 165.183C247.174 164.662 245.846 164.164 244.144 164.125C243.296 164.102 242.364 164.182 241.386 164.374C240.406 164.558 239.394 164.894 238.341 165.279C237.287 165.662 236.195 166.105 235.031 166.498C233.87 166.887 232.63 167.24 231.316 167.355C230.001 167.489 228.706 167.322 227.505 167.055C226.3 166.786 225.172 166.423 224.095 166.105C223.018 165.785 221.986 165.499 221.002 165.347C220.017 165.202 219.081 165.181 218.237 165.261C217.394 165.345 216.646 165.534 216.026 165.784C215.403 166.029 214.926 166.355 214.569 166.649C213.865 167.257 213.64 167.734 213.611 167.712C213.607 167.711 213.622 167.682 213.654 167.629C213.694 167.566 213.742 167.489 213.802 167.394C213.862 167.288 213.958 167.17 214.077 167.034C214.187 166.891 214.337 166.746 214.513 166.589C214.868 166.282 215.348 165.939 215.979 165.678C216.605 165.413 217.365 165.211 218.221 165.117C219.078 165.026 220.028 165.039 221.031 165.179C222.034 165.327 223.072 165.609 224.154 165.924C225.237 166.238 226.362 166.595 227.554 166.859C228.743 167.12 230.01 167.282 231.297 167.15C232.584 167.038 233.808 166.692 234.963 166.308C236.119 165.921 237.212 165.481 238.272 165.103C239.329 164.721 240.356 164.387 241.352 164.207C242.344 164.02 243.29 163.947 244.15 163.98C245.879 164.038 247.226 164.568 247.993 165.118C248.195 165.244 248.351 165.384 248.487 165.504C248.629 165.618 248.734 165.728 248.813 165.823C248.887 165.907 248.948 165.976 248.997 166.032C249.036 166.08 249.056 166.106 249.053 166.108Z" fill="#BBD0DB"/>
<path d="M106.008 167.942C105.982 167.966 105.678 167.536 104.898 167.017C104.129 166.496 102.801 165.998 101.099 165.959C100.251 165.936 99.3189 166.016 98.3415 166.208C97.3613 166.392 96.3495 166.728 95.2967 167.113C94.2426 167.496 93.1503 167.939 91.9868 168.331C90.8253 168.721 89.5859 169.074 88.2714 169.189C86.956 169.323 85.661 169.156 84.4598 168.889C83.2547 168.62 82.1273 168.257 81.0495 167.939C79.9731 167.619 78.941 167.333 77.9574 167.181C76.9717 167.036 76.0358 167.015 75.1924 167.095C74.3489 167.179 73.6005 167.368 72.9814 167.618C72.3581 167.863 71.8813 168.189 71.5242 168.483C70.8201 169.091 70.595 169.568 70.5655 169.546C70.5622 169.545 70.5771 169.516 70.6091 169.463C70.6489 169.4 70.6974 169.323 70.7567 169.228C70.8172 169.122 70.9134 169.004 71.0316 168.868C71.1411 168.725 71.292 168.581 71.4678 168.423C71.8224 168.116 72.3026 167.773 72.9333 167.512C73.5598 167.247 74.3195 167.045 75.1758 166.951C76.0321 166.86 76.9829 166.873 77.9851 167.013C78.9882 167.161 80.027 167.443 81.1088 167.758C82.1911 168.072 83.3161 168.429 84.5083 168.693C85.6975 168.954 86.9648 169.116 88.2515 168.984C89.539 168.872 90.7627 168.526 91.9171 168.142C93.0732 167.755 94.1667 167.315 95.2266 166.937C96.2836 166.555 97.3107 166.221 98.3067 166.041C99.2986 165.854 100.244 165.781 101.105 165.814C102.834 165.872 104.181 166.402 104.948 166.952C105.15 167.078 105.305 167.218 105.442 167.338C105.584 167.452 105.689 167.562 105.768 167.657C105.842 167.741 105.903 167.81 105.952 167.866C105.992 167.914 106.011 167.939 106.008 167.942Z" fill="#BBD0DB"/>
<path d="M246.944 150.691C246.944 150.691 246.776 150.753 246.445 150.864C246.11 150.976 245.617 151.139 244.973 151.353C243.676 151.776 241.765 152.403 239.28 153.143C236.795 153.881 233.737 154.749 230.118 155.487C226.503 156.206 222.307 156.853 217.638 156.734C215.31 156.675 212.863 156.462 210.382 155.903C207.893 155.386 205.385 154.542 202.859 153.536C200.333 152.525 197.783 151.35 195.13 150.204C192.479 149.057 189.71 147.943 186.753 147.155C186.02 146.936 185.261 146.801 184.506 146.628C184.127 146.549 183.74 146.501 183.357 146.436C182.971 146.379 182.587 146.3 182.195 146.28C181.412 146.223 180.627 146.135 179.834 146.102C179.04 146.104 178.242 146.106 177.439 146.108C174.226 146.233 170.985 146.83 167.753 147.634C161.28 149.235 154.815 151.741 147.82 153.051C146.948 153.22 146.066 153.325 145.193 153.464C144.317 153.58 143.435 153.633 142.561 153.72C141.683 153.769 140.804 153.755 139.931 153.776C139.058 153.755 138.19 153.675 137.324 153.626C133.867 153.298 130.538 152.492 127.34 151.545C120.945 149.629 114.974 147.216 108.986 145.864C108.236 145.71 107.494 145.534 106.75 145.401C106.002 145.284 105.259 145.168 104.521 145.052C103.034 144.907 101.566 144.739 100.113 144.774C97.2045 144.819 94.4126 145.347 91.7732 146.005C89.1326 146.676 86.6268 147.478 84.2317 148.281C81.8374 149.09 79.5397 149.866 77.3461 150.608C72.9519 152.071 68.9156 153.244 65.3042 154.018C63.5033 154.423 61.8053 154.703 60.242 154.949C59.4566 155.049 58.7073 155.161 57.9887 155.238C57.2692 155.306 56.5871 155.391 55.9377 155.434C53.3419 155.654 51.3159 155.628 49.9462 155.623C49.2641 155.597 48.7433 155.577 48.3879 155.563C48.0371 155.549 47.8575 155.536 47.8575 155.536C47.8575 155.536 48.0379 155.535 48.3887 155.542C48.7437 155.551 49.2645 155.564 49.9466 155.581C51.3154 155.573 53.339 155.586 55.9303 155.355C56.5788 155.308 57.2597 155.22 57.9775 155.149C58.6944 155.07 59.4421 154.955 60.2262 154.853C61.7862 154.601 63.4801 154.316 65.2773 153.906C68.8803 153.122 72.9076 151.941 77.296 150.47C79.4875 149.725 81.7839 148.944 84.1765 148.131C86.5721 147.324 89.08 146.517 91.7276 145.84C94.374 145.177 97.1788 144.642 100.11 144.594C101.576 144.557 103.053 144.724 104.547 144.869C105.288 144.984 106.035 145.1 106.787 145.217C107.535 145.35 108.279 145.526 109.032 145.68C115.043 147.033 121.022 149.445 127.403 151.353C130.594 152.297 133.91 153.098 137.346 153.423C138.206 153.471 139.068 153.551 139.936 153.572C140.803 153.551 141.675 153.565 142.547 153.515C143.416 153.429 144.293 153.376 145.164 153.261C146.033 153.122 146.91 153.018 147.778 152.849C154.745 151.546 161.209 149.042 167.699 147.439C170.94 146.634 174.197 146.036 177.43 145.912C178.238 145.91 179.042 145.909 179.841 145.908C180.639 145.941 181.43 146.031 182.218 146.089C182.614 146.109 183 146.189 183.388 146.246C183.775 146.312 184.165 146.36 184.546 146.441C185.305 146.615 186.07 146.752 186.806 146.973C189.779 147.768 192.556 148.888 195.208 150.04C197.863 151.19 200.409 152.368 202.928 153.379C205.447 154.386 207.943 155.23 210.418 155.749C212.886 156.31 215.322 156.526 217.641 156.59C222.292 156.717 226.48 156.082 230.092 155.375C233.708 154.649 236.767 153.793 239.254 153.067C241.742 152.339 243.658 151.724 244.959 151.314C245.606 151.108 246.101 150.952 246.438 150.845C246.772 150.74 246.944 150.691 246.944 150.691Z" fill="#BBD0DB"/>
<path d="M74.1437 113.138V102.35H100.201V79.2656C100.201 79.2656 85.4728 70.4201 60.7753 76.6766L65.76 63.516L169.762 60.064L220.716 92.9924L183.357 120.689L74.1433 119.826L74.1437 113.138Z" fill="#FF725E"/>
<path d="M121.169 91.1665C122.075 91.1665 215.166 89.4052 215.166 89.4052L192.695 74.8835H168.856C168.856 74.8835 142.608 75.1331 133.998 81.5657C124.336 88.7849 121.169 91.1665 121.169 91.1665Z" fill="#263238"/>
<path d="M115.037 61.8802L70.1732 46.7959L53.0828 48.6264L80.4412 63.0283L115.037 61.8802Z" fill="#FF725E"/>
<path d="M80.4412 63.0283L115.126 61.7167L76.1863 60.7888L80.4412 63.0283Z" fill="#E8505B"/>
<g opacity="0.2">
<path d="M80.4412 63.0283L115.126 61.7167L76.1863 60.7888L80.4412 63.0283Z" fill="black"/>
</g>
<path d="M100.201 102.35H106.529V82.6244L100.201 79.2651V102.35Z" fill="#FF725E"/>
<g opacity="0.2">
<path d="M100.201 102.35H106.529V82.6244L100.201 79.2651V102.35Z" fill="black"/>
</g>
<path d="M60.7753 76.6763L62.5836 76.242L68.2625 63.4327L65.76 63.5157" fill="#E8505B"/>
<g opacity="0.2">
<path d="M60.7753 76.6763L62.5836 76.242L68.2625 63.4327L65.76 63.5157" fill="black"/>
</g>
<path d="M173.115 74.8835L161.659 90.4148L166.628 90.3212L178.853 74.8835H173.115Z" fill="#FAFAFA"/>
<path d="M181.035 74.8835L168.812 90.2801L170.256 90.2529L182.332 74.8835H181.035Z" fill="#FAFAFA"/>
<path d="M113.161 110.801C113.071 110.801 112.98 110.782 112.893 110.743C112.584 110.602 112.452 110.249 112.6 109.954L120.483 94.2381C120.551 94.1011 120.673 93.9945 120.822 93.9404C120.985 93.8811 137.417 87.9606 165.21 83.2127C190.847 78.8328 231.693 74.5769 280.686 79.1771C280.893 79.1964 281.076 79.3129 281.173 79.4878C281.271 79.6623 281.271 79.872 281.173 80.0465L273.384 93.8764C273.222 94.1646 272.844 94.2732 272.542 94.1184C272.239 93.964 272.125 93.6048 272.288 93.3165L279.636 80.27C231.199 75.8242 190.828 80.0398 165.43 84.379C139.532 88.8036 123.576 94.2365 121.497 94.9654L113.723 110.465C113.616 110.677 113.394 110.801 113.161 110.801Z" fill="#455A64"/>
<path d="M266.516 78.5841L258.649 95.322L259.027 95.4831L266.894 78.7452L266.516 78.5841Z" fill="#455A64"/>
<path d="M249.221 77.7385L241.355 94.4764L241.733 94.6376L249.6 77.8996L249.221 77.7385Z" fill="#455A64"/>
<path d="M233.03 77.9092L225.163 94.6471L225.541 94.8082L233.408 78.0703L233.03 77.9092Z" fill="#455A64"/>
<path d="M199.966 80.025L192.099 96.7629L192.477 96.9241L200.344 80.1861L199.966 80.025Z" fill="#455A64"/>
<path d="M216.923 77.9593L209.056 94.6973L209.435 94.8584L217.301 78.1205L216.923 77.9593Z" fill="#455A64"/>
<path d="M183.7 81.4957L175.833 98.2336L176.211 98.3948L184.078 81.6568L183.7 81.4957Z" fill="#455A64"/>
<path d="M166.864 83.8016L158.997 100.54L159.375 100.701L167.242 83.9627L166.864 83.8016Z" fill="#455A64"/>
<path d="M149.817 87.6032L141.958 104.343L142.336 104.504L150.195 87.7644L149.817 87.6032Z" fill="#455A64"/>
<path d="M74.4053 131.604C86.9556 132.619 99.4279 135.063 112.018 134.713C126.442 134.313 140.682 130.248 155.085 131.108C168.76 131.925 181.976 137.161 195.673 136.839C212.479 136.444 229.334 127.731 245.42 132.415C247.03 132.884 248.656 133.485 250.285 134.095L277.051 92.952C277.051 92.952 145.358 87.373 105.337 114.612H38.6349L43.598 134.374C53.2556 131.002 64.0589 130.768 74.4053 131.604Z" fill="#FF725E"/>
<g opacity="0.1">
<path d="M74.4053 131.604C86.9556 132.619 99.4279 135.063 112.018 134.713C126.442 134.313 140.682 130.248 155.085 131.108C168.76 131.925 181.976 137.161 195.673 136.839C212.479 136.444 229.334 127.731 245.42 132.415C247.03 132.884 248.656 133.485 250.285 134.095L277.051 92.952C277.051 92.952 145.358 87.373 105.337 114.612H38.6349L43.598 134.374C53.2556 131.002 64.0589 130.768 74.4053 131.604Z" fill="black"/>
</g>
<path d="M196.237 136.813C213.043 136.419 229.898 127.705 245.984 132.39C247.449 132.817 248.927 133.352 250.409 133.905L263.743 113.408C263.743 113.408 218.515 128.781 175.535 134.292C182.393 135.696 189.253 136.977 196.237 136.813Z" fill="#FF725E"/>
<path d="M48.4576 133.067C45.2688 132.847 43.3986 132.732 43.1996 132.787L43.6383 134.533C45.2153 133.961 46.8242 133.476 48.4576 133.067Z" fill="#FF725E"/>
<g opacity="0.3">
<path d="M196.237 136.813C213.043 136.419 229.898 127.705 245.984 132.39C247.449 132.817 248.927 133.352 250.409 133.905L263.743 113.408C263.743 113.408 218.515 128.781 175.535 134.292C182.393 135.696 189.253 136.977 196.237 136.813Z" fill="black"/>
<path d="M48.4576 133.067C45.2688 132.847 43.3986 132.732 43.1996 132.787L43.6383 134.533C45.2153 133.961 46.8242 133.476 48.4576 133.067Z" fill="black"/>
</g>
<path d="M172.577 115.415C176.835 115.415 180.287 112.103 180.287 108.017C180.287 103.932 176.835 100.62 172.577 100.62C168.319 100.62 164.867 103.932 164.867 108.017C164.867 112.103 168.319 115.415 172.577 115.415Z" fill="#263238"/>
<mask id="mask0_4002_2378" style="mask-type:luminance" maskUnits="userSpaceOnUse" x="164" y="100" width="16" height="16">
<path d="M172.09 115.415C176.348 115.415 179.8 112.103 179.8 108.017C179.8 103.932 176.348 100.62 172.09 100.62C167.832 100.62 164.38 103.932 164.38 108.017C164.38 112.103 167.832 115.415 172.09 115.415Z" fill="white"/>
</mask>
<g mask="url(#mask0_4002_2378)">
<path d="M176.886 101.653L166.583 113.926L168.017 115.081L178.396 102.745L176.886 101.653Z" fill="#455A64"/>
<path d="M169.574 115.857L179.251 103.651L179.657 104.202L170.092 116.124L169.574 115.857Z" fill="#455A64"/>
</g>
<path d="M210.122 115.415C214.381 115.415 217.833 112.103 217.833 108.017C217.833 103.932 214.381 100.62 210.122 100.62C205.864 100.62 202.412 103.932 202.412 108.017C202.412 112.103 205.864 115.415 210.122 115.415Z" fill="#263238"/>
<mask id="mask1_4002_2378" style="mask-type:luminance" maskUnits="userSpaceOnUse" x="201" y="100" width="17" height="16">
<path d="M209.636 115.415C213.894 115.415 217.346 112.103 217.346 108.017C217.346 103.932 213.894 100.62 209.636 100.62C205.377 100.62 201.925 103.932 201.925 108.017C201.925 112.103 205.377 115.415 209.636 115.415Z" fill="white"/>
</mask>
<g mask="url(#mask1_4002_2378)">
<path d="M214.432 101.653L204.128 113.926L205.562 115.081L215.941 102.745L214.432 101.653Z" fill="#455A64"/>
<path d="M207.119 115.857L216.796 103.651L217.202 104.202L207.637 116.124L207.119 115.857Z" fill="#455A64"/>
</g>
<mask id="mask2_4002_2378" style="mask-type:luminance" maskUnits="userSpaceOnUse" x="164" y="100" width="16" height="16">
<path d="M172.09 115.415C176.348 115.415 179.8 112.103 179.8 108.017C179.8 103.932 176.348 100.62 172.09 100.62C167.832 100.62 164.38 103.932 164.38 108.017C164.38 112.103 167.832 115.415 172.09 115.415Z" fill="white"/>
</mask>
<g mask="url(#mask2_4002_2378)">
<path d="M176.886 101.653L166.583 113.926L168.017 115.081L178.396 102.745L176.886 101.653Z" fill="#FAFAFA"/>
<path d="M169.574 115.857L179.251 103.651L179.657 104.202L170.092 116.124L169.574 115.857Z" fill="#FAFAFA"/>
</g>
<path d="M244.779 115.415C249.037 115.415 252.489 112.103 252.489 108.017C252.489 103.932 249.037 100.62 244.779 100.62C240.52 100.62 237.068 103.932 237.068 108.017C237.068 112.103 240.52 115.415 244.779 115.415Z" fill="#263238"/>
<mask id="mask3_4002_2378" style="mask-type:luminance" maskUnits="userSpaceOnUse" x="236" y="100" width="17" height="16">
<path d="M244.292 115.415C248.55 115.415 252.002 112.103 252.002 108.017C252.002 103.932 248.55 100.62 244.292 100.62C240.034 100.62 236.582 103.932 236.582 108.017C236.582 112.103 240.034 115.415 244.292 115.415Z" fill="white"/>
</mask>
<g mask="url(#mask3_4002_2378)">
<path d="M249.088 101.653L238.785 113.926L240.218 115.081L250.597 102.745L249.088 101.653Z" fill="#455A64"/>
<path d="M241.775 115.857L251.452 103.651L251.858 104.202L242.293 116.124L241.775 115.857Z" fill="#455A64"/>
</g>
<mask id="mask4_4002_2378" style="mask-type:luminance" maskUnits="userSpaceOnUse" x="236" y="100" width="17" height="16">
<path d="M244.292 115.415C248.55 115.415 252.002 112.103 252.002 108.017C252.002 103.932 248.55 100.62 244.292 100.62C240.034 100.62 236.582 103.932 236.582 108.017C236.582 112.103 240.034 115.415 244.292 115.415Z" fill="white"/>
</mask>
<g mask="url(#mask4_4002_2378)">
<path d="M249.088 101.653L238.785 113.926L240.218 115.081L250.597 102.745L249.088 101.653Z" fill="#FAFAFA"/>
<path d="M241.775 115.857L251.452 103.651L251.858 104.202L242.293 116.124L241.775 115.857Z" fill="#FAFAFA"/>
</g>
<mask id="mask5_4002_2378" style="mask-type:luminance" maskUnits="userSpaceOnUse" x="201" y="100" width="17" height="16">
<path d="M209.636 115.415C213.894 115.415 217.346 112.103 217.346 108.017C217.346 103.932 213.894 100.62 209.636 100.62C205.377 100.62 201.925 103.932 201.925 108.017C201.925 112.103 205.377 115.415 209.636 115.415Z" fill="white"/>
</mask>
<g mask="url(#mask5_4002_2378)">
<path d="M214.432 101.653L204.128 113.926L205.562 115.081L215.941 102.745L214.432 101.653Z" fill="#FAFAFA"/>
<path d="M207.119 115.857L216.796 103.651L217.202 104.202L207.637 116.124L207.119 115.857Z" fill="#FAFAFA"/>
</g>
<path d="M100.233 126.918C100.233 128.054 90.8714 128.975 79.3258 128.975C67.7761 128.975 58.4163 128.054 58.4163 126.918C58.4163 125.783 67.7761 124.862 79.3258 124.862C90.8714 124.862 100.233 125.783 100.233 126.918Z" fill="#FF725E"/>
<g opacity="0.2">
<path d="M100.233 126.918C100.233 128.054 90.8714 128.975 79.3258 128.975C67.7761 128.975 58.4163 128.054 58.4163 126.918C58.4163 125.783 67.7761 124.862 79.3258 124.862C90.8714 124.862 100.233 125.783 100.233 126.918Z" fill="black"/>
</g>
<path d="M201.608 40.0057C202.446 36.6478 200.267 33.2785 196.74 32.4801C193.214 31.6818 189.675 33.7568 188.837 37.1147C187.998 40.4727 190.177 43.842 193.704 44.6403C197.231 45.4386 200.769 43.3637 201.608 40.0057Z" fill="#FF725E"/>
<path d="M195.672 53.5365C195.553 53.5365 195.456 51.8016 195.456 49.6624C195.456 47.522 195.553 45.7878 195.672 45.7878C195.791 45.7878 195.888 47.5223 195.888 49.6624C195.888 51.8016 195.791 53.5365 195.672 53.5365Z" fill="#FF725E"/>
<path d="M211.167 37.4675C211.167 37.5813 209.495 37.6733 207.433 37.6733C205.37 37.6733 203.698 37.5813 203.698 37.4675C203.698 37.3542 205.37 37.2618 207.433 37.2618C209.495 37.2618 211.167 37.3538 211.167 37.4675Z" fill="#FF725E"/>
<path d="M194.669 24.6235C194.788 24.6235 194.885 26.073 194.885 27.8608C194.885 29.649 194.788 31.0984 194.669 31.0984C194.549 31.0984 194.453 29.649 194.453 27.8608C194.453 26.0734 194.549 24.6235 194.669 24.6235Z" fill="#FF725E"/>
<path d="M185.973 38.9538C185.973 39.0675 184.351 39.1595 182.35 39.1595C180.349 39.1595 178.727 39.0675 178.727 38.9538C178.727 38.8404 180.348 38.748 182.35 38.748C184.351 38.748 185.973 38.84 185.973 38.9538Z" fill="#FF725E"/>
<path d="M189.429 44.1549C189.513 44.2351 188.708 45.1321 187.631 46.1579C186.553 47.1841 185.611 47.9505 185.527 47.8703C185.443 47.7902 186.248 46.8935 187.326 45.8673C188.403 44.8411 189.345 44.0748 189.429 44.1549Z" fill="#FF725E"/>
<path d="M205.928 47.5517C205.844 47.6318 204.877 46.8418 203.769 45.7864C202.66 44.731 201.831 43.8106 201.915 43.7301C201.999 43.6499 202.965 44.44 204.074 45.4954C205.182 46.5508 206.012 47.4711 205.928 47.5517Z" fill="#FF725E"/>
<path d="M205.148 28.7634C205.232 28.8435 204.502 29.6691 203.517 30.6072C202.532 31.5454 201.665 32.2407 201.58 32.1601C201.496 32.08 202.226 31.2544 203.211 30.3163C204.196 29.3785 205.063 28.6832 205.148 28.7634Z" fill="#FF725E"/>
<path d="M189.094 33.2221C189.01 33.3022 188.293 32.7495 187.493 31.9874C186.692 31.225 186.112 30.5423 186.196 30.4622C186.28 30.382 186.998 30.9344 187.798 31.6968C188.598 32.4585 189.179 33.1415 189.094 33.2221Z" fill="#FF725E"/>
<path d="M148.519 33.2088C148.103 33.1709 147.829 35.3144 147.607 34.8213C147.385 34.3281 148.262 32.2367 147.826 32.2142C147.258 32.1846 147.014 34.434 146.979 34.6227C146.945 34.8059 146.656 34.7692 146.697 34.6006C146.757 34.3578 147.318 31.7929 146.76 31.7586C146.45 31.7396 146.466 32.2718 146.466 32.2718C146.466 32.2718 146.127 34.7084 145.864 34.6839C145.597 34.659 145.746 33.2222 145.832 32.7409C145.917 32.2655 145.714 32.0338 145.461 32.1727C145.289 32.2675 144.989 33.7355 144.916 34.2128C144.842 34.6906 144.665 36.0042 144.199 35.2892C143.733 34.5741 143.092 34.1915 142.843 34.203C142.594 34.2144 142.52 34.5488 142.749 34.693C142.934 34.8094 143.179 35.0945 143.354 35.316C143.498 35.4988 143.61 35.7026 143.682 35.9205C143.789 36.2474 143.861 36.5207 143.91 36.7347C143.434 37.4284 138.213 44.6874 132.493 38.0183C129.817 34.8991 127.804 34.6985 126.879 34.8351L126.865 34.8079L125.445 35.0388L121.314 36.4113C121.314 36.4113 120.378 36.7019 119.521 37.1662L119.521 37.1654C119.521 37.1654 115.811 38.1707 116.522 44.6772C117.147 50.3999 116.555 59.0022 116.404 60.9913C115.697 61.4059 114.68 61.7988 113.306 61.8592C113.306 61.8592 112.82 62.3827 113.621 62.3357C114.421 62.2888 118.166 62.4739 118.826 61.7151C118.826 61.7151 121.309 62.1091 122.415 61.6843C122.415 61.6843 120.806 61.6436 120.498 61.2571C120.468 61.2191 120.443 61.1674 120.422 61.1098L120.821 44.1465L130.005 41.5864C131.706 43.4449 134.058 44.9306 137.197 44.7648C144.619 44.3731 147.002 38.1659 147.29 37.3297C147.735 36.3359 148.255 35.1218 148.442 34.4628C148.787 33.2538 148.673 33.223 148.519 33.2088Z" fill="#B78876"/>
<path d="M125.927 31.8055C127.189 31.0466 128.166 29.8669 128.646 28.5209C128.354 28.5845 128.055 28.6484 127.757 28.6168C127.459 28.5856 127.158 28.4403 127.025 28.1845C126.892 27.9255 126.955 27.6195 126.978 27.3316C127.001 27.0438 126.951 26.7054 126.69 26.5586C126.371 26.3785 125.955 26.6004 125.595 26.5167C125.01 26.3809 124.942 25.6169 124.563 25.1727C124.264 24.8225 123.758 24.6827 123.284 24.7052C122.811 24.7277 122.358 24.8896 121.915 25.0495L125.927 31.8055Z" fill="#263238"/>
<path d="M118.683 24.2231C116.633 25.0483 116.768 26.7126 116.182 27.7348C116.005 28.042 115.823 28.3835 115.9 28.7258C115.992 29.1392 116.429 29.4073 116.579 29.8045C116.933 30.7379 115.571 31.6701 115.89 32.6146C116.037 33.0497 116.494 33.3067 116.815 33.6459C117.137 33.985 117.28 34.6085 116.866 34.8391L120.808 34.2606C120.808 34.2606 119.261 24.8715 118.51 24.9386" fill="#263238"/>
<path d="M120.793 44.1549L122.667 47.9875L125.416 55.3409C128.756 55.4993 134.432 53.4978 138.442 52.2821L132.319 47.1939L131.427 43.5796C131.427 43.5796 132.113 42.052 131.414 40.5488C130.802 39.2309 129.57 39.1444 129.57 39.1444C129.439 39.161 126.957 39.9969 127.364 42.2202C127.364 42.2202 125.691 40.8367 123.831 41.7677C121.985 42.6912 120.793 44.1549 120.793 44.1549Z" fill="#FF725E"/>
<path d="M125.766 34.9721C125.508 34.5852 124.915 32.7634 124.915 32.7634C124.915 32.7634 126.519 31.9248 125.924 30.2988C125.328 28.6729 123.618 25.0586 123.618 25.0586L119.934 24.8549L118.012 28.468L121.635 36.3449L125.766 34.9721Z" fill="#B78876"/>
<path d="M124.225 27.859C124.274 27.9711 124.219 28.0998 124.101 28.1468C123.983 28.1938 123.848 28.1409 123.799 28.0287C123.749 27.9166 123.805 27.7879 123.923 27.7409C124.041 27.6939 124.176 27.7468 124.225 27.859Z" fill="#263238"/>
<path d="M124.565 27.5524C124.549 27.5895 124.336 27.5252 124.101 27.6049C123.865 27.6815 123.74 27.8584 123.704 27.8387C123.686 27.8304 123.693 27.7708 123.747 27.6914C123.8 27.6128 123.905 27.5185 124.052 27.4695C124.198 27.421 124.342 27.4324 124.435 27.4628C124.529 27.4932 124.573 27.5359 124.565 27.5524Z" fill="#263238"/>
<path d="M121.804 28.8431C121.853 28.9552 121.798 29.0839 121.68 29.1309C121.562 29.1779 121.427 29.125 121.378 29.0129C121.328 28.9007 121.384 28.772 121.501 28.725C121.619 28.678 121.754 28.731 121.804 28.8431Z" fill="#263238"/>
<path d="M122.022 28.5671C122.006 28.6042 121.793 28.5395 121.558 28.6192C121.322 28.6958 121.197 28.8727 121.161 28.853C121.144 28.8447 121.151 28.7851 121.204 28.7057C121.257 28.6271 121.362 28.5328 121.509 28.4838C121.655 28.4352 121.8 28.4467 121.892 28.4771C121.986 28.5075 122.03 28.5501 122.022 28.5671Z" fill="#263238"/>
<path d="M123.661 30.0816C123.655 30.069 123.791 29.9947 124.016 29.885C124.074 29.8585 124.125 29.8277 124.12 29.7839C124.117 29.7365 124.066 29.6812 124.01 29.6224C123.881 29.4814 123.769 29.359 123.653 29.2323C123.151 28.6752 122.763 28.2093 122.786 28.1907C122.808 28.1726 123.233 28.6089 123.734 29.166C123.848 29.2943 123.958 29.4179 124.085 29.5612C124.134 29.6208 124.204 29.6836 124.208 29.7823C124.205 29.894 124.097 29.9308 124.048 29.9501C123.815 30.0433 123.668 30.0942 123.661 30.0816Z" fill="#263238"/>
<path d="M122.96 30.5927C122.936 30.5812 123.796 30.6985 124.264 30.5117C124.264 30.5117 124.149 31.0222 123.594 31.0207C123.018 31.0191 122.96 30.5927 122.96 30.5927Z" fill="white"/>
<path d="M124.915 32.7634C124.915 32.7634 123.799 33.2226 122.397 32.934C122.397 32.934 123.409 33.8986 125.05 33.1669L124.915 32.7634Z" fill="#A36957"/>
<path d="M118.692 29.9132C118.492 29.9219 118.287 29.9314 118.101 30.0044C117.916 30.0775 117.752 30.2279 117.724 30.417C117.704 30.5576 117.763 30.7005 117.854 30.813C118.001 30.9943 118.236 31.1072 118.476 31.1127C118.716 31.1178 118.956 31.0152 119.112 30.8407" fill="#B78876"/>
<path d="M125.26 53.9033C125.26 53.9033 125.381 62.2584 132.699 62.0641L132.552 53.1847L125.26 53.9033Z" fill="#FF725E"/>
<path d="M175.72 51.9511C175.478 51.24 174.831 53.6106 174.588 54.5614C171.683 54.221 163.327 53.3536 155.566 53.6201C147.417 53.9 141.819 54.3624 138.183 55.6108L133.403 62.0229L155.213 58.6637L175.615 59.0814C175.615 59.0814 176.019 52.834 175.72 51.9511Z" fill="#B78876"/>
<path d="M141.289 54.8123L138.607 61.2552L134.448 61.9213L141.289 54.8123Z" fill="#A36957"/>
<path d="M160.058 58.8301L157.192 58.7713L152.774 53.7063L155.566 53.6199L160.058 58.8301Z" fill="#A36957"/>
<path d="M124.778 25.8704C124.7 25.9249 122.714 26.7916 122.714 26.7916L121.925 25.6379L122.383 27.0111L119.241 28.3994L119.625 32.6415L117.106 28.1396C117.106 28.1396 116.75 23.9914 120.252 23.736C123.753 23.4801 124.778 25.8704 124.778 25.8704Z" fill="#263238"/>
<path d="M124.256 44.2547C124.261 44.2515 124.303 44.2891 124.36 44.3704C124.417 44.4513 124.491 44.5769 124.546 44.7455C124.602 44.9133 124.639 45.1249 124.619 45.3598C124.608 45.4767 124.591 45.5987 124.536 45.7239C124.483 45.8459 124.357 45.973 124.183 45.973C124 45.9683 123.897 45.8131 123.856 45.6947C123.812 45.5667 123.803 45.4443 123.799 45.3263C123.798 45.0902 123.853 44.8813 123.926 44.7194C123.998 44.556 124.087 44.4395 124.153 44.3653C124.22 44.2906 124.267 44.2583 124.271 44.2622C124.287 44.274 124.12 44.4276 123.996 44.7463C123.935 44.9042 123.891 45.1036 123.898 45.3247C123.902 45.4341 123.915 45.5537 123.955 45.6615C123.993 45.7689 124.074 45.8712 124.184 45.8715C124.433 45.8609 124.5 45.5577 124.521 45.3516C124.545 45.1308 124.517 44.9287 124.473 44.7656C124.383 44.4367 124.238 44.2646 124.256 44.2547Z" fill="white"/>
<path d="M124.204 44.2551C124.198 44.2543 124.196 44.1999 124.217 44.1035C124.237 44.0076 124.277 43.8694 124.364 43.7126C124.449 43.5563 124.579 43.3814 124.767 43.2286C124.862 43.1535 124.964 43.0785 125.096 43.0272C125.224 42.9763 125.408 42.9711 125.531 43.0884C125.657 43.2151 125.615 43.3944 125.555 43.5053C125.492 43.6258 125.408 43.7186 125.322 43.8042C125.148 43.972 124.954 44.083 124.782 44.1481C124.61 44.2153 124.46 44.2378 124.358 44.246C124.255 44.2539 124.199 44.2453 124.199 44.2401C124.196 44.2204 124.428 44.2243 124.752 44.0822C124.912 44.0115 125.091 43.9002 125.251 43.7395C125.328 43.6589 125.408 43.5654 125.46 43.4627C125.513 43.3608 125.532 43.2341 125.454 43.1595C125.27 42.9996 124.998 43.1693 124.83 43.3012C124.649 43.4414 124.519 43.6029 124.429 43.7482C124.25 44.0411 124.224 44.2599 124.204 44.2551Z" fill="white"/>
<path d="M124.218 44.2504C124.214 44.2551 124.162 44.2334 124.079 44.1758C123.996 44.1181 123.881 44.0249 123.768 43.8844C123.655 43.745 123.543 43.5586 123.477 43.3316C123.446 43.2179 123.418 43.0982 123.424 42.9624C123.429 42.8305 123.501 42.6699 123.665 42.6126C123.839 42.5569 123.992 42.6691 124.073 42.767C124.161 42.8724 124.214 42.9841 124.26 43.0939C124.346 43.315 124.37 43.5294 124.36 43.7051C124.352 43.882 124.31 44.0206 124.274 44.1126C124.239 44.2046 124.206 44.25 124.201 44.248C124.182 44.2421 124.283 44.0431 124.284 43.7035C124.284 43.5353 124.254 43.3336 124.167 43.1279C124.123 43.0272 124.068 42.9186 123.992 42.8305C123.917 42.7425 123.804 42.6726 123.701 42.7085C123.471 42.8001 123.518 43.1065 123.573 43.3067C123.63 43.5219 123.729 43.7023 123.829 43.8413C124.033 44.1209 124.23 44.235 124.218 44.2504Z" fill="white"/>
<path d="M124.2 44.2935C124.203 44.2982 124.161 44.3349 124.071 44.3839C123.982 44.4324 123.846 44.494 123.665 44.5351C123.486 44.5766 123.261 44.5975 123.017 44.5627C122.895 44.5434 122.768 44.5197 122.641 44.4585C122.517 44.4001 122.392 44.2717 122.404 44.1063C122.422 43.9326 122.591 43.8449 122.718 43.8149C122.855 43.7814 122.984 43.781 123.108 43.7861C123.355 43.8007 123.57 43.8678 123.735 43.9484C123.901 44.0277 124.017 44.1209 124.091 44.1888C124.165 44.2575 124.195 44.3037 124.191 44.3073C124.177 44.3223 124.028 44.1529 123.703 44.0135C123.541 43.9448 123.336 43.8888 123.103 43.8801C122.989 43.8773 122.862 43.8812 122.747 43.9113C122.631 43.9405 122.519 44.0104 122.511 44.115C122.505 44.3523 122.818 44.4364 123.033 44.4699C123.263 44.5079 123.476 44.4956 123.65 44.4648C124.001 44.4012 124.191 44.2761 124.2 44.2935Z" fill="white"/>
<path d="M124.163 44.3143C124.16 44.3088 124.21 44.2776 124.308 44.2381C124.407 44.1998 124.556 44.154 124.747 44.1343C124.938 44.1141 125.172 44.1208 125.419 44.188C125.541 44.2207 125.674 44.2673 125.787 44.3605C125.897 44.4513 125.985 44.6006 125.952 44.7624C125.867 45.0925 125.467 45.1731 125.23 45.0838C124.978 45.0037 124.803 44.8572 124.658 44.7411C124.515 44.6211 124.411 44.5133 124.342 44.4371C124.273 44.3605 124.239 44.3147 124.244 44.31C124.257 44.2981 124.417 44.4624 124.707 44.6858C124.854 44.7924 125.033 44.9283 125.259 44.9938C125.472 45.0704 125.787 44.982 125.848 44.7431C125.889 44.4959 125.614 44.3309 125.391 44.2784C125.16 44.2105 124.938 44.1962 124.754 44.2065C124.383 44.2282 124.17 44.3321 124.163 44.3143Z" fill="white"/>
<path d="M128.154 48.1829C128.159 48.1798 128.2 48.2173 128.258 48.2986C128.315 48.3796 128.389 48.5051 128.444 48.6737C128.499 48.8415 128.537 49.0531 128.517 49.2881C128.506 49.4049 128.489 49.5269 128.434 49.6521C128.381 49.7741 128.255 49.9012 128.081 49.9012C127.898 49.8965 127.795 49.7413 127.754 49.6225C127.709 49.4946 127.7 49.3722 127.697 49.2541C127.695 49.018 127.751 48.8091 127.824 48.6472C127.896 48.4838 127.985 48.3673 128.051 48.2927C128.118 48.2181 128.165 48.1857 128.169 48.1896C128.185 48.2015 128.018 48.3551 127.894 48.6737C127.833 48.8316 127.789 49.031 127.795 49.2521C127.8 49.3611 127.813 49.4811 127.853 49.5889C127.891 49.6963 127.972 49.7986 128.082 49.799C128.331 49.7883 128.398 49.4851 128.419 49.279C128.443 49.0583 128.415 48.8561 128.371 48.693C128.28 48.3649 128.136 48.1932 128.154 48.1829Z" fill="white"/>
<path d="M128.102 48.1836C128.096 48.1828 128.094 48.1283 128.114 48.032C128.134 47.936 128.175 47.7978 128.261 47.6411C128.346 47.4847 128.477 47.3098 128.665 47.157C128.76 47.082 128.862 47.007 128.994 46.9557C129.122 46.9047 129.306 46.8996 129.429 47.0169C129.555 47.1436 129.513 47.3229 129.454 47.4338C129.39 47.5542 129.306 47.647 129.221 47.7327C129.046 47.9005 128.852 48.0111 128.68 48.0766C128.508 48.1437 128.358 48.1662 128.256 48.1745C128.154 48.1824 128.097 48.1737 128.097 48.1686C128.094 48.1489 128.326 48.1528 128.65 48.0107C128.81 47.94 128.99 47.8286 129.149 47.6679C129.227 47.5874 129.307 47.4938 129.359 47.3912C129.411 47.2893 129.43 47.1626 129.352 47.0879C129.168 46.928 128.896 47.0978 128.728 47.2297C128.548 47.3698 128.417 47.5313 128.327 47.6766C128.147 47.9696 128.122 48.1883 128.102 48.1836Z" fill="white"/>
<path d="M128.115 48.1785C128.112 48.1832 128.06 48.1615 127.977 48.1039C127.894 48.0462 127.779 47.953 127.666 47.8125C127.553 47.6731 127.441 47.4867 127.375 47.2597C127.344 47.146 127.315 47.0263 127.321 46.8905C127.327 46.7586 127.399 46.598 127.563 46.5407C127.736 46.485 127.889 46.5972 127.97 46.6951C128.058 46.8005 128.111 46.9122 128.157 47.022C128.244 47.2431 128.267 47.4575 128.257 47.6332C128.249 47.8101 128.207 47.9487 128.172 48.0407C128.136 48.1327 128.104 48.1781 128.099 48.1761C128.079 48.1702 128.18 47.9712 128.181 47.6316C128.181 47.4634 128.151 47.2617 128.065 47.056C128.021 46.9553 127.965 46.8467 127.889 46.7586C127.814 46.6706 127.701 46.6011 127.598 46.637C127.368 46.7286 127.415 47.035 127.47 47.2352C127.527 47.4504 127.626 47.6312 127.727 47.7698C127.931 48.0494 128.128 48.1635 128.115 48.1785Z" fill="white"/>
<path d="M128.098 48.2221C128.101 48.2268 128.059 48.2635 127.969 48.3125C127.88 48.361 127.744 48.4226 127.563 48.4637C127.384 48.5051 127.159 48.5265 126.915 48.4913C126.793 48.472 126.666 48.4483 126.539 48.3871C126.415 48.3287 126.29 48.2003 126.302 48.0349C126.32 47.8612 126.489 47.7735 126.616 47.7435C126.753 47.7099 126.882 47.7096 127.006 47.7147C127.253 47.7293 127.468 47.7964 127.633 47.877C127.799 47.9563 127.915 48.0495 127.989 48.1174C128.062 48.1861 128.093 48.2327 128.089 48.2359C128.075 48.2509 127.926 48.0815 127.601 47.9421C127.439 47.8734 127.234 47.8173 127.001 47.8087C126.886 47.8059 126.76 47.8098 126.644 47.8402C126.529 47.8695 126.416 47.9393 126.408 48.044C126.403 48.2813 126.716 48.3654 126.93 48.3989C127.16 48.4368 127.373 48.4246 127.547 48.3938C127.899 48.3298 128.089 48.2047 128.098 48.2221Z" fill="white"/>
<path d="M128.061 48.2424C128.058 48.2369 128.108 48.2057 128.206 48.1658C128.305 48.1275 128.454 48.0817 128.646 48.062C128.836 48.0419 129.07 48.0486 129.317 48.1157C129.439 48.1485 129.572 48.1951 129.685 48.2882C129.795 48.379 129.883 48.5283 129.851 48.6902C129.765 49.0203 129.365 49.1008 129.128 49.0116C128.876 48.9314 128.701 48.7849 128.556 48.6692C128.413 48.5492 128.31 48.4414 128.24 48.3652C128.171 48.2886 128.137 48.2428 128.143 48.2381C128.155 48.2262 128.315 48.3905 128.605 48.614C128.752 48.7206 128.931 48.8564 129.157 48.9219C129.37 48.9985 129.686 48.9101 129.746 48.6712C129.786 48.4241 129.512 48.259 129.29 48.2065C129.058 48.1386 128.836 48.1244 128.652 48.1346C128.281 48.1568 128.067 48.2606 128.061 48.2424Z" fill="white"/>
<path d="M133.096 50.8863C133.1 50.8828 133.142 50.9207 133.2 51.002C133.257 51.083 133.331 51.2085 133.386 51.3771C133.441 51.5449 133.479 51.7566 133.459 51.9915C133.448 52.1083 133.431 52.2304 133.376 52.3555C133.323 52.4775 133.197 52.6047 133.023 52.6047C132.84 52.5999 132.736 52.4447 132.696 52.3263C132.651 52.1984 132.642 52.076 132.639 51.9579C132.637 51.7222 132.693 51.5129 132.766 51.3511C132.838 51.1876 132.927 51.0711 132.993 50.9965C133.06 50.9219 133.107 50.8895 133.11 50.8934C133.127 50.9053 132.96 51.0589 132.836 51.3775C132.775 51.5354 132.731 51.7348 132.737 51.9559C132.742 52.0653 132.755 52.1849 132.794 52.2927C132.833 52.4001 132.914 52.5024 133.024 52.5028C133.273 52.4921 133.34 52.1889 133.36 51.9828C133.385 51.7621 133.357 51.5599 133.313 51.3969C133.222 51.0684 133.079 50.8966 133.096 50.8863Z" fill="white"/>
<path d="M133.044 50.8872C133.038 50.8864 133.037 50.8319 133.057 50.7356C133.077 50.6396 133.117 50.5015 133.203 50.3447C133.288 50.1884 133.419 50.0134 133.607 49.8606C133.703 49.7856 133.805 49.7106 133.937 49.6593C134.065 49.6083 134.248 49.6032 134.372 49.7205C134.498 49.8472 134.456 50.0265 134.396 50.1374C134.333 50.2578 134.248 50.3506 134.163 50.4363C133.989 50.6045 133.795 50.7151 133.623 50.7802C133.451 50.8477 133.301 50.8698 133.199 50.8781C133.096 50.886 133.039 50.8773 133.039 50.8722C133.036 50.8529 133.269 50.8564 133.592 50.7143C133.753 50.6436 133.932 50.5323 134.092 50.3712C134.169 50.2906 134.249 50.197 134.301 50.0944C134.353 49.9925 134.372 49.8658 134.294 49.7911C134.11 49.6312 133.838 49.801 133.671 49.9329C133.49 50.0731 133.359 50.2345 133.27 50.3798C133.09 50.6732 133.064 50.8919 133.044 50.8872Z" fill="white"/>
<path d="M133.058 50.882C133.054 50.8867 133.002 50.865 132.919 50.8074C132.836 50.7497 132.721 50.6565 132.608 50.516C132.495 50.3766 132.383 50.1902 132.318 49.9632C132.286 49.8495 132.258 49.7299 132.264 49.594C132.269 49.4622 132.342 49.3015 132.505 49.2442C132.679 49.1886 132.832 49.3003 132.913 49.3986C133.001 49.504 133.054 49.6158 133.1 49.7255C133.186 49.9466 133.21 50.161 133.2 50.3367C133.192 50.5136 133.15 50.6522 133.115 50.7438C133.079 50.8358 133.047 50.8812 133.042 50.8792C133.022 50.8733 133.123 50.6747 133.124 50.3348C133.124 50.1666 133.094 49.9648 133.008 49.7595C132.963 49.6588 132.908 49.5502 132.832 49.4622C132.757 49.3741 132.644 49.3046 132.541 49.3402C132.311 49.4318 132.358 49.7382 132.413 49.9383C132.47 50.1535 132.569 50.3344 132.67 50.4729C132.873 50.7529 133.071 50.867 133.058 50.882Z" fill="white"/>
<path d="M133.04 50.9253C133.043 50.9301 133.001 50.9668 132.912 51.0157C132.823 51.0643 132.686 51.1259 132.506 51.167C132.326 51.2084 132.102 51.2293 131.857 51.1946C131.735 51.1753 131.609 51.1516 131.481 51.0904C131.357 51.0319 131.233 50.9036 131.244 50.7378C131.262 50.564 131.431 50.4764 131.558 50.4464C131.696 50.4128 131.824 50.4124 131.948 50.4176C132.195 50.4322 132.411 50.4993 132.575 50.5798C132.742 50.6592 132.858 50.7524 132.931 50.8203C133.005 50.8886 133.035 50.9352 133.031 50.9387C133.017 50.9538 132.868 50.7844 132.543 50.645C132.382 50.5763 132.176 50.5202 131.944 50.5115C131.829 50.5088 131.702 50.5127 131.587 50.5427C131.471 50.5719 131.359 50.6418 131.351 50.7465C131.345 50.9838 131.658 51.0679 131.873 51.1014C132.103 51.1393 132.316 51.1271 132.49 51.0963C132.841 51.0327 133.031 50.908 133.04 50.9253Z" fill="white"/>
<path d="M133.003 50.9459C133 50.9404 133.05 50.9092 133.148 50.8697C133.247 50.8314 133.396 50.7856 133.588 50.7658C133.778 50.7457 134.012 50.7524 134.259 50.8195C134.381 50.8523 134.514 50.8989 134.627 50.9921C134.737 51.0829 134.826 51.2321 134.793 51.394C134.707 51.7241 134.308 51.8047 134.071 51.7154C133.819 51.6353 133.643 51.4888 133.499 51.3731C133.356 51.2531 133.252 51.1453 133.183 51.0691C133.114 50.9925 133.08 50.9467 133.085 50.9419C133.098 50.9301 133.257 51.0944 133.548 51.3178C133.694 51.4244 133.873 51.5603 134.099 51.6258C134.313 51.7028 134.628 51.6143 134.688 51.3751C134.729 51.1279 134.455 50.9629 134.232 50.9104C134 50.8424 133.778 50.8282 133.595 50.8385C133.224 50.8602 133.01 50.9641 133.003 50.9459Z" fill="white"/>
<path d="M127.992 53.8893C127.997 53.8862 128.039 53.9237 128.096 54.005C128.153 54.086 128.227 54.2115 128.282 54.3801C128.338 54.5479 128.375 54.7596 128.355 54.9945C128.344 55.1114 128.327 55.2334 128.272 55.3585C128.219 55.4805 128.093 55.6077 127.919 55.6081C127.736 55.6033 127.633 55.4482 127.592 55.3293C127.548 55.2014 127.539 55.079 127.535 54.9609C127.534 54.7252 127.589 54.5159 127.662 54.3541C127.734 54.1906 127.823 54.0741 127.889 53.9995C127.956 53.9249 128.003 53.8929 128.007 53.8965C128.023 53.9083 127.856 54.0619 127.732 54.3805C127.671 54.5385 127.627 54.7378 127.633 54.959C127.638 55.0679 127.651 55.188 127.691 55.2957C127.729 55.4031 127.81 55.5054 127.92 55.5058C128.169 55.4951 128.236 55.1919 128.257 54.9858C128.281 54.7651 128.253 54.5629 128.209 54.3999C128.119 54.0714 127.974 53.8992 127.992 53.8893Z" fill="white"/>
<path d="M127.94 53.8899C127.934 53.8891 127.933 53.8346 127.952 53.7383C127.972 53.6423 128.013 53.5041 128.099 53.3474C128.184 53.191 128.315 53.0161 128.503 52.8633C128.598 52.7883 128.7 52.7133 128.832 52.662C128.96 52.611 129.144 52.6059 129.267 52.7232C129.393 52.8499 129.351 53.0292 129.291 53.1401C129.228 53.2605 129.144 53.3533 129.058 53.439C128.885 53.6068 128.69 53.7174 128.518 53.7829C128.346 53.85 128.196 53.8725 128.094 53.8808C127.991 53.8887 127.935 53.88 127.935 53.8749C127.932 53.8555 128.164 53.8591 128.488 53.717C128.648 53.6463 128.827 53.5349 128.987 53.3738C129.065 53.2933 129.145 53.1997 129.196 53.0971C129.249 52.9952 129.267 52.8685 129.19 52.7938C129.006 52.6339 128.734 52.8037 128.566 52.9356C128.385 53.0758 128.255 53.2372 128.165 53.3825C127.986 53.6759 127.96 53.8946 127.94 53.8899Z" fill="white"/>
<path d="M127.954 53.8851C127.95 53.8898 127.898 53.8681 127.815 53.8104C127.732 53.7532 127.617 53.6596 127.504 53.519C127.391 53.3797 127.279 53.1933 127.214 52.9663C127.182 52.8526 127.154 52.7329 127.16 52.5971C127.165 52.4652 127.238 52.3045 127.401 52.2473C127.575 52.1916 127.728 52.3033 127.809 52.4017C127.897 52.5071 127.95 52.6188 127.996 52.7286C128.082 52.9497 128.106 53.1641 128.096 53.3398C128.088 53.5167 128.046 53.6553 128.011 53.7473C127.975 53.8393 127.943 53.8847 127.938 53.8827C127.918 53.8768 128.019 53.6778 128.02 53.3382C128.02 53.17 127.99 52.9682 127.904 52.7625C127.859 52.6619 127.804 52.5533 127.728 52.4652C127.653 52.3768 127.54 52.3073 127.437 52.3432C127.207 52.4348 127.254 52.7412 127.309 52.9414C127.366 53.1566 127.465 53.3374 127.566 53.476C127.769 53.7555 127.967 53.8697 127.954 53.8851Z" fill="white"/>
<path d="M127.936 53.928C127.939 53.9327 127.897 53.9695 127.807 54.0184C127.719 54.067 127.582 54.1286 127.401 54.1696C127.222 54.2111 126.998 54.232 126.753 54.1973C126.631 54.1779 126.505 54.1542 126.377 54.093C126.253 54.0346 126.128 53.9063 126.14 53.7405C126.158 53.5667 126.327 53.4791 126.454 53.4491C126.591 53.4155 126.72 53.4151 126.844 53.4203C127.091 53.4349 127.306 53.502 127.471 53.5825C127.637 53.6619 127.754 53.7551 127.827 53.823C127.901 53.8913 127.931 53.9379 127.927 53.9414C127.913 53.9564 127.764 53.787 127.439 53.6477C127.277 53.579 127.072 53.5229 126.84 53.5142C126.725 53.5115 126.598 53.5154 126.483 53.5454C126.367 53.5746 126.254 53.6445 126.247 53.7491C126.241 53.9864 126.554 54.0705 126.768 54.1041C126.998 54.142 127.212 54.1298 127.385 54.099C127.737 54.0358 127.927 53.9106 127.936 53.928Z" fill="white"/>
<path d="M127.899 53.949C127.897 53.9435 127.946 53.9123 128.045 53.8728C128.143 53.8345 128.292 53.7887 128.484 53.7689C128.674 53.7488 128.908 53.7559 129.155 53.8226C129.277 53.8554 129.41 53.902 129.523 53.9948C129.633 54.0856 129.721 54.2348 129.689 54.3967C129.603 54.7268 129.204 54.8074 128.967 54.7181C128.715 54.638 128.539 54.4915 128.395 54.3758C128.252 54.2558 128.148 54.148 128.079 54.0718C128.01 53.9952 127.976 53.9494 127.982 53.9446C127.994 53.9328 128.154 54.0971 128.444 54.3205C128.59 54.4271 128.77 54.563 128.996 54.6285C129.209 54.7055 129.524 54.6167 129.585 54.3778C129.625 54.1306 129.351 53.9656 129.128 53.9131C128.897 53.8451 128.675 53.8309 128.491 53.8412C128.12 53.8629 127.906 53.9668 127.899 53.949Z" fill="white"/>
<path d="M129.571 42.6902C129.575 42.6871 129.617 42.7246 129.675 42.8059C129.732 42.8869 129.806 43.0124 129.861 43.181C129.916 43.3488 129.954 43.5605 129.934 43.7954C129.923 43.9123 129.906 44.0343 129.851 44.1594C129.798 44.2818 129.672 44.4086 129.498 44.409C129.315 44.4042 129.211 44.2491 129.171 44.1302C129.126 44.0023 129.117 43.8799 129.114 43.7618C129.112 43.5261 129.168 43.3169 129.241 43.155C129.313 42.9915 129.402 42.875 129.468 42.8004C129.535 42.7258 129.582 42.6934 129.585 42.6974C129.602 42.7092 129.435 42.8628 129.311 43.1814C129.25 43.3394 129.206 43.5387 129.212 43.7599C129.217 43.8688 129.23 43.9889 129.269 44.0966C129.308 44.204 129.389 44.3063 129.499 44.3067C129.748 44.296 129.815 43.9928 129.835 43.7867C129.859 43.566 129.832 43.3638 129.788 43.2008C129.697 42.8723 129.553 42.7001 129.571 42.6902Z" fill="white"/>
<path d="M129.519 42.6908C129.513 42.69 129.511 42.6355 129.532 42.5392C129.552 42.4432 129.592 42.305 129.678 42.1483C129.763 41.9919 129.894 41.817 130.082 41.6642C130.177 41.5892 130.279 41.5142 130.411 41.4629C130.539 41.4119 130.723 41.4068 130.846 41.5241C130.972 41.6508 130.93 41.8301 130.87 41.941C130.807 42.0614 130.723 42.1542 130.637 42.2399C130.463 42.4077 130.269 42.5183 130.097 42.5838C129.925 42.6509 129.775 42.6734 129.673 42.6817C129.571 42.6896 129.514 42.6809 129.514 42.6758C129.511 42.6564 129.743 42.66 130.067 42.5179C130.227 42.4472 130.407 42.3358 130.566 42.1751C130.644 42.0946 130.723 42.001 130.776 41.8984C130.828 41.7965 130.847 41.6698 130.769 41.5951C130.585 41.4352 130.313 41.605 130.145 41.7369C129.965 41.877 129.834 42.0385 129.744 42.1838C129.564 42.4772 129.539 42.6959 129.519 42.6908Z" fill="white"/>
<path d="M129.533 42.686C129.529 42.6907 129.477 42.669 129.394 42.6113C129.311 42.5537 129.196 42.4605 129.083 42.3199C128.971 42.1806 128.859 41.9942 128.793 41.7672C128.762 41.6535 128.733 41.5338 128.739 41.398C128.745 41.2661 128.817 41.1054 128.98 41.0482C129.154 40.9925 129.307 41.1042 129.388 41.2026C129.476 41.308 129.529 41.4197 129.575 41.5295C129.661 41.7506 129.685 41.965 129.675 42.1411C129.667 42.318 129.625 42.4566 129.59 42.5486C129.554 42.6405 129.522 42.686 129.517 42.6836C129.497 42.6777 129.598 42.4791 129.599 42.1395C129.599 41.9713 129.569 41.7695 129.483 41.5642C129.438 41.4635 129.383 41.355 129.307 41.2669C129.232 41.1789 129.119 41.1094 129.016 41.1449C128.786 41.2365 128.833 41.5429 128.888 41.7431C128.945 41.9583 129.044 42.1391 129.145 42.2777C129.348 42.5565 129.546 42.671 129.533 42.686Z" fill="white"/>
<path d="M129.515 42.7294C129.518 42.7341 129.476 42.7713 129.386 42.8198C129.298 42.8684 129.161 42.93 128.98 42.971C128.801 43.0125 128.577 43.0338 128.332 42.9987C128.21 42.9793 128.084 42.9556 127.956 42.8944C127.832 42.836 127.707 42.7077 127.719 42.5419C127.737 42.3681 127.906 42.2805 128.033 42.2505C128.171 42.2169 128.299 42.2165 128.423 42.2216C128.67 42.2363 128.885 42.3034 129.05 42.3839C129.216 42.4633 129.332 42.5565 129.406 42.6244C129.48 42.6927 129.51 42.7397 129.506 42.7428C129.492 42.7578 129.343 42.5884 129.018 42.4491C128.856 42.3804 128.651 42.3243 128.419 42.3156C128.304 42.3129 128.177 42.3168 128.062 42.3468C127.947 42.376 127.834 42.4459 127.826 42.5505C127.821 42.7878 128.134 42.8719 128.348 42.9055C128.578 42.9434 128.791 42.9312 128.965 42.9004C129.315 42.8368 129.505 42.7116 129.515 42.7294Z" fill="white"/>
<path d="M129.478 42.7499C129.475 42.7443 129.525 42.7132 129.623 42.6733C129.722 42.635 129.871 42.5892 130.062 42.5694C130.253 42.5493 130.487 42.556 130.734 42.6231C130.856 42.6559 130.989 42.7025 131.101 42.7953C131.212 42.8861 131.3 43.0353 131.267 43.1972C131.182 43.5273 130.782 43.6079 130.545 43.5186C130.293 43.4385 130.117 43.292 129.973 43.1759C129.83 43.0559 129.726 42.9481 129.657 42.8719C129.588 42.7953 129.554 42.7495 129.559 42.7447C129.572 42.7329 129.731 42.8971 130.022 43.1206C130.168 43.2272 130.347 43.3631 130.573 43.4286C130.787 43.5056 131.102 43.4168 131.162 43.1779C131.203 42.9307 130.929 42.7657 130.706 42.7132C130.474 42.6452 130.252 42.631 130.069 42.6413C129.698 42.6642 129.485 42.7676 129.478 42.7499Z" fill="white"/>
<path d="M166.009 59.5194C166.009 59.5194 155.644 41.9331 150.936 39.6896C146.228 37.4462 130.08 53.7193 130.08 53.7193C123.707 61.0806 131.152 62.5861 134.095 61.9425C135.61 61.6113 147.68 46.9672 148.991 46.9242C150.302 46.8812 161.719 60.7912 161.719 60.7912C161.719 60.7912 168.293 60.867 169.204 60.5381C170.116 60.208 166.009 59.5194 166.009 59.5194Z" fill="#B78876"/>
<path d="M118.416 24.5042C118.514 24.1516 118.589 23.788 118.566 23.4236C118.543 23.0591 118.415 22.6915 118.152 22.4262C117.744 22.0152 117.036 21.9244 116.514 22.1929C115.992 22.4617 115.686 23.0544 115.751 23.6162C115.815 24.1781 116.232 24.6831 116.778 24.9042C117.324 25.1257 117.979 25.068 118.49 24.7814" fill="#263238"/>
</svg>
