<svg width="8" height="14" viewBox="0 0 8 14" fill="none" xmlns="http://www.w3.org/2000/svg">
<path d="M7.69471 6.30529C7.88218 6.49282 7.9875 6.74712 7.9875 7.01229C7.9875 7.27745 7.88218 7.53176 7.69471 7.71929L1.69471 13.7193C1.50611 13.9014 1.25351 14.0022 0.991311 14C0.729114 13.9977 0.478301 13.8925 0.292893 13.7071C0.107485 13.5217 0.00231629 13.2709 3.78893e-05 13.0087C-0.00224051 12.7465 0.0985539 12.4939 0.280712 12.3053L5.57371 7.01229L0.280713 1.71929C0.0985549 1.53069 -0.0022395 1.27808 3.89377e-05 1.01589C0.00231738 0.753691 0.107486 0.502878 0.292894 0.31747C0.478303 0.132061 0.729115 0.0268927 0.991312 0.0246144C1.25351 0.0223361 1.50611 0.12313 1.69471 0.305288L7.69471 6.30529Z" fill="#FF725E"/>
</svg>
