<svg width="24" height="24" viewBox="0 0 24 24" fill="none" xmlns="http://www.w3.org/2000/svg">
<g opacity="0.54">
<path d="M19 11.33V7.00001C19 6.54001 18.8457 6.15568 18.537 5.84701C18.229 5.53901 17.845 5.38501 17.385 5.38501H14.6H14V4.78501V2.98501H13.4M19 11.33L5 7.00001C5 6.54001 5.15433 6.15568 5.463 5.84701C5.77167 5.53834 6.15567 5.38434 6.615 5.38501H9.4H10V4.78501V2.98501H10.6M19 11.33L20.3 11.78M19 11.33L12.1566 9.5199M13.4 2.98501V2.38501H10.6V2.98501M13.4 2.98501H10.6M13.4 2.98501V5.38501V5.78501M10.6 2.98501V5.38501V5.78501M10.6 5.78501H13.4M10.6 5.78501V5.98501H10H6.615H6.61413C6.30496 5.98456 6.0768 6.08173 5.88726 6.27127C5.8871 6.27144 5.88693 6.27161 5.88676 6.27177C5.6975 6.46127 5.6 6.6899 5.6 7.00001V10.988V11.331V11.571M10.6 5.78501H10H6.615C6.61481 5.78501 6.61461 5.78501 6.61442 5.78501C6.29379 5.78514 5.9886 5.89415 5.74924 6.13325C5.74907 6.13341 5.7489 6.13358 5.74874 6.13375C5.50915 6.37333 5.4 6.67894 5.4 7.00001V10.988V11.331V11.6367L5.13586 11.7235L4.05073 12.08L3.82874 12.1529L3.82444 12.1543L3.56136 12.2408L3.324 12.158L5.6 11.571M13.4 5.78501V5.98501H14H17.385C17.3855 5.98501 17.386 5.98501 17.3865 5.98501C17.6963 5.98532 17.9241 6.0828 18.1124 6.27094C18.1125 6.27105 18.1126 6.27116 18.1127 6.27127C18.3023 6.46086 18.4 6.68962 18.4 7.00001V10.988V11.33V11.5742L17.8665 11.3986L12.1875 9.53007L12.1566 9.5199M13.4 5.78501H14H17.385H17.3872C17.7066 5.7862 18.0108 5.89471 18.25 6.13252C18.2503 6.13276 18.2505 6.133 18.2508 6.13325C18.4915 6.37297 18.6 6.67932 18.6 7.00001V10.988V11.33V11.64L18.8628 11.7264L19.9375 12.0801L20.1609 12.1536L20.3 11.78M5.6 11.571L6.13261 11.396L11.8127 9.52998L11.8434 9.51991M5.6 11.571L11.8434 9.51991M12.0003 17.4C12.7133 17.3999 13.3134 17.1957 13.8269 16.795L13.8274 16.7946C13.9668 16.6861 14.1051 16.572 14.2426 16.4521C14.685 16.0663 15.1174 15.6214 15.5392 15.1157L15.8728 14.7158C15.7857 14.6164 15.6951 14.5128 15.6008 14.405C14.9536 15.1381 14.4094 15.7314 13.968 16.185C13.4393 16.7283 12.7833 17 12 17M12.0003 17.4H12C11.2869 17.4 10.6867 17.1958 10.1731 16.795L10.1726 16.7946C10.0347 16.6872 9.8977 16.5743 9.76168 16.4558C9.31773 16.0691 8.88392 15.623 8.46075 15.1157L8.13249 14.7221C8.21864 14.6208 8.3082 14.515 8.40114 14.405C9.054 15.1414 9.59962 15.7357 10.038 16.188C10.5633 16.73 11.2173 17.0007 12 17M12.0003 17.4L12 17M12.0003 17.4L12 17M17.615 15.78C17.7697 15.9514 17.94 16.1103 18.126 16.2566L18.0719 16.4515L18.65 16.612L18.9523 16.0937C18.9062 16.0668 18.861 16.0393 18.8168 16.0112L19.75 12.65L12 10.1L4.238 12.65L5.18135 16.0009C5.13771 16.0283 5.09316 16.0552 5.04768 16.0817L5.35 16.6L5.92755 16.4374L5.87502 16.2508C6.06061 16.11 6.2306 15.9597 6.385 15.8C6.62348 15.5527 7.03111 15.0904 7.6079 14.4128C7.69986 14.5175 7.78999 14.6198 7.87828 14.7196L3.893 12.3491L3.89627 12.348L4.11402 12.2726L5.19627 11.898L5.6 11.7582V11.7489L6.18545 11.5586L11.872 9.71049L12 9.6689L12.1281 9.71055L17.8145 11.5586L18.4 11.7489V11.7572L18.8037 11.897L19.8757 12.2681L20.0961 12.3443C20.1883 12.3797 20.1999 12.4101 20.202 12.4158C20.2022 12.4161 20.2022 12.4163 20.2023 12.4165L20.2031 12.4182C20.2207 12.4582 20.2244 12.4816 20.2252 12.4909C20.2259 12.4986 20.225 12.5006 20.2247 12.5018L20.2218 12.5106L20.2193 12.5194L20.1499 12.761L19.0152 16.7134L18.8855 17.1654C18.7384 17.097 18.5962 17.0218 18.4589 16.9397C18.3052 16.8478 18.1575 16.7474 18.0157 16.6384L18.0153 16.638C17.805 16.4766 17.5766 16.2772 17.3301 16.0382L17.615 15.78ZM17.615 15.78C17.3769 15.5173 16.9715 15.0592 16.3987 14.4056C16.3036 14.5145 16.2103 14.6208 16.119 14.7245L16.4518 15.1051C16.7664 15.4651 17.0589 15.7752 17.3295 16.0376L17.615 15.78ZM12.1566 9.5199L12 9.03801M12.1566 9.5199L6 7.00001C6 6.82068 6.05767 6.67334 6.173 6.55801C6.28833 6.44268 6.43567 6.38501 6.615 6.38501H17.385C17.5643 6.38568 17.7117 6.44334 17.827 6.55801C17.9423 6.67268 18 6.82001 18 7.00001V10.3571L18.1855 10.4174L18 10.988H17.4V10.793L12 9.03801M20.3 11.78L20.1697 12.1565L20.4813 12.259L20.47 12.2994L20.4697 12.3005L20.3984 12.5575L20.3949 12.5699L20.3281 12.8105L19.2281 16.7725L19.0938 17.2563C19.2086 17.3031 19.3262 17.346 19.4467 17.385L20.796 12.685C20.8467 12.527 20.832 12.3573 20.752 12.176C20.6727 11.9947 20.522 11.8627 20.3 11.78ZM12 9.03801L11.8434 9.51991M12 9.03801L11.8434 9.51991M18.3477 17.1303L18.817 17.404L17.17 16.1825C17.3815 16.4168 17.6171 16.6292 17.8756 16.8201C17.8757 16.8202 17.8757 16.8202 17.8758 16.8203C18.0255 16.9308 18.1829 17.0341 18.3477 17.1303Z" stroke="#FFF5F2" stroke-width="1.2"/>
<rect x="11" y="3" width="2" height="3" fill="#FFF5F2"/>
</g>
</svg>
